{
.appVersion = "3221";
.formatVersion = 3;
axes = (
{
name = Weight;
tag = wght;
}
);
classes = (
{
automatic = 1;

glyphs = (
{
glyphname = A;
kernLeft = A;
kernRight = A;
lastChange = "2018-08-31 13:58:04 +0000";
layers = (
{
anchors = (
{
name = bottom;
pos = (736,0);
},
{
name = ogonek;
pos = (1384,0);
},
{
name = top;
pos = (719,1345);
}
);
layerId = "0331963E-C1C8-4E93-A463-84B984C1D75E";
shapes = (
{
closed = 1;
nodes = (
(364,0,l),
(364,54,l),
(221,54,l),
(363,435,l),
(1075,435,l),
(1218,54,l),
(1075,54,l),
(1075,0,l),
(1384,0,l),
(1384,54,l),
(1277,54,l),
(752,1456,l),
(686,1456,l),
(162,54,l),
(55,54,l),
(55,0,l)
);
},
{
closed = 1;
nodes = (
(689,1309,l),
(716,1391,l),
(722,1391,l),
(750,1309,l),
(1055,489,l),
(383,489,l)
);
}
);
width = 1472;
},
{
anchors = (
{
name = bottom;
pos = (767,0);
},
{
name = ogonek;
pos = (1463,0);
},
{
name = top;
pos = (770,1376);
}
);
layerId = "B06AEEA2-953E-4FA5-BFB1-0445B6E4B274";
shapes = (
{
closed = 1;
nodes = (
(487,0,l),
(487,126,l),
(377,145,l),
(476,413,l),
(1059,413,l),
(1155,145,l),
(1045,126,l),
(1045,0,l),
(1463,0,l),
(1463,126,l),
(1356,141,l),
(856,1456,l),
(687,1456,l),
(178,141,l),
(70,126,l),
(70,0,l)
);
},
{
closed = 1;
nodes = (
(755,1170,l),
(767,1203,l),
(773,1203,l),
(785,1170,l),
(999,578,l),
(537,578,l)
);
}
);
width = 1533;
},
{
anchors = (
{
name = bottom;
pos = (750,0);
},
{
name = ogonek;
pos = (1476,0);
},
{
name = top;
pos = (750,1356);
}
);
layerId = "55372407-EEEC-4390-8B77-FB5958F23D2B";
shapes = (
{
closed = 1;
nodes = (
(568,0,l),
(568,205,l),
(473,223,l),
(515,381,l),
(983,381,l),
(1027,223,l),
(932,205,l),
(932,0,l),
(1476,0,l),
(1476,205,l),
(1374,220,l),
(939,1456,l),
(559,1456,l),
(125,220,l),
(23,205,l),
(23,0,l)
);
},
{
closed = 1;
nodes = (
(727,1063,l),
(744,1119,l),
(750,1119,l),
(766,1068,l),
(908,627,l),
(589,627,l)
);
}
);
width = 1499;
}
);
unicode = 65;
},
{
glyphname = Aacute;
kernLeft = A;
kernRight = A;
lastChange = "2018-08-01 20:26:21 +0000";
layers = (
{
layerId = "0331963E-C1C8-4E93-A463-84B984C1D75E";
shapes = (
{
ref = A;
},
{
pos = (619,263);
ref = acutecomb;
}
);
width = 1472;
},
{
layerId = "B06AEEA2-953E-4FA5-BFB1-0445B6E4B274";
shapes = (
{
ref = A;
},
{
pos = (609,294);
ref = acutecomb;
}
);
width = 1533;
},
{
layerId = "55372407-EEEC-4390-8B77-FB5958F23D2B";
shapes = (
{
ref = A;
},
{
pos = (502,274);
ref = acutecomb;
}
);
width = 1499;
},
{
associatedMasterId = "B06AEEA2-953E-4FA5-BFB1-0445B6E4B274";
layerId = "CF37F567-B3A6-42C2-B4E1-40AF44398478";
name = "Jul 25 18, 16:57";
shapes = (
{
closed = 1;
nodes = (
(178,141,l),
(687,1456,l),
(856,1456,l),
(1356,141,l),
(1463,126,l),
(1463,0,l),
(1045,0,l),
(1045,126,l),
(1155,145,l),
(1059,413,l),
(476,413,l),
(377,145,l),
(487,126,l),
(487,0,l),
(70,0,l),
(70,126,l)
);
},
{
closed = 1;
nodes = (
(999,578,l),
(785,1170,l),
(773,1203,l),
(767,1203,l),
(755,1170,l),
(537,578,l)
);
},
{
closed = 1;
nodes = (
(1046,1822,l),
(1048,1816,l),
(779,1556,l),
(641,1556,l),
(632,1556,l),
(816,1822,l)
);
}
);
width = 1533;
},
{
anchors = (
{
name = _top;
pos = (737,1415);
},
{
name = top;
pos = (737,1811);
}
);
associatedMasterId = "0331963E-C1C8-4E93-A463-84B984C1D75E";
layerId = "DABE19C3-14C2-4DC8-87E0-9E90B3DFAC83";
name = "Jul 25 18, 17:13";
shapes = (
{
closed = 1;
nodes = (
(162,54,l),
(686,1456,l),
(752,1456,l),
(1277,54,l),
(1384,54,l),
(1384,0,l),
(1075,0,l),
(1075,54,l),
(1218,54,l),
(1075,435,l),
(363,435,l),
(221,54,l),
(364,54,l),
(364,0,l),
(55,0,l),
(55,54,l)
);
},
{
closed = 1;
nodes = (
(1055,489,l),
(750,1309,l),
(722,1391,l),
(716,1391,l),
(689,1309,l),
(383,489,l)
);
},
{
closed = 1;
nodes = (
(933,1811,l),
(935,1806,l),
(694,1545,l),
(649,1545,l),
(647,1550,l),
(869,1811,l)
);
}
);
width = 1472;
}
);
unicode = 193;
},
{
glyphname = Aringacute;
kernLeft = A;
kernRight = A;
lastChange = "2018-08-01 20:26:21 +0000";
layers = (
{
layerId = "0331963E-C1C8-4E93-A463-84B984C1D75E";
shapes = (
{
ref = A;
},
{
pos = (518,263);
ref = ringcomb_acutecomb.case;
}
);
width = 1472;
},
{
layerId = "B06AEEA2-953E-4FA5-BFB1-0445B6E4B274";
shapes = (
{
ref = A;
},
{
pos = (528,294);
ref = ringcomb_acutecomb.case;
}
);
width = 1533;
},
{
layerId = "55372407-EEEC-4390-8B77-FB5958F23D2B";
shapes = (
{
ref = A;
},
{
pos = (462,274);
ref = ringcomb_acutecomb.case;
}
);
width = 1499;
},
{
anchors = (
{
name = _top;
pos = (777.5,1386);
},
{
name = bottom;
pos = (767,0);
},
{
name = ogonek;
pos = (1463,0);
},
{
name = top;
pos = (767,1376);
}
);
associatedMasterId = "B06AEEA2-953E-4FA5-BFB1-0445B6E4B274";
layerId = "AEF12807-F076-4690-8D96-FCA26769A35F";
name = "Jul 27 18, 14:29";
shapes = (
{
closed = 1;
nodes = (
(487,0,l),
(487,126,l),
(377,145,l),
(476,413,l),
(1059,413,l),
(1155,145,l),
(1045,126,l),
(1045,0,l),
(1463,0,l),
(1463,126,l),
(1356,141,l),
(856,1456,l),
(687,1456,l),
(178,141,l),
(70,126,l),
(70,0,l)
);
},
{
closed = 1;
nodes = (
(755,1170,l),
(767,1203,l),
(773,1203,l),
(785,1170,l),
(999,578,l),
(537,578,l)
);
},
{
closed = 1;
nodes = (
(892,1364,o),
(984,1443,o),
(984,1558,cs),
(984,1671,o),
(892,1756,o),
(779,1756,cs),
(663,1756,o),
(571,1670,o),
(571,1558,cs),
(571,1443,o),
(663,1364,o),
(779,1364,cs)
);
},
{
closed = 1;
nodes = (
(722,1454,o),
(674,1501,o),
(674,1558,cs),
(674,1618,o),
(720,1665,o),
(779,1665,cs),
(835,1665,o),
(881,1618,o),
(881,1558,cs),
(881,1498,o),
(835,1454,o),
(779,1454,cs)
);
},
{
closed = 1;
nodes = (
(1071,2119,l),
(1073,2113,l),
(804,1847,l),
(666,1847,l),
(657,1847,l),
(841,2119,l)
);
}
);
width = 1500;
}
);
unicode = 506;
},
{
glyphname = AE;
lastChange = "2018-07-31 16:34:06 +0000";
layers = (
{
anchors = (
{
name = bottom;
pos = (1053,0);
},
{
name = top;
pos = (1097,1345);
}
);
layerId = "0331963E-C1C8-4E93-A463-84B984C1D75E";
shapes = (
{
closed = 1;
nodes = (
(366,0,l),
(366,54,l),
(235,54,l),
(458,425,l),
(1086,425,l),
(1101,54,l),
(941,54,l),
(941,0,l),
(1856,0,l),
(1856,293,l),
(1802,293,l),
(1802,54,l),
(1155,54,l),
(1127,732,l),
(1713,732,l),
(1713,786,l),
(1125,786,l),
(1099,1402,l),
(1741,1402,l),
(1741,1163,l),
(1795,1163,l),
(1795,1456,l),
(1019,1456,l),
(170,54,l),
(51,54,l),
(51,0,l)
);
},
{
closed = 1;
nodes = (
(983,1298,l),
(1040,1403,l),
(1045,1402,l),
(1084,478,l),
(490,478,l)
);
}
);
width = 2026;
},
{
anchors = (
{
name = bottom;
pos = (1088,0);
},
{
name = top;
pos = (1158,1376);
}
);
layerId = "B06AEEA2-953E-4FA5-BFB1-0445B6E4B274";
shapes = (
{
closed = 1;
nodes = (
(509,0,l),
(509,126,l),
(427,140,l),
(548,350,l),
(1104,350,l),
(1112,153,l),
(956,126,l),
(956,0,l),
(2014,0,l),
(2014,321,l),
(1847,321,l),
(1831,154,l),
(1309,154,l),
(1287,680,l),
(1871,680,l),
(1871,835,l),
(1281,835,l),
(1261,1301,l),
(1769,1301,l),
(1784,1134,l),
(1952,1134,l),
(1952,1456,l),
(985,1456,l),
(192,146,l),
(51,126,l),
(51,0,l)
);
},
{
closed = 1;
nodes = (
(1053,1227,l),
(1061,1241,l),
(1066,1239,l),
(1097,529,l),
(651,529,l)
);
}
);
width = 2096;
},
{
anchors = (
{
name = bottom;
pos = (1085,0);
},
{
name = top;
pos = (1149,1356);
}
);
layerId = "55372407-EEEC-4390-8B77-FB5958F23D2B";
shapes = (
{
closed = 1;
nodes = (
(693,0,l),
(693,205,l),
(605,219,l),
(671,356,l),
(1052,356,l),
(1057,234,l),
(911,205,l),
(911,0,l),
(1996,0,l),
(1996,397,l),
(1738,397,l),
(1728,272,l),
(1406,272,l),
(1391,607,l),
(1850,607,l),
(1850,879,l),
(1380,879,l),
(1366,1183,l),
(1665,1183,l),
(1675,1058,l),
(1934,1058,l),
(1934,1456,l),
(856,1456,l),
(213,225,l),
(75,205,l),
(75,0,l)
);
},
{
closed = 1;
nodes = (
(1004,1047,l),
(1015,1072,l),
(1020,1072,l),
(1040,615,l),
(795,615,l)
);
}
);
width = 2090;
}
);
unicode = 198;
},
{
glyphname = B;
kernRight = B;
lastChange = "2023-10-11 13:41:42 +0000";
layers = (
{
anchors = (
{
name = bottom;
pos = (645,0);
},
{
name = top;
pos = (645,1345);
}
);
layerId = "0331963E-C1C8-4E93-A463-84B984C1D75E";
shapes = (
{
closed = 1;
nodes = (
(709,0,ls),
(980,0,o),
(1159,146,o),
(1159,401,cs),
(1159,577,o),
(1018,729,o),
(837,753,c),
(1000,782,o),
(1093,910,o),
(1093,1083,cs),
(1093,1332,o),
(918,1456,o),
(617,1456,cs),
(234,1456,l),
(71,1456,l),
(71,1402,l),
(234,1402,l),
(234,54,l),
(71,54,l),
(71,0,l)
);
},
{
closed = 1;
nodes = (
(288,719,l),
(719,719,ls),
(963,719,o),
(1105,578,o),
(1105,399,cs),
(1105,182,o),
(954,54,o),
(709,54,cs),
(288,54,l)
);
},
{
closed = 1;
nodes = (
(288,1402,l),
(617,1402,ls),
(894,1402,o),
(1038,1295,o),
(1038,1087,cs),
(1038,875,o),
(902,773,o),
(637,773,cs),
(288,773,l)
);
}
);
width = 1247;
},
{
anchors = (
{
name = bottom;
pos = (669,0);
},
{
name = top;
pos = (669,1376);
}
);
layerId = "B06AEEA2-953E-4FA5-BFB1-0445B6E4B274";
shapes = (
{
closed = 1;
nodes = (
(771,0,ls),
(1067,0,o),
(1253,144,o),
(1253,411,cs),
(1253,590,o),
(1145,738,o),
(970,775,c),
(1105,824,o),
(1194,933,o),
(1194,1062,cs),
(1194,1325,o),
(1013,1456,o),
(709,1456,cs),
(244,1456,l),
(81,1456,l),
(81,1329,l),
(244,1301,l),
(244,154,l),
(81,126,l),
(81,0,l)
);
},
{
closed = 1;
nodes = (
(441,683,l),
(801,683,ls),
(973,683,o),
(1055,580,o),
(1055,409,cs),
(1055,246,o),
(951,154,o),
(771,154,cs),
(441,154,l)
);
},
{
closed = 1;
nodes = (
(441,1301,l),
(709,1301,ls),
(896,1301,o),
(997,1223,o),
(997,1066,cs),
(997,925,o),
(901,837,o),
(760,837,cs),
(441,837,l)
);
}
);
width = 1322;
},
{
anchors = (
{
name = bottom;
pos = (682,0);
},
{
name = top;
pos = (682,1356);
}
);
layerId = "55372407-EEEC-4390-8B77-FB5958F23D2B";
shapes = (
{
closed = 1;
nodes = (
(773,0,ls),
(1136,0,o),
(1331,146,o),
(1331,432,cs),
(1331,582,o),
(1256,708,o),
(1082,746,c),
(1218,802,o),
(1282,916,o),
(1282,1054,cs),
(1282,1321,o),
(1066,1456,o),
(699,1456,cs),
(191,1456,l),
(40,1456,l),
(40,1250,l),
(191,1218,l),
(191,237,l),
(40,205,l),
(40,0,l)
);
},
{
closed = 1;
nodes = (
(542,620,l),
(790,620,ls),
(925,620,o),
(982,558,o),
(982,433,cs),
(982,321,o),
(912,267,o),
(773,267,cs),
(542,267,l)
);
},
{
closed = 1;
nodes = (
(542,1188,l),
(699,1188,ls),
(855,1188,o),
(931,1135,o),
(931,1014,cs),
(931,903,o),
(849,852,o),
(684,852,cs),
(542,852,l)
);
}
);
width = 1358;
}
);
unicode = 66;
},
{
glyphname = C;
kernLeft = C;
kernRight = C;
lastChange = "2018-07-27 21:55:21 +0000";
layers = (
{
anchors = (
{
name = bottom;
pos = (747,0);
},
{
name = top;
pos = (747,1345);
}
);
layerId = "0331963E-C1C8-4E93-A463-84B984C1D75E";
shapes = (
{
closed = 1;
nodes = (
(958,-21,o),
(1105,19,o),
(1231,103,c),
(1231,372,l),
(1176,372,l),
(1176,137,l),
(1081,73,o),
(937,33,o),
(791,33,cs),
(410,33,o),
(184,310,o),
(184,719,cs),
(184,739,ls),
(184,1147,o),
(422,1423,o),
(767,1423,cs),
(958,1423,o),
(1052,1377,o),
(1161,1296,c),
(1161,1062,l),
(1216,1062,l),
(1216,1319,l),
(1097,1423,o),
(978,1477,o),
(767,1477,cs),
(387,1477,o),
(130,1177,o),
(130,737,cs),
(130,719,ls),
(130,280,o),
(369,-21,o),
(794,-21,cs)
);
}
);
width = 1348;
},
{
anchors = (
{
name = bottom;
pos = (710,0);
},
{
name = top;
pos = (710,1376);
}
);
layerId = "B06AEEA2-953E-4FA5-BFB1-0445B6E4B274";
shapes = (
{
closed = 1;
nodes = (
(900,-21,o),
(1061,19,o),
(1170,87,c),
(1170,403,l),
(1016,403,l),
(994,200,l),
(935,164,o),
(839,139,o),
(746,139,cs),
(445,139,o),
(278,350,o),
(278,717,cs),
(278,740,ls),
(278,1077,o),
(435,1314,o),
(721,1314,cs),
(838,1314,o),
(932,1286,o),
(996,1237,c),
(1017,1007,l),
(1174,1007,l),
(1174,1321,l),
(1071,1412,o),
(910,1477,o),
(722,1477,cs),
(321,1477,o),
(80,1165,o),
(80,738,cs),
(80,717,ls),
(80,293,o),
(300,-21,o),
(739,-21,cs)
);
}
);
width = 1290;
},
{
anchors = (
{
name = bottom;
pos = (724,0);
},
{
name = top;
pos = (724,1356);
}
);
layerId = "55372407-EEEC-4390-8B77-FB5958F23D2B";
shapes = (
{
closed = 1;
nodes = (
(990,-21,o),
(1172,48,o),
(1288,128,c),
(1288,495,l),
(1032,495,l),
(997,289,l),
(921,261,o),
(838,243,o),
(759,243,cs),
(536,243,o),
(385,426,o),
(385,694,cs),
(385,763,ls),
(385,1049,o),
(531,1213,o),
(753,1213,cs),
(851,1213,o),
(928,1184,o),
(996,1138,c),
(1031,923,l),
(1286,923,l),
(1286,1298,l),
(1129,1428,o),
(943,1477,o),
(741,1477,cs),
(305,1477,o),
(35,1181,o),
(35,761,cs),
(35,694,ls),
(35,238,o),
(338,-21,o),
(755,-21,cs)
);
}
);
width = 1340;
}
);
unicode = 67;
userData = {
com.typemytype.robofont.layerData = {
mask = {
anchors = (
);
components = (
);
contours = (
{
points = (
{
segmentType = line;
smooth = 0;
x = 1256;
y = 992;
},
{
segmentType = line;
smooth = 0;
x = 1201;
y = 992;
},
{
segmentType = line;
smooth = 0;
x = 1201;
y = 1226;
},
{
smooth = 0;
x = 1111.66667;
y = 1346;
},
{
smooth = 0;
x = 957.66667;
y = 1423;
},
{
segmentType = curve;
smooth = 1;
x = 767;
y = 1423;
},
{
smooth = 0;
x = 421.66667;
y = 1423;
},
{
smooth = 0;
x = 184;
y = 1147;
},
{
segmentType = curve;
smooth = 1;
x = 184;
y = 739;
},
{
segmentType = line;
smooth = 1;
x = 184;
y = 719;
},
{
smooth = 0;
x = 184;
y = 309.66667;
},
{
smooth = 0;
x = 422.33333;
y = 33;
},
{
segmentType = curve;
smooth = 1;
x = 757;
y = 33;
},
{
smooth = 0;
x = 949;
y = 33;
},
{
smooth = 0;
x = 1113;
y = 110;
},
{
segmentType = curve;
smooth = 0;
x = 1201;
y = 230;
},
{
segmentType = line;
smooth = 0;
x = 1201;
y = 464;
},
{
segmentType = line;
smooth = 0;
x = 1256;
y = 464;
},
{
segmentType = line;
smooth = 0;
x = 1256;
y = 210;
},
{
smooth = 0;
x = 1158.66667;
y = 67.33333;
},
{
smooth = 0;
x = 970.33333;
y = -21;
},
{
segmentType = curve;
smooth = 1;
x = 757;
y = -21;
},
{
smooth = 0;
x = 387.66667;
y = -21;
},
{
smooth = 0;
x = 130;
y = 280.33333;
},
{
segmentType = curve;
smooth = 1;
x = 130;
y = 719;
},
{
segmentType = line;
smooth = 1;
x = 130;
y = 737;
},
{
smooth = 0;
x = 130;
y = 1177;
},
{
smooth = 0;
x = 387;
y = 1477;
},
{
segmentType = curve;
smooth = 1;
x = 767;
y = 1477;
},
{
smooth = 0;
x = 977.66667;
y = 1477;
},
{
smooth = 0;
x = 1157.33333;
y = 1388.66667;
},
{
segmentType = curve;
smooth = 0;
x = 1256;
y = 1246;
}
);
}
);
lib = {
};
name = C;
unicodes = (
);
width = 1348;
};
};
com.typemytype.robofont.mark = (
1,
0.1703,
0.1669,
0.8287
);
};
},
{
glyphname = Ccedilla;
kernLeft = C;
kernRight = C;
lastChange = "2018-08-01 22:54:44 +0000";
layers = (
{
layerId = "0331963E-C1C8-4E93-A463-84B984C1D75E";
shapes = (
{
ref = C;
},
{
pos = (582,0);
ref = cedillacomb;
}
);
width = 1348;
},
{
layerId = "B06AEEA2-953E-4FA5-BFB1-0445B6E4B274";
shapes = (
{
ref = C;
},
{
pos = (567,0);
ref = cedillacomb;
}
);
width = 1290;
},
{
layerId = "55372407-EEEC-4390-8B77-FB5958F23D2B";
shapes = (
{
ref = C;
},
{
pos = (520,0);
ref = cedillacomb;
}
);
width = 1340;
},
{
anchors = (
{
name = _bottom;
pos = (740,-8);
},
{
name = bottom;
pos = (740,-443);
}
);
associatedMasterId = "B06AEEA2-953E-4FA5-BFB1-0445B6E4B274";
layerId = "218EF8A4-3A05-4D21-9D56-091C7F219375";
name = "Jul 26 18, 14:29";
shapes = (
{
closed = 1;
nodes = (
(1017,1007,l),
(996,1237,l),
(932,1286,o),
(838,1314,o),
(721,1314,cs),
(435,1314,o),
(278,1077,o),
(278,740,cs),
(278,717,ls),
(278,350,o),
(445,139,o),
(746,139,cs),
(839,139,o),
(935,164,o),
(994,200,c),
(1016,403,l),
(1170,403,l),
(1170,87,l),
(1061,19,o),
(900,-21,o),
(739,-21,cs),
(300,-21,o),
(80,293,o),
(80,717,cs),
(80,738,ls),
(80,1165,o),
(321,1477,o),
(722,1477,cs),
(910,1477,o),
(1071,1412,o),
(1174,1321,c),
(1174,1007,l)
);
},
{
closed = 1;
nodes = (
(762,-60,l),
(849,-75,o),
(913,-126,o),
(913,-233,cs),
(913,-361,o),
(804,-443,o),
(608,-443,c),
(601,-334,l),
(697,-334,o),
(760,-301,o),
(760,-236,cs),
(760,-172,o),
(717,-152,o),
(601,-143,c),
(633,-8,l),
(774,-8,l)
);
}
);
width = 1321;
}
);
unicode = 199;
},
{
glyphname = D;
kernRight = D;
lastChange = "2018-07-28 17:35:54 +0000";
layers = (
{
anchors = (
{
name = bottom;
pos = (693,0);
},
{
name = center;
pos = (332,743);
},
{
name = top;
pos = (673,1345);
}
);
layerId = "0331963E-C1C8-4E93-A463-84B984C1D75E";
shapes = (
{
closed = 1;
nodes = (
(629,0,ls),
(986,0,o),
(1248,299,o),
(1248,719,cs),
(1248,737,ls),
(1248,1156,o),
(986,1456,o),
(629,1456,cs),
(234,1456,l),
(71,1456,l),
(71,1402,l),
(234,1402,l),
(234,54,l),
(71,54,l),
(71,0,l)
);
},
{
closed = 1;
nodes = (
(288,1402,l),
(629,1402,ls),
(954,1402,o),
(1194,1119,o),
(1194,740,cs),
(1194,719,ls),
(1194,336,o),
(954,54,o),
(629,54,cs),
(288,54,l)
);
}
);
width = 1386;
},
{
anchors = (
{
name = bottom;
pos = (678,0);
},
{
name = center;
pos = (383,731);
},
{
name = top;
pos = (678,1376);
}
);
layerId = "B06AEEA2-953E-4FA5-BFB1-0445B6E4B274";
shapes = (
{
closed = 1;
nodes = (
(661,0,ls),
(1047,0,o),
(1291,307,o),
(1291,712,cs),
(1291,743,ls),
(1291,1157,o),
(1036,1456,o),
(651,1456,cs),
(244,1456,l),
(81,1456,l),
(81,1329,l),
(244,1301,l),
(244,154,l),
(81,126,l),
(81,0,l)
);
},
{
closed = 1;
nodes = (
(441,1301,l),
(651,1301,ls),
(926,1301,o),
(1094,1062,o),
(1094,745,cs),
(1094,712,ls),
(1094,404,o),
(926,154,o),
(651,154,cs),
(441,154,l)
);
}
);
width = 1356;
},
{
anchors = (
{
name = bottom;
pos = (692,0);
},
{
name = center;
pos = (370,742);
},
{
name = top;
pos = (692,1356);
}
);
layerId = "55372407-EEEC-4390-8B77-FB5958F23D2B";
shapes = (
{
closed = 1;
nodes = (
(722,0,ls),
(1116,0,o),
(1395,294,o),
(1395,716,cs),
(1395,739,ls),
(1395,1160,o),
(1116,1456,o),
(722,1456,cs),
(193,1456,l),
(40,1456,l),
(40,1250,l),
(193,1212,l),
(193,242,l),
(40,205,l),
(40,0,l)
);
},
{
closed = 1;
nodes = (
(544,1189,l),
(704,1189,ls),
(925,1189,o),
(1042,1009,o),
(1042,740,cs),
(1042,716,ls),
(1042,445,o),
(925,266,o),
(704,266,cs),
(544,266,l)
);
}
);
width = 1470;
},
{
associatedMasterId = "B06AEEA2-953E-4FA5-BFB1-0445B6E4B274";
layerId = "22444A36-CA6C-48F3-B96C-30AC37661B8D";
name = "Jul 17 18, 11:19";
shapes = (
{
closed = 1;
nodes = (
(1031,1456,o),
(1294,1188,o),
(1294,817,cs),
(1294,638,ls),
(1294,275,o),
(1041,0,o),
(661,0,cs),
(81,0,l),
(81,126,l),
(244,154,l),
(244,1301,l),
(81,1329,l),
(81,1456,l),
(244,1456,l),
(651,1456,ls)
);
},
{
closed = 1;
nodes = (
(441,154,l),
(651,154,ls),
(920,154,o),
(1097,371,o),
(1097,638,cs),
(1097,819,ls),
(1097,1094,o),
(920,1301,o),
(651,1301,cs),
(441,1301,l)
);
}
);
width = 1359;
},
{
associatedMasterId = "0331963E-C1C8-4E93-A463-84B984C1D75E";
layerId = "1FB66039-B9B4-405F-88BA-51847AE43821";
name = "Jul 17 18, 11:19";
shapes = (
{
closed = 1;
nodes = (
(971.667,1456,o),
(1238,1189,o),
(1238,817,cs),
(1238,639,ls),
(1238,265.667,o),
(971.667,0,o),
(637,0,cs),
(71,0,l),
(71,54,l),
(234,54,l),
(234,1402,l),
(71,1402,l),
(71,1456,l),
(234,1456,l),
(637,1456,ls)
);
},
{
closed = 1;
nodes = (
(288,54,l),
(637,54,ls),
(939.667,54,o),
(1184,301.667,o),
(1184,639,cs),
(1184,820,ls),
(1184,1153.333,o),
(939.667,1402,o),
(637,1402,cs),
(288,1402,l)
);
}
);
width = 1386;
},
{
associatedMasterId = "55372407-EEEC-4390-8B77-FB5958F23D2B";
layerId = "D42F9FC4-4B0E-48AC-B45B-0D1BE400F9F4";
name = "Jul 17 18, 11:19";
shapes = (
{
closed = 1;
nodes = (
(1089,1456,o),
(1343,1214,o),
(1343,867,cs),
(1343,588,ls),
(1343,234,o),
(1083,0,o),
(742,0,cs),
(40,0,l),
(40,205,l),
(191,237,l),
(191,1218,l),
(40,1250,l),
(40,1456,l),
(191,1456,l),
(748,1456,ls)
);
},
{
closed = 1;
nodes = (
(542,267,l),
(724,267,ls),
(896,267,o),
(990,384,o),
(990,588,cs),
(990,869,ls),
(990,1064,o),
(896,1188,o),
(724,1188,cs),
(542,1188,l)
);
}
);
width = 1443;
}
);
unicode = 68;
},
{
color = 9;
glyphname = Dcroat;
kernRight = D;
lastChange = "2018-07-28 17:29:05 +0000";
layers = (
{
layerId = "0331963E-C1C8-4E93-A463-84B984C1D75E";
shapes = (
{
ref = Eth;
}
);
width = 1386;
},
{
layerId = "B06AEEA2-953E-4FA5-BFB1-0445B6E4B274";
shapes = (
{
ref = Eth;
}
);
width = 1356;
},
{
layerId = "55372407-EEEC-4390-8B77-FB5958F23D2B";
shapes = (
{
ref = Eth;
}
);
width = 1470;
},
{
associatedMasterId = "B06AEEA2-953E-4FA5-BFB1-0445B6E4B274";
layerId = "1A0B4958-F9D1-47DF-B034-4E7E0F767965";
name = "Jul 26 18, 15:40";
shapes = (
{
closed = 1;
nodes = (
(707,663,l),
(66,663,l),
(66,818,l),
(707,818,l)
);
},
{
pos = (20,0);
ref = D;
}
);
width = 1376;
},
{
associatedMasterId = "55372407-EEEC-4390-8B77-FB5958F23D2B";
layerId = "923F08FE-BB35-4BF7-AFBD-66E6A94D6BEB";
name = "Jul 28 18, 13:13";
shapes = (
{
closed = 1;
nodes = (
(772,666,l),
(34,666,l),
(34,821,l),
(772,821,l)
);
},
{
pos = (34,0);
ref = D;
}
);
width = 1504;
}
);
metricRight = D;
unicode = 272;
},
{
glyphname = E;
kernRight = E;
lastChange = "2018-07-30 03:01:35 +0000";
layers = (
{
anchors = (
{
name = bottom;
pos = (635,0);
},
{
name = ogonek;
pos = (1120,0);
},
{
name = top;
pos = (635,1345);
},
{
name = topleft;
pos = (20,1456);
}
);
layerId = "0331963E-C1C8-4E93-A463-84B984C1D75E";
shapes = (
{
closed = 1;
nodes = (
(1120,0,l),
(1120,293,l),
(1066,293,l),
(1066,54,l),
(288,54,l),
(288,732,l),
(918,732,l),
(918,786,l),
(288,786,l),
(288,1402,l),
(1036,1402,l),
(1036,1163,l),
(1090,1163,l),
(1090,1456,l),
(71,1456,l),
(71,1402,l),
(234,1402,l),
(234,54,l),
(71,54,l),
(71,0,l)
);
}
);
width = 1270;
},
{
anchors = (
{
name = bottom;
pos = (653,0);
},
{
name = ogonek;
pos = (1190,0);
},
{
name = top;
pos = (653,1376);
},
{
name = topleft;
pos = (20,1376);
}
);
layerId = "B06AEEA2-953E-4FA5-BFB1-0445B6E4B274";
shapes = (
{
closed = 1;
nodes = (
(1190,0,l),
(1190,349,l),
(1033,349,l),
(1011,148,l),
(441,148,l),
(441,675,l),
(978,675,l),
(978,830,l),
(441,830,l),
(441,1304,l),
(979,1304,l),
(1001,1106,l),
(1159,1106,l),
(1159,1456,l),
(81,1456,l),
(81,1329,l),
(244,1301,l),
(244,154,l),
(81,126,l),
(81,0,l)
);
}
);
width = 1306;
},
{
anchors = (
{
name = bottom;
pos = (655,0);
},
{
name = ogonek;
pos = (1219,0);
},
{
name = top;
pos = (655,1356);
},
{
name = topleft;
pos = (20,1356);
}
);
layerId = "55372407-EEEC-4390-8B77-FB5958F23D2B";
shapes = (
{
closed = 1;
nodes = (
(1219,0,l),
(1219,428,l),
(957,428,l),
(949,271,l),
(542,271,l),
(542,618,l),
(1007,618,l),
(1007,887,l),
(542,887,l),
(542,1186,l),
(930,1186,l),
(938,1036,l),
(1203,1036,l),
(1203,1456,l),
(40,1456,l),
(40,1250,l),
(191,1218,l),
(191,237,l),
(40,205,l),
(40,0,l)
);
}
);
width = 1309;
}
);
unicode = 69;
userData = {
com.typemytype.robofont.layerData = {
mask = {
anchors = (
);
components = (
);
contours = (
{
points = (
{
segmentType = line;
smooth = 0;
x = 71;
y = 0;
},
{
segmentType = line;
smooth = 0;
x = 71;
y = 54;
},
{
segmentType = line;
smooth = 0;
x = 234;
y = 54;
},
{
segmentType = line;
smooth = 0;
x = 234;
y = 1402;
},
{
segmentType = line;
smooth = 0;
x = 71;
y = 1402;
},
{
segmentType = line;
smooth = 0;
x = 71;
y = 1456;
},
{
segmentType = line;
smooth = 0;
x = 1120;
y = 1456;
},
{
segmentType = line;
smooth = 0;
x = 1120;
y = 1163;
},
{
segmentType = line;
smooth = 0;
x = 1066;
y = 1163;
},
{
segmentType = line;
smooth = 0;
x = 1066;
y = 1402;
},
{
segmentType = line;
smooth = 0;
x = 288;
y = 1402;
},
{
segmentType = line;
smooth = 0;
x = 288;
y = 786;
},
{
segmentType = line;
smooth = 0;
x = 918;
y = 786;
},
{
segmentType = line;
smooth = 0;
x = 918;
y = 732;
},
{
segmentType = line;
smooth = 0;
x = 288;
y = 732;
},
{
segmentType = line;
smooth = 0;
x = 288;
y = 54;
},
{
segmentType = line;
smooth = 0;
x = 1066;
y = 54;
},
{
segmentType = line;
smooth = 0;
x = 1066;
y = 293;
},
{
segmentType = line;
smooth = 0;
x = 1120;
y = 293;
},
{
segmentType = line;
smooth = 0;
x = 1120;
y = 0;
}
);
}
);
lib = {
};
name = E;
unicodes = (
);
width = 1270;
};
};
com.typemytype.robofont.mark = (
1,
0.1703,
0.1669,
0.8287
);
};
},
{
glyphname = Schwa;
lastChange = "2023-10-11 11:56:46 +0000";
layers = (
{
anchors = (
{
name = bottom;
pos = (680,0);
},
{
name = top;
pos = (659,1345);
}
);
layerId = "0331963E-C1C8-4E93-A463-84B984C1D75E";
shapes = (
{
closed = 1;
nodes = (
(1007,-21,o),
(1249,262,o),
(1249,663,cs),
(1249,835,ls),
(1249,1220,o),
(1029,1477,o),
(650,1477,cs),
(415,1477,o),
(282,1412,o),
(165,1312,c),
(195,1269,l),
(308,1365,o),
(462,1423,o),
(650,1423,cs),
(1013,1423,o),
(1195,1182,o),
(1195,835,cs),
(1195,711,l),
(78,711,l),
(78,588,ls),
(78,215,o),
(312,-21,o),
(676,-21,cs)
);
},
{
closed = 1;
nodes = (
(337,33,o),
(132,265,o),
(132,584,cs),
(132,656,l),
(1188,656,l),
(1190,651,l),
(1191,299,o),
(989,33,o),
(676,33,cs)
);
}
);
width = 1388;
},
{
anchors = (
{
name = bottom;
pos = (687,0);
},
{
name = top;
pos = (673,1376);
}
);
layerId = "B06AEEA2-953E-4FA5-BFB1-0445B6E4B274";
shapes = (
{
closed = 1;
nodes = (
(1024,-21,o),
(1281,258,o),
(1281,645,cs),
(1281,808,ls),
(1281,1208,o),
(1035,1477,o),
(622,1477,cs),
(422,1477,o),
(287,1424,o),
(218,1377,c),
(267,1238,l),
(372,1287,o),
(470,1322,o),
(622,1322,cs),
(931,1322,o),
(1084,1111,o),
(1084,808,cs),
(1084,754,l),
(78,754,l),
(78,644,ls),
(78,228,o),
(294,-21,o),
(699,-21,cs)
);
},
{
closed = 1;
nodes = (
(398,133,o),
(275,309,o),
(275,586,cs),
(275,619,l),
(1083,619,l),
(1083,616,l),
(1073,336,o),
(928,133,o),
(699,133,cs)
);
}
);
width = 1402;
},
{
anchors = (
{
name = bottom;
pos = (700,0);
},
{
name = top;
pos = (692,1356);
}
);
layerId = "55372407-EEEC-4390-8B77-FB5958F23D2B";
shapes = (
{
closed = 1;
nodes = (
(1063,-21,o),
(1338,254,o),
(1338,645,cs),
(1338,806,ls),
(1338,1213,o),
(1083,1477,o),
(609,1477,cs),
(398,1477,o),
(234,1436,o),
(158,1405,c),
(207,1126,l),
(308,1154,o),
(446,1181,o),
(609,1181,cs),
(877,1181,o),
(987,1035,o),
(980,850,c),
(975,845,l),
(63,845,l),
(63,670,ls),
(63,241,o),
(292,-21,o),
(699,-21,cs)
);
},
{
closed = 1;
nodes = (
(503,274,o),
(414,381,o),
(414,542,cs),
(414,572,l),
(973,572,l),
(976,566,l),
(963,392,o),
(866,274,o),
(699,274,cs)
);
}
);
width = 1399;
}
);
unicode = 399;
},
{
glyphname = F;
lastChange = "2018-07-30 18:02:35 +0000";
layers = (
{
anchors = (
{
name = bottom;
pos = (623,0);
},
{
name = center;
pos = (332,395);
},
{
name = top;
pos = (623,1345);
}
);
layerId = "0331963E-C1C8-4E93-A463-84B984C1D75E";
shapes = (
{
closed = 1;
nodes = (
(451,0,l),
(451,54,l),
(288,54,l),
(288,716,l),
(934,716,l),
(934,772,l),
(288,772,l),
(288,1402,l),
(1082,1402,l),
(1082,1163,l),
(1136,1163,l),
(1136,1456,l),
(71,1456,l),
(71,1402,l),
(234,1402,l),
(234,54,l),
(71,54,l),
(71,0,l)
);
}
);
width = 1246;
},
{
anchors = (
{
name = bottom;
pos = (628,0);
},
{
name = center;
pos = (383,407);
},
{
name = top;
pos = (628,1376);
}
);
layerId = "B06AEEA2-953E-4FA5-BFB1-0445B6E4B274";
shapes = (
{
closed = 1;
nodes = (
(604,0,l),
(604,126,l),
(441,154,l),
(441,644,l),
(974,644,l),
(974,799,l),
(441,799,l),
(441,1303,l),
(996,1303,l),
(1018,1106,l),
(1176,1106,l),
(1176,1456,l),
(81,1456,l),
(81,1329,l),
(244,1301,l),
(244,154,l),
(81,126,l),
(81,0,l)
);
}
);
width = 1256;
},
{
anchors = (
{
name = bottom;
pos = (636,0);
},
{
name = center;
pos = (387,407);
},
{
name = top;
pos = (636,1356);
}
);
layerId = "55372407-EEEC-4390-8B77-FB5958F23D2B";
shapes = (
{
closed = 1;
nodes = (
(693,0,l),
(693,205,l),
(542,237,l),
(542,581,l),
(1037,581,l),
(1037,849,l),
(542,849,l),
(542,1186,l),
(967,1186,l),
(974,1027,l),
(1239,1027,l),
(1239,1456,l),
(40,1456,l),
(40,1250,l),
(191,1218,l),
(191,237,l),
(40,205,l),
(40,0,l)
);
}
);
width = 1271;
}
);
unicode = 70;
},
{
glyphname = G;
kernLeft = C;
lastChange = "2018-07-28 16:05:11 +0000";
layers = (
{
anchors = (
{
name = bottom;
pos = (749,0);
},
{
name = top;
pos = (709,1345);
}
);
layerId = "0331963E-C1C8-4E93-A463-84B984C1D75E";
shapes = (
{
closed = 1;
nodes = (
(976,-21,o),
(1126,37,o),
(1248,111,c),
(1248,620,l),
(879,620,l),
(879,565,l),
(1194,565,l),
(1194,141,l),
(1093,84,o),
(946,33,o),
(768,33,cs),
(400,33,o),
(184,313,o),
(184,720,cs),
(184,760,ls),
(184,1151,o),
(430,1423,o),
(754,1423,cs),
(948,1423,o),
(1060,1373,o),
(1159,1296,c),
(1159,1072,l),
(1213,1072,l),
(1213,1324,l),
(1093,1417,o),
(959,1477,o),
(754,1477,cs),
(394,1477,o),
(130,1183,o),
(130,758,cs),
(130,720,ls),
(130,280,o),
(372,-21,o),
(770,-21,cs)
);
}
);
width = 1417;
},
{
anchors = (
{
name = bottom;
pos = (673,0);
},
{
name = top;
pos = (673,1376);
}
);
layerId = "B06AEEA2-953E-4FA5-BFB1-0445B6E4B274";
shapes = (
{
closed = 1;
nodes = (
(991,-21,o),
(1142,57,o),
(1226,136,c),
(1226,700,l),
(750,700,l),
(750,555,l),
(1029,545,l),
(1029,203,l),
(958,166,o),
(871,140,o),
(738,140,cs),
(443,140,o),
(278,368,o),
(278,716,cs),
(278,742,ls),
(278,1085,o),
(469,1315,o),
(719,1315,cs),
(848,1315,o),
(942,1293,o),
(1007,1250,c),
(1028,1039,l),
(1190,1039,l),
(1190,1333,l),
(1078,1421,o),
(925,1477,o),
(699,1477,cs),
(342,1477,o),
(80,1179,o),
(80,740,cs),
(80,716,ls),
(80,280,o),
(333,-21,o),
(738,-21,cs)
);
}
);
width = 1346;
},
{
anchors = (
{
name = bottom;
pos = (695,0);
},
{
name = top;
pos = (695,1356);
}
);
layerId = "55372407-EEEC-4390-8B77-FB5958F23D2B";
shapes = (
{
closed = 1;
nodes = (
(960,-21,o),
(1160,29,o),
(1318,130,c),
(1318,734,l),
(802,734,l),
(802,492,l),
(966,472,l),
(966,284,l),
(919,263,o),
(828,242,o),
(744,242,cs),
(504,242,o),
(375,410,o),
(375,674,cs),
(375,742,ls),
(375,1022,o),
(497,1213,o),
(738,1213,cs),
(842,1213,o),
(929,1178,o),
(975,1132,c),
(1028,947,l),
(1278,947,l),
(1278,1288,l),
(1126,1418,o),
(913,1477,o),
(715,1477,cs),
(279,1477,o),
(27,1174,o),
(27,740,cs),
(27,674,ls),
(27,262,o),
(279,-21,o),
(730,-21,cs)
);
}
);
width = 1390;
}
);
unicode = 71;
userData = {
com.typemytype.robofont.layerData = {
mask = {
anchors = (
);
components = (
);
contours = (
{
points = (
{
segmentType = line;
smooth = 0;
x = 1248;
y = 156;
},
{
smooth = 0;
x = 1186.66667;
y = 70.66667;
},
{
smooth = 0;
x = 1004.33333;
y = -21;
},
{
segmentType = curve;
smooth = 1;
x = 751;
y = -21;
},
{
smooth = 0;
x = 381.66667;
y = -21;
},
{
smooth = 0;
x = 130;
y = 280;
},
{
segmentType = curve;
smooth = 1;
x = 130;
y = 720;
},
{
segmentType = line;
smooth = 1;
x = 130;
y = 758;
},
{
smooth = 0;
x = 130;
y = 1183.33333;
},
{
smooth = 0;
x = 383.33333;
y = 1477;
},
{
segmentType = curve;
smooth = 1;
x = 754;
y = 1477;
},
{
smooth = 0;
x = 975.33333;
y = 1477;
},
{
smooth = 0;
x = 1151.66667;
y = 1397.33333;
},
{
segmentType = curve;
smooth = 0;
x = 1253;
y = 1256;
},
{
segmentType = line;
smooth = 0;
x = 1253;
y = 1012;
},
{
segmentType = line;
smooth = 0;
x = 1199;
y = 1012;
},
{
segmentType = line;
smooth = 0;
x = 1200;
y = 1236;
},
{
smooth = 0;
x = 1108;
y = 1354.66667;
},
{
smooth = 0;
x = 955.33333;
y = 1423;
},
{
segmentType = curve;
smooth = 1;
x = 754;
y = 1423;
},
{
smooth = 0;
x = 411.33333;
y = 1423;
},
{
smooth = 0;
x = 184;
y = 1150.66667;
},
{
segmentType = curve;
smooth = 1;
x = 184;
y = 760;
},
{
segmentType = line;
smooth = 1;
x = 184;
y = 720;
},
{
smooth = 0;
x = 184;
y = 313.33333;
},
{
smooth = 0;
x = 409.66667;
y = 33;
},
{
segmentType = curve;
smooth = 1;
x = 751;
y = 33;
},
{
smooth = 0;
x = 965.66667;
y = 33;
},
{
smooth = 0;
x = 1139.33333;
y = 109;
},
{
segmentType = curve;
smooth = 0;
x = 1194;
y = 181;
},
{
segmentType = line;
smooth = 0;
x = 1194;
y = 565;
},
{
segmentType = line;
smooth = 0;
x = 879;
y = 565;
},
{
segmentType = line;
smooth = 0;
x = 879;
y = 620;
},
{
segmentType = line;
smooth = 0;
x = 1248;
y = 620;
}
);
}
);
lib = {
};
name = G;
unicodes = (
);
width = 1417;
};
};
com.typemytype.robofont.mark = (
1,
0.1703,
0.1669,
0.8287
);
};
},
{
glyphname = H;
kernRight = Eta;
lastChange = "2018-07-28 17:38:17 +0000";
layers = (
{
anchors = (
{
name = bottom;
pos = (753,0);
},
{
name = center;
pos = (753,1055);
},
{
name = top;
pos = (753,1345);
},
{
name = topleft;
pos = (20,1345);
}
);
layerId = "0331963E-C1C8-4E93-A463-84B984C1D75E";
shapes = (
{
closed = 1;
nodes = (
(451,0,l),
(451,54,l),
(288,54,l),
(288,695,l),
(1218,695,l),
(1218,54,l),
(1055,54,l),
(1055,0,l),
(1435,0,l),
(1435,54,l),
(1272,54,l),
(1272,1402,l),
(1435,1402,l),
(1435,1456,l),
(1272,1456,l),
(1218,1456,l),
(1055,1456,l),
(1055,1402,l),
(1218,1402,l),
(1218,749,l),
(288,749,l),
(288,1402,l),
(451,1402,l),
(451,1456,l),
(71,1456,l),
(71,1402,l),
(234,1402,l),
(234,54,l),
(71,54,l),
(71,0,l)
);
}
);
width = 1506;
},
{
anchors = (
{
name = bottom;
pos = (789,0);
},
{
name = center;
pos = (789,1028);
},
{
name = top;
pos = (789,1376);
},
{
name = topleft;
pos = (20,1376);
}
);
layerId = "B06AEEA2-953E-4FA5-BFB1-0445B6E4B274";
shapes = (
{
closed = 1;
nodes = (
(604,0,l),
(604,126,l),
(441,154,l),
(441,643,l),
(1137,643,l),
(1137,154,l),
(974,126,l),
(974,0,l),
(1497,0,l),
(1497,126,l),
(1334,154,l),
(1334,1301,l),
(1497,1329,l),
(1497,1456,l),
(1334,1456,l),
(1137,1456,l),
(974,1456,l),
(974,1329,l),
(1137,1301,l),
(1137,798,l),
(441,798,l),
(441,1301,l),
(604,1329,l),
(604,1456,l),
(81,1456,l),
(81,1329,l),
(244,1301,l),
(244,154,l),
(81,126,l),
(81,0,l)
);
}
);
width = 1578;
},
{
anchors = (
{
name = bottom;
pos = (807,0);
},
{
name = center;
pos = (806,1039);
},
{
name = top;
pos = (807,1356);
},
{
name = topleft;
pos = (20,1356);
}
);
layerId = "55372407-EEEC-4390-8B77-FB5958F23D2B";
shapes = (
{
closed = 1;
nodes = (
(693,0,l),
(693,205,l),
(542,237,l),
(542,581,l),
(1072,581,l),
(1072,237,l),
(921,205,l),
(921,0,l),
(1573,0,l),
(1573,205,l),
(1422,237,l),
(1422,1218,l),
(1573,1250,l),
(1573,1456,l),
(1422,1456,l),
(1072,1456,l),
(921,1456,l),
(921,1250,l),
(1072,1218,l),
(1072,850,l),
(542,850,l),
(542,1218,l),
(693,1250,l),
(693,1456,l),
(40,1456,l),
(40,1250,l),
(191,1218,l),
(191,237,l),
(40,205,l),
(40,0,l)
);
}
);
width = 1613;
}
);
metricRight = "=|";
unicode = 72;
},
{
glyphname = Hbar;
lastChange = "2018-08-01 20:26:20 +0000";
layers = (
{
layerId = "0331963E-C1C8-4E93-A463-84B984C1D75E";
shapes = (
{
ref = H;
},
{
pos = (31,307);
ref = strokelongcomb;
}
);
width = 1506;
},
{
layerId = "B06AEEA2-953E-4FA5-BFB1-0445B6E4B274";
shapes = (
{
ref = H;
},
{
pos = (53,0);
ref = strokelongcomb;
}
);
width = 1578;
},
{
layerId = "55372407-EEEC-4390-8B77-FB5958F23D2B";
shapes = (
{
ref = H;
},
{
pos = (0,292);
ref = strokelongcomb;
}
);
width = 1613;
},
{
associatedMasterId = "B06AEEA2-953E-4FA5-BFB1-0445B6E4B274";
layerId = "79A48FF9-AE66-4CA5-A380-94AE76E3A136";
name = "Jul 26 18, 15:39";
shapes = (
{
closed = 1;
nodes = (
(1472,1329,l),
(1309,1301,l),
(1309,1100,l),
(1440,1100,l),
(1440,955,l),
(1309,955,l),
(1309,154,l),
(1472,126,l),
(1472,0,l),
(949,0,l),
(949,126,l),
(1112,154,l),
(1112,643,l),
(406,643,l),
(406,154,l),
(569,126,l),
(569,0,l),
(46,0,l),
(46,126,l),
(209,154,l),
(209,955,l),
(48,955,l),
(48,1100,l),
(209,1100,l),
(209,1301,l),
(46,1329,l),
(46,1456,l),
(569,1456,l),
(569,1329,l),
(406,1301,l),
(406,1100,l),
(1112,1100,l),
(1112,1301,l),
(949,1329,l),
(949,1456,l),
(1112,1456,l),
(1309,1456,l),
(1472,1456,l)
);
},
{
closed = 1;
nodes = (
(1112,798,l),
(1112,955,l),
(406,955,l),
(406,798,l)
);
}
);
width = 1527;
},
{
associatedMasterId = "0331963E-C1C8-4E93-A463-84B984C1D75E";
layerId = "C12F42D9-7900-48DF-AA27-402C16AF56A7";
name = "Jul 28 18, 13:36";
shapes = (
{
closed = 1;
nodes = (
(1409,1402,l),
(1246,1402,l),
(1246,1081,l),
(1381,1081,l),
(1381,1028,l),
(1246,1028,l),
(1246,54,l),
(1409,54,l),
(1409,0,l),
(1029,0,l),
(1029,54,l),
(1192,54,l),
(1192,695,l),
(262,695,l),
(262,54,l),
(425,54,l),
(425,0,l),
(45,0,l),
(45,54,l),
(208,54,l),
(208,1028,l),
(49,1028,l),
(49,1081,l),
(208,1081,l),
(208,1402,l),
(45,1402,l),
(45,1456,l),
(425,1456,l),
(425,1402,l),
(262,1402,l),
(262,1081,l),
(1192,1081,l),
(1192,1402,l),
(1029,1402,l),
(1029,1456,l),
(1192,1456,l),
(1246,1456,l),
(1409,1456,l)
);
},
{
closed = 1;
nodes = (
(1192,749,l),
(1192,1028,l),
(262,1028,l),
(262,749,l)
);
}
);
width = 1451;
},
{
associatedMasterId = "55372407-EEEC-4390-8B77-FB5958F23D2B";
layerId = "893488DF-8C3C-451E-8D90-33D6E3DB62B7";
name = "Jul 28 18, 13:36";
shapes = (
{
closed = 1;
nodes = (
(1560,1250,l),
(1408,1218,l),
(1408,1116,l),
(1526,1116,l),
(1526,960,l),
(1408,960,l),
(1408,237,l),
(1560,205,l),
(1560,0,l),
(907,0,l),
(907,205,l),
(1059,237,l),
(1059,581,l),
(534,581,l),
(534,237,l),
(686,205,l),
(686,0,l),
(33,0,l),
(33,205,l),
(183,237,l),
(183,960,l),
(65,960,l),
(65,1116,l),
(183,1116,l),
(183,1218,l),
(33,1250,l),
(33,1456,l),
(686,1456,l),
(686,1250,l),
(534,1218,l),
(534,1116,l),
(1059,1116,l),
(1059,1218,l),
(907,1250,l),
(907,1456,l),
(1059,1456,l),
(1408,1456,l),
(1560,1456,l)
);
},
{
closed = 1;
nodes = (
(1059,850,l),
(1059,960,l),
(534,960,l),
(534,850,l)
);
}
);
visible = 1;
width = 1592;
}
);
unicode = 294;
},
{
glyphname = I;
kernRight = Eta;
lastChange = "2018-07-28 18:04:25 +0000";
layers = (
{
anchors = (
{
name = bottom;
pos = (261,0);
},
{
name = ogonek;
pos = (451,0);
},
{
name = top;
pos = (261,1345);
},
{
name = topleft;
pos = (20,1456);
}
);
layerId = "0331963E-C1C8-4E93-A463-84B984C1D75E";
shapes = (
{
closed = 1;
nodes = (
(451,0,l),
(451,54,l),
(288,54,l),
(288,1402,l),
(451,1402,l),
(451,1456,l),
(71,1456,l),
(71,1402,l),
(234,1402,l),
(234,54,l),
(71,54,l),
(71,0,l)
);
}
);
width = 522;
},
{
anchors = (
{
name = bottom;
pos = (342,0);
},
{
name = ogonek;
pos = (604,0);
},
{
name = top;
pos = (342,1376);
},
{
name = topleft;
pos = (21,1376);
}
);
layerId = "B06AEEA2-953E-4FA5-BFB1-0445B6E4B274";
shapes = (
{
closed = 1;
nodes = (
(604,0,l),
(604,126,l),
(441,154,l),
(441,1301,l),
(604,1329,l),
(604,1456,l),
(81,1456,l),
(81,1329,l),
(244,1301,l),
(244,154,l),
(81,126,l),
(81,0,l)
);
}
);
width = 685;
},
{
anchors = (
{
name = bottom;
pos = (367,0);
},
{
name = ogonek;
pos = (692,0);
},
{
name = top;
pos = (367,1356);
},
{
name = topleft;
pos = (20,1356);
}
);
layerId = "55372407-EEEC-4390-8B77-FB5958F23D2B";
shapes = (
{
closed = 1;
nodes = (
(692,0,l),
(692,205,l),
(541,237,l),
(541,1218,l),
(692,1250,l),
(692,1456,l),
(40,1456,l),
(40,1250,l),
(191,1218,l),
(191,237,l),
(40,205,l),
(40,0,l)
);
}
);
width = 732;
}
);
metricLeft = H;
metricRight = H;
unicode = 73;
},
{
glyphname = J;
kernLeft = J;
kernRight = J;
lastChange = "2023-10-11 13:41:42 +0000";
layers = (
{
anchors = (
{
name = bottom;
pos = (469,0);
},
{
name = top;
pos = (848,1345);
}
);
layerId = "0331963E-C1C8-4E93-A463-84B984C1D75E";
shapes = (
{
closed = 1;
nodes = (
(711,-21,o),
(880,151,o),
(880,422,cs),
(880,1402,l),
(1043,1402,l),
(1043,1456,l),
(640,1456,l),
(640,1402,l),
(826,1402,l),
(826,422,ls),
(826,183,o),
(675,33,o),
(471,33,cs),
(227,33,o),
(94,164,o),
(94,401,c),
(48,401,l),
(46,395,l),
(39,123,o),
(204,-21,o),
(471,-21,cs)
);
}
);
width = 1137;
},
{
anchors = (
{
name = bottom;
pos = (585,0);
},
{
name = top;
pos = (835,1376);
}
);
layerId = "B06AEEA2-953E-4FA5-BFB1-0445B6E4B274";
shapes = (
{
closed = 1;
nodes = (
(787,-21,o),
(937,152,o),
(937,413,cs),
(937,1301,l),
(1100,1329,l),
(1100,1456,l),
(546,1456,l),
(546,1327,l),
(740,1301,l),
(740,413,ls),
(740,250,o),
(665,136,o),
(500,136,cs),
(343,136,o),
(256,225,o),
(251,421,c),
(62,421,l),
(60,415,l),
(72,122,o),
(260,-21,o),
(503,-21,cs)
);
}
);
width = 1169;
},
{
anchors = (
{
name = bottom;
pos = (611,0);
},
{
name = top;
pos = (889,1356);
}
);
layerId = "55372407-EEEC-4390-8B77-FB5958F23D2B";
shapes = (
{
closed = 1;
nodes = (
(894,-21,o),
(1070,158,o),
(1070,452,cs),
(1070,1218,l),
(1222,1250,l),
(1222,1456,l),
(523,1456,l),
(523,1251,l),
(721,1218,l),
(721,452,ls),
(721,307,o),
(628,251,o),
(539,251,cs),
(435,251,o),
(361,301,o),
(348,489,c),
(21,489,l),
(19,483,l),
(31,137,o),
(242,-21,o),
(584,-21,cs)
);
}
);
width = 1222;
}
);
unicode = 74;
userData = {
com.typemytype.robofont.layerData = {
mask = {
anchors = (
);
components = (
);
contours = (
{
points = (
{
segmentType = line;
smooth = 0;
x = 1043;
y = 1456;
},
{
segmentType = line;
smooth = 0;
x = 1043;
y = 1402;
},
{
segmentType = line;
smooth = 0;
x = 880;
y = 1402;
},
{
segmentType = line;
smooth = 1;
x = 880;
y = 422;
},
{
smooth = 0;
x = 880;
y = 151.33333;
},
{
smooth = 0;
x = 711;
y = -21;
},
{
segmentType = curve;
smooth = 1;
x = 471;
y = -21;
},
{
smooth = 0;
x = 204.33333;
y = -21;
},
{
smooth = 0;
x = 39.33333;
y = 123;
},
{
segmentType = curve;
smooth = 0;
x = 46;
y = 395;
},
{
segmentType = line;
smooth = 0;
x = 48;
y = 401;
},
{
segmentType = line;
smooth = 0;
x = 94;
y = 401;
},
{
smooth = 0;
x = 94;
y = 163.66667;
},
{
smooth = 0;
x = 227;
y = 33;
},
{
segmentType = curve;
smooth = 1;
x = 471;
y = 33;
},
{
smooth = 0;
x = 675;
y = 33;
},
{
smooth = 0;
x = 826;
y = 183.33333;
},
{
segmentType = curve;
smooth = 1;
x = 826;
y = 422;
},
{
segmentType = line;
smooth = 0;
x = 826;
y = 1402;
},
{
segmentType = line;
smooth = 0;
x = 663;
y = 1402;
},
{
segmentType = line;
smooth = 0;
x = 663;
y = 1456;
}
);
}
);
lib = {
};
name = J;
unicodes = (
);
width = 1137;
};
};
com.typemytype.robofont.mark = (
1,
0.1703,
0.1669,
0.8287
);
};
},
{
color = 3;
glyphname = K;
kernRight = K;
lastChange = "2018-07-28 20:14:50 +0000";
layers = (
{
anchors = (
{
name = bottom;
pos = (694,0);
},
{
name = top;
pos = (694,1345);
}
);
layerId = "0331963E-C1C8-4E93-A463-84B984C1D75E";
shapes = (
{
closed = 1;
nodes = (
(1167,1402,l),
(1282,1402,l),
(1282,1456,l),
(921,1456,l),
(921,1402,l),
(1089,1402,l),
(1091,1397,l),
(250,453,l),
(270,391,l)
);
},
{
closed = 1;
nodes = (
(451,0,l),
(451,54,l),
(288,54,l),
(288,1402,l),
(451,1402,l),
(451,1456,l),
(71,1456,l),
(71,1402,l),
(234,1402,l),
(234,54,l),
(71,54,l),
(71,0,l)
);
},
{
closed = 1;
nodes = (
(1328,0,l),
(1328,54,l),
(1210,54,l),
(641,832,l),
(591,803,l),
(1133,60,l),
(1130,54,l),
(967,54,l),
(967,0,l)
);
}
);
width = 1388;
},
{
anchors = (
{
name = bottom;
pos = (751,0);
},
{
name = top;
pos = (751,1376);
}
);
layerId = "B06AEEA2-953E-4FA5-BFB1-0445B6E4B274";
shapes = (
{
closed = 1;
nodes = (
(1238,1304,l),
(1375,1329,l),
(1375,1456,l),
(908,1456,l),
(908,1329,l),
(1017,1315,l),
(1013,1310,l),
(322,543,l),
(427,421,l)
);
},
{
closed = 1;
nodes = (
(604,0,l),
(604,126,l),
(441,154,l),
(441,1301,l),
(604,1329,l),
(604,1456,l),
(81,1456,l),
(81,1329,l),
(244,1301,l),
(244,154,l),
(81,126,l),
(81,0,l)
);
},
{
closed = 1;
nodes = (
(1427,0,l),
(1427,126,l),
(1293,151,l),
(767,855,l),
(657,700,l),
(1060,141,l),
(1061,140,l),
(941,126,l),
(941,0,l)
);
}
);
width = 1501;
},
{
associatedMasterId = "B06AEEA2-953E-4FA5-BFB1-0445B6E4B274";
layerId = "6A68A2F1-C38C-4583-9967-AAA2412492F3";
name = "Jul 13 18, 23:20";
shapes = (
{
closed = 1;
nodes = (
(244,154,l),
(244,1301,l),
(81,1329,l),
(81,1456,l),
(604,1456,l),
(604,1329,l),
(441,1301,l),
(441,812,l),
(592,812,l),
(995,1310,l),
(999,1315,l),
(890,1329,l),
(890,1456,l),
(1352,1456,l),
(1352,1329,l),
(1215,1304,l),
(770,752,l),
(1282,151,l),
(1416,126,l),
(1416,0,l),
(935,0,l),
(935,126,l),
(1055,140,l),
(1054,141,l),
(614,657,l),
(441,657,l),
(441,154,l),
(604,126,l),
(604,0,l),
(81,0,l),
(81,126,l)
);
}
);
width = 1496;
},
{
associatedMasterId = "0331963E-C1C8-4E93-A463-84B984C1D75E";
layerId = "9C8E707A-49D7-4166-AC9D-BDAB1C485813";
name = "Jul 15 18, 14:09";
shapes = (
{
closed = 1;
nodes = (
(234,54,l),
(234,1402,l),
(71,1402,l),
(71,1456,l),
(451,1456,l),
(451,1402,l),
(288,1402,l),
(288,764,l),
(526,764,l),
(1091,1397,l),
(1089,1402,l),
(921,1402,l),
(921,1456,l),
(1282,1456,l),
(1282,1402,l),
(1167,1402,l),
(571,730,l),
(1210,54,l),
(1328,54,l),
(1328,0,l),
(967,0,l),
(967,54,l),
(1130,54,l),
(1133,60,l),
(511,711,l),
(288,711,l),
(288,54,l),
(451,54,l),
(451,0,l),
(71,0,l),
(71,54,l)
);
}
);
width = 1388;
},
{
anchors = (
{
name = bottom;
pos = (784,0);
},
{
name = top;
pos = (784,1356);
}
);
layerId = "55372407-EEEC-4390-8B77-FB5958F23D2B";
shapes = (
{
closed = 1;
nodes = (
(1377,1221,l),
(1514,1250,l),
(1514,1456,l),
(834,1456,l),
(834,1250,l),
(999,1239,l),
(998,1237,l),
(272,522,l),
(451,317,l)
);
},
{
closed = 1;
nodes = (
(680,0,l),
(680,205,l),
(542,237,l),
(542,1218,l),
(680,1250,l),
(680,1456,l),
(40,1456,l),
(40,1250,l),
(191,1218,l),
(191,237,l),
(40,205,l),
(40,0,l)
);
},
{
closed = 1;
nodes = (
(1567,0,l),
(1567,205,l),
(1418,230,l),
(908,912,l),
(663,695,l),
(1013,216,l),
(1011,216,l),
(865,205,l),
(865,0,l)
);
}
);
width = 1573;
}
);
unicode = 75;
},
{
glyphname = L;
kernRight = L;
lastChange = "2018-07-30 18:20:33 +0000";
layers = (
{
anchors = (
{
name = bottom;
pos = (581,0);
},
{
name = center;
pos = (359,770);
},
{
name = top;
pos = (262,1345);
},
{
name = topright;
pos = (981,1456);
}
);
layerId = "0331963E-C1C8-4E93-A463-84B984C1D75E";
shapes = (
{
closed = 1;
nodes = (
(1036,0,l),
(1036,293,l),
(982,293,l),
(982,54,l),
(289,54,l),
(289,1402,l),
(452,1402,l),
(452,1456,l),
(289,1456,l),
(234,1456,l),
(71,1456,l),
(71,1402,l),
(234,1402,l),
(234,54,l),
(71,54,l),
(71,0,l)
);
}
);
width = 1161;
},
{
anchors = (
{
name = bottom;
pos = (605,0);
},
{
name = center;
pos = (361,753);
},
{
name = top;
pos = (353,1376);
},
{
name = topright;
pos = (1049,1456);
}
);
layerId = "B06AEEA2-953E-4FA5-BFB1-0445B6E4B274";
shapes = (
{
closed = 1;
nodes = (
(1130,0,l),
(1130,381,l),
(979,381,l),
(956,151,l),
(441,151,l),
(441,1301,l),
(604,1329,l),
(604,1456,l),
(441,1456,l),
(244,1456,l),
(81,1456,l),
(81,1329,l),
(244,1301,l),
(244,154,l),
(81,126,l),
(81,0,l)
);
}
);
width = 1210;
},
{
anchors = (
{
name = bottom;
pos = (597,0);
},
{
name = center;
pos = (415,768);
},
{
name = top;
pos = (383,1356);
},
{
name = topright;
pos = (1000,1456);
}
);
layerId = "55372407-EEEC-4390-8B77-FB5958F23D2B";
shapes = (
{
closed = 1;
nodes = (
(1164,0,l),
(1164,472,l),
(896,472,l),
(888,269,l),
(542,269,l),
(542,1218,l),
(726,1250,l),
(726,1456,l),
(542,1456,l),
(191,1456,l),
(40,1456,l),
(40,1250,l),
(191,1218,l),
(191,237,l),
(40,205,l),
(40,0,l)
);
}
);
width = 1194;
}
);
unicode = 76;
},
{
glyphname = Lslash;
lastChange = "2018-08-01 20:26:20 +0000";
layers = (
{
layerId = "0331963E-C1C8-4E93-A463-84B984C1D75E";
shapes = (
{
ref = L;
},
{
pos = (24,0);
ref = slashshortcomb.case;
}
);
width = 1161;
},
{
layerId = "B06AEEA2-953E-4FA5-BFB1-0445B6E4B274";
shapes = (
{
ref = L;
},
{
pos = (46,1);
ref = slashshortcomb.case;
}
);
width = 1210;
},
{
layerId = "55372407-EEEC-4390-8B77-FB5958F23D2B";
shapes = (
{
ref = L;
},
{
pos = (31,-2);
ref = slashshortcomb.case;
}
);
width = 1194;
},
{
associatedMasterId = "B06AEEA2-953E-4FA5-BFB1-0445B6E4B274";
layerId = "EE04B666-F055-40BB-AB43-139CF2DEA864";
name = "Jul 26 18, 15:06";
shapes = (
{
closed = 1;
nodes = (
(431,1301,l),
(431,852,l),
(669,928,l),
(669,763,l),
(431,687,l),
(431,154,l),
(937,154,l),
(952,321,l),
(1120,321,l),
(1120,0,l),
(71,0,l),
(71,126,l),
(234,154,l),
(234,625,l),
(80,576,l),
(80,741,l),
(234,790,l),
(234,1301,l),
(71,1329,l),
(71,1456,l),
(594,1456,l),
(594,1329,l)
);
}
);
width = 1199;
},
{
associatedMasterId = "55372407-EEEC-4390-8B77-FB5958F23D2B";
layerId = "510E6334-311B-42CD-9D62-50615E5AB20C";
name = "Jul 28 18, 16:08";
shapes = (
{
closed = 1;
nodes = (
(548,1218,l),
(548,914,l),
(757,970,l),
(757,757,l),
(548,700,l),
(548,267,l),
(900,267,l),
(913,460,l),
(1170,460,l),
(1170,0,l),
(47,0,l),
(47,205,l),
(197,237,l),
(197,602,l),
(69,570,l),
(69,783,l),
(197,816,l),
(197,1218,l),
(47,1250,l),
(47,1456,l),
(699,1456,l),
(699,1250,l)
);
}
);
width = 1188;
},
{
associatedMasterId = "0331963E-C1C8-4E93-A463-84B984C1D75E";
layerId = "8AFFD2D7-03A8-4E6B-BF96-41BEB06BDAEF";
name = "Jul 28 18, 16:08";
shapes = (
{
closed = 1;
nodes = (
(289,1402,l),
(289,776,l),
(653,892,l),
(653,835,l),
(289,719,l),
(289,54,l),
(982,54,l),
(982,293,l),
(1036,293,l),
(1036,0,l),
(71,0,l),
(71,54,l),
(234,54,l),
(234,702,l),
(63,648,l),
(63,705,l),
(234,759,l),
(234,1402,l),
(71,1402,l),
(71,1456,l),
(452,1456,l),
(452,1402,l)
);
}
);
visible = 1;
width = 1161;
}
);
unicode = 321;
},
{
glyphname = M;
kernRight = Eta;
lastChange = "2018-07-27 21:54:15 +0000";
layers = (
{
anchors = (
{
name = bottom;
pos = (912,0);
},
{
name = top;
pos = (912,1345);
}
);
layerId = "0331963E-C1C8-4E93-A463-84B984C1D75E";
shapes = (
{
closed = 1;
nodes = (
(451,0,l),
(451,54,l),
(288,54,l),
(288,872,l),
(288,1354,l),
(294,1356,l),
(889,0,l),
(932,0,l),
(1530,1363,l),
(1536,1361,l),
(1536,845,l),
(1536,54,l),
(1373,54,l),
(1373,0,l),
(1753,0,l),
(1753,54,l),
(1590,54,l),
(1590,1402,l),
(1753,1402,l),
(1753,1456,l),
(1511,1456,l),
(913,86,l),
(907,86,l),
(311,1456,l),
(234,1456,l),
(71,1456,l),
(71,1402,l),
(234,1402,l),
(234,54,l),
(71,54,l),
(71,0,l)
);
}
);
width = 1824;
},
{
anchors = (
{
name = bottom;
pos = (991,0);
},
{
name = top;
pos = (991,1376);
}
);
layerId = "B06AEEA2-953E-4FA5-BFB1-0445B6E4B274";
shapes = (
{
closed = 1;
nodes = (
(617,0,l),
(617,126,l),
(441,154,l),
(441,576,l),
(434,1185,l),
(439,1186,l),
(928,52,l),
(1059,52,l),
(1532,1188,l),
(1537,1187,l),
(1537,576,l),
(1537,154,l),
(1365,126,l),
(1365,0,l),
(1888,0,l),
(1888,126,l),
(1725,154,l),
(1725,1301,l),
(1888,1329,l),
(1888,1456,l),
(1449,1456,l),
(995,351,l),
(989,351,l),
(520,1456,l),
(257,1456,l),
(94,1456,l),
(94,1329,l),
(257,1301,l),
(257,154,l),
(94,126,l),
(94,0,l)
);
}
);
width = 1982;
},
{
anchors = (
{
name = bottom;
pos = (1059,0);
},
{
name = top;
pos = (1059,1356);
}
);
layerId = "55372407-EEEC-4390-8B77-FB5958F23D2B";
shapes = (
{
closed = 1;
nodes = (
(685,0,l),
(685,205,l),
(516,237,l),
(516,475,l),
(492,1099,l),
(499,1100,l),
(917,0,l),
(1193,0,l),
(1605,1113,l),
(1611,1112,l),
(1603,427,l),
(1603,237,l),
(1446,205,l),
(1446,0,l),
(2098,0,l),
(2098,205,l),
(1947,237,l),
(1947,1218,l),
(2098,1250,l),
(2098,1456,l),
(1419,1456,l),
(1077,497,l),
(1071,497,l),
(719,1456,l),
(182,1456,l),
(32,1456,l),
(32,1250,l),
(182,1218,l),
(182,237,l),
(32,205,l),
(32,0,l)
);
}
);
width = 2118;
}
);
unicode = 77;
userData = {
com.typemytype.robofont.layerData = {
mask = {
anchors = (
);
components = (
);
contours = (
{
points = (
{
segmentType = line;
smooth = 0;
x = 932;
y = 0;
},
{
segmentType = line;
smooth = 0;
x = 889;
y = 0;
},
{
segmentType = line;
smooth = 0;
x = 294;
y = 1356;
},
{
segmentType = line;
smooth = 0;
x = 288;
y = 1354;
},
{
segmentType = line;
smooth = 0;
x = 288;
y = 54;
},
{
segmentType = line;
smooth = 0;
x = 451;
y = 54;
},
{
segmentType = line;
smooth = 0;
x = 451;
y = 0;
},
{
segmentType = line;
smooth = 0;
x = 71;
y = 0;
},
{
segmentType = line;
smooth = 0;
x = 71;
y = 54;
},
{
segmentType = line;
smooth = 0;
x = 234;
y = 54;
},
{
segmentType = line;
smooth = 0;
x = 234;
y = 1402;
},
{
segmentType = line;
smooth = 0;
x = 71;
y = 1402;
},
{
segmentType = line;
smooth = 0;
x = 71;
y = 1456;
},
{
segmentType = line;
smooth = 0;
x = 234;
y = 1456;
},
{
segmentType = line;
smooth = 0;
x = 311;
y = 1456;
},
{
segmentType = line;
smooth = 0;
x = 907;
y = 86;
},
{
segmentType = line;
smooth = 0;
x = 913;
y = 86;
},
{
segmentType = line;
smooth = 0;
x = 1511;
y = 1456;
},
{
segmentType = line;
smooth = 0;
x = 1753;
y = 1456;
},
{
segmentType = line;
smooth = 0;
x = 1753;
y = 1402;
},
{
segmentType = line;
smooth = 0;
x = 1590;
y = 1402;
},
{
segmentType = line;
smooth = 0;
x = 1590;
y = 54;
},
{
segmentType = line;
smooth = 0;
x = 1753;
y = 54;
},
{
segmentType = line;
smooth = 0;
x = 1753;
y = 0;
},
{
segmentType = line;
smooth = 0;
x = 1373;
y = 0;
},
{
segmentType = line;
smooth = 0;
x = 1373;
y = 54;
},
{
segmentType = line;
smooth = 0;
x = 1536;
y = 54;
},
{
segmentType = line;
smooth = 0;
x = 1536;
y = 1361;
},
{
segmentType = line;
smooth = 0;
x = 1530;
y = 1363;
}
);
}
);
lib = {
};
name = M;
unicodes = (
);
width = 1824;
};
};
};
},
{
glyphname = N;
kernRight = Eta;
lastChange = "2018-07-27 21:54:15 +0000";
layers = (
{
anchors = (
{
name = bottom;
pos = (759,0);
},
{
name = top;
pos = (759,1345);
}
);
layerId = "0331963E-C1C8-4E93-A463-84B984C1D75E";
shapes = (
{
closed = 1;
nodes = (
(452,0,l),
(452,54,l),
(289,54,l),
(289,1354,l),
(295,1356,l),
(1229,0,l),
(1283,0,l),
(1283,1402,l),
(1446,1402,l),
(1446,1456,l),
(1283,1456,l),
(1066,1456,l),
(1066,1402,l),
(1229,1402,l),
(1229,105,l),
(1223,103,l),
(289,1456,l),
(234,1456,l),
(71,1456,l),
(71,1402,l),
(234,1402,l),
(234,54,l),
(71,54,l),
(71,0,l)
);
}
);
width = 1517;
},
{
anchors = (
{
name = bottom;
pos = (796,0);
},
{
name = top;
pos = (796,1376);
}
);
layerId = "B06AEEA2-953E-4FA5-BFB1-0445B6E4B274";
shapes = (
{
closed = 1;
nodes = (
(606,0,l),
(606,126,l),
(427,154,l),
(427,1139,l),
(433,1141,l),
(1166,0,l),
(1346,0,l),
(1346,1301,l),
(1509,1329,l),
(1509,1456,l),
(1346,1456,l),
(986,1456,l),
(986,1329,l),
(1165,1301,l),
(1165,323,l),
(1159,321,l),
(445,1456,l),
(246,1456,l),
(83,1456,l),
(83,1329,l),
(246,1301,l),
(246,154,l),
(83,126,l),
(83,0,l)
);
}
);
width = 1592;
},
{
anchors = (
{
name = bottom;
pos = (806,0);
},
{
name = top;
pos = (806,1356);
}
);
layerId = "55372407-EEEC-4390-8B77-FB5958F23D2B";
shapes = (
{
closed = 1;
nodes = (
(692,0,l),
(692,205,l),
(500,237,l),
(500,912,l),
(506,912,l),
(1101,0,l),
(1447,0,l),
(1447,1218,l),
(1598,1250,l),
(1598,1456,l),
(1447,1456,l),
(945,1456,l),
(945,1250,l),
(1136,1218,l),
(1136,524,l),
(1130,524,l),
(546,1456,l),
(189,1456,l),
(39,1456,l),
(39,1250,l),
(189,1218,l),
(189,237,l),
(39,205,l),
(39,0,l)
);
}
);
width = 1611;
}
);
unicode = 78;
},
{
glyphname = Eng;
lastChange = "2023-10-11 13:41:42 +0000";
layers = (
{
layerId = "0331963E-C1C8-4E93-A463-84B984C1D75E";
shapes = (
{
closed = 1;
nodes = (
(1177,-437,o),
(1283,-312,o),
(1283,-89,cs),
(1283,1402,l),
(1446,1402,l),
(1446,1456,l),
(1066,1456,l),
(1066,1402,l),
(1229,1402,l),
(1229,103,l),
(1223,101,l),
(287,1456,l),
(70,1456,l),
(70,1402,l),
(233,1402,l),
(233,54,l),
(70,54,l),
(70,0,l),
(450,0,l),
(450,54,l),
(287,54,l),
(287,1354,l),
(293,1356,l),
(1229,0,l),
(1229,-89,ls),
(1229,-276,o),
(1145,-383,o),
(998,-383,cs),
(962,-383,o),
(923,-374,o),
(899,-365,c),
(886,-417,l),
(926,-430,o),
(958,-437,o),
(998,-437,cs)
);
}
);
width = 1537;
},
{
layerId = "B06AEEA2-953E-4FA5-BFB1-0445B6E4B274";
shapes = (
{
closed = 1;
nodes = (
(1212,-437,o),
(1333,-312,o),
(1333,-89,cs),
(1333,1301,l),
(1496,1329,l),
(1496,1456,l),
(973,1456,l),
(973,1329,l),
(1136,1301,l),
(1136,346,l),
(1130,344,l),
(430,1456,l),
(70,1456,l),
(70,1329,l),
(233,1301,l),
(233,154,l),
(70,126,l),
(70,0,l),
(593,0,l),
(593,126,l),
(430,154,l),
(430,1110,l),
(436,1112,l),
(1136,0,l),
(1136,-89,ls),
(1136,-209,o),
(1088,-282,o),
(1007,-282,cs),
(984,-282,o),
(926,-276,o),
(909,-269,c),
(895,-419,l),
(934,-431,o),
(966,-437,o),
(1007,-437,cs)
);
}
);
width = 1559;
},
{
layerId = "55372407-EEEC-4390-8B77-FB5958F23D2B";
shapes = (
{
closed = 1;
nodes = (
(1288,-437,o),
(1443,-282,o),
(1443,-10,cs),
(1443,1218,l),
(1593,1250,l),
(1593,1456,l),
(942,1456,l),
(942,1250,l),
(1092,1218,l),
(1092,557,l),
(1086,556,l),
(569,1456,l),
(67,1456,l),
(67,1250,l),
(218,1218,l),
(218,237,l),
(67,205,l),
(67,0,l),
(719,0,l),
(719,205,l),
(569,237,l),
(569,901,l),
(575,901,l),
(1092,0,l),
(1092,-10,ls),
(1092,-112,o),
(1049,-169,o),
(969,-169,cs),
(932,-169,o),
(916,-164,o),
(877,-156,c),
(863,-421,l),
(919,-433,o),
(964,-437,o),
(1026,-437,cs)
);
}
);
width = 1600;
}
);
unicode = 330;
},
{
glyphname = O;
kernLeft = C;
kernRight = D;
lastChange = "2023-10-11 13:41:42 +0000";
layers = (
{
anchors = (
{
name = bottom;
pos = (744,0);
},
{
name = center;
pos = (744,728);
},
{
name = ogonek;
pos = (1053,0);
},
{
name = top;
pos = (738,1345);
},
{
name = topleft;
pos = (20,1345);
},
{
name = topright;
pos = (1161,1345);
}
);
layerId = "0331963E-C1C8-4E93-A463-84B984C1D75E";
shapes = (
{
closed = 1;
nodes = (
(1101,-21,o),
(1348,271,o),
(1348,719,cs),
(1348,737,ls),
(1348,1184,o),
(1099,1477,o),
(738,1477,cs),
(375,1477,o),
(130,1184,o),
(130,737,cs),
(130,719,ls),
(130,272,o),
(377,-21,o),
(740,-21,cs)
);
},
{
closed = 1;
nodes = (
(403,33,o),
(185,304,o),
(185,719,cs),
(185,739,ls),
(185,1151,o),
(402,1423,o),
(738,1423,cs),
(1075,1423,o),
(1294,1151,o),
(1294,739,cs),
(1294,719,ls),
(1294,304,o),
(1077,33,o),
(740,33,cs)
);
}
);
width = 1488;
},
{
anchors = (
{
name = bottom;
pos = (676,0);
},
{
name = center;
pos = (676,728);
},
{
name = ogonek;
pos = (960,0);
},
{
name = top;
pos = (676,1376);
},
{
name = topleft;
pos = (20,1376);
},
{
name = topright;
pos = (985,1376);
}
);
layerId = "B06AEEA2-953E-4FA5-BFB1-0445B6E4B274";
shapes = (
{
closed = 1;
nodes = (
(1072,-21,o),
(1281,283,o),
(1281,717,cs),
(1281,738,ls),
(1281,1171,o),
(1072,1477,o),
(675,1477,cs),
(298,1477,o),
(70,1171,o),
(70,738,cs),
(70,717,ls),
(70,283,o),
(299,-21,o),
(675,-21,cs)
);
},
{
closed = 1;
nodes = (
(412,143,o),
(268,376,o),
(268,717,cs),
(268,740,ls),
(268,1077,o),
(412,1312,o),
(675,1312,cs),
(960,1312,o),
(1083,1079,o),
(1083,740,cs),
(1083,717,ls),
(1083,374,o),
(964,143,o),
(675,143,cs)
);
}
);
width = 1351;
},
{
anchors = (
{
name = bottom;
pos = (753,0);
},
{
name = center;
pos = (753,728);
},
{
name = ogonek;
pos = (1051,0);
},
{
name = top;
pos = (753,1356);
},
{
name = topleft;
pos = (20,1356);
},
{
name = topright;
pos = (1116,1356);
}
);
layerId = "55372407-EEEC-4390-8B77-FB5958F23D2B";
shapes = (
{
closed = 1;
nodes = (
(1146,-21,o),
(1450,295,o),
(1450,717,cs),
(1450,740,ls),
(1450,1158,o),
(1145,1477,o),
(751,1477,cs),
(348,1477,o),
(62,1158,o),
(62,740,cs),
(62,717,ls),
(62,295,o),
(349,-21,o),
(753,-21,cs)
);
},
{
closed = 1;
nodes = (
(521,245,o),
(413,432,o),
(413,717,cs),
(413,742,ls),
(413,1025,o),
(517,1210,o),
(751,1210,cs),
(972,1210,o),
(1101,1020,o),
(1101,742,cs),
(1101,717,ls),
(1101,433,o),
(973,245,o),
(753,245,cs)
);
}
);
width = 1505;
}
);
unicode = 79;
},
{
glyphname = Oacute;
kernLeft = C;
kernRight = D;
lastChange = "2018-08-01 20:26:20 +0000";
layers = (
{
layerId = "0331963E-C1C8-4E93-A463-84B984C1D75E";
shapes = (
{
ref = O;
},
{
pos = (638,263);
ref = acutecomb;
}
);
width = 1488;
},
{
layerId = "B06AEEA2-953E-4FA5-BFB1-0445B6E4B274";
shapes = (
{
ref = O;
},
{
pos = (515,294);
ref = acutecomb;
}
);
width = 1351;
},
{
layerId = "55372407-EEEC-4390-8B77-FB5958F23D2B";
shapes = (
{
ref = O;
},
{
pos = (505,274);
ref = acutecomb;
}
);
width = 1505;
},
{
anchors = (
{
name = _top;
pos = (728,1426);
},
{
name = top;
pos = (728,1822);
}
);
associatedMasterId = "B06AEEA2-953E-4FA5-BFB1-0445B6E4B274";
layerId = "89487248-1DF0-4D85-9788-3A100DC715E3";
name = "Jul 25 18, 17:01";
shapes = (
{
closed = 1;
nodes = (
(1281,283,o),
(1072,-21,o),
(675,-21,cs),
(299,-21,o),
(70,283,o),
(70,717,cs),
(70,738,ls),
(70,1171,o),
(298,1477,o),
(675,1477,cs),
(1072,1477,o),
(1281,1171,o),
(1281,738,cs),
(1281,717,ls)
);
},
{
closed = 1;
nodes = (
(1083,1079,o),
(960,1312,o),
(675,1312,cs),
(412,1312,o),
(268,1077,o),
(268,740,cs),
(268,717,ls),
(268,376,o),
(412,143,o),
(675,143,cs),
(964,143,o),
(1083,374,o),
(1083,717,cs),
(1083,740,ls)
);
},
{
closed = 1;
nodes = (
(1008,1822,l),
(1010,1816,l),
(741,1556,l),
(603,1556,l),
(594,1556,l),
(778,1822,l)
);
}
);
width = 1351;
},
{
anchors = (
{
name = _top;
pos = (738,1436);
},
{
name = top;
pos = (738,1832);
}
);
associatedMasterId = "0331963E-C1C8-4E93-A463-84B984C1D75E";
layerId = "D6CF8633-FA0C-4D1B-91AA-4A5C8E743A90";
name = "Jul 25 18, 17:20";
shapes = (
{
closed = 1;
nodes = (
(1348,271,o),
(1101,-21,o),
(740,-21,cs),
(377,-21,o),
(130,272,o),
(130,719,cs),
(130,737,ls),
(130,1184,o),
(375,1477,o),
(738,1477,cs),
(1099,1477,o),
(1348,1184,o),
(1348,737,cs),
(1348,719,ls)
);
},
{
closed = 1;
nodes = (
(1294,1151,o),
(1075,1423,o),
(738,1423,cs),
(402,1423,o),
(185,1151,o),
(185,739,cs),
(185,719,ls),
(185,304,o),
(403,33,o),
(740,33,cs),
(1077,33,o),
(1294,304,o),
(1294,719,cs),
(1294,739,ls)
);
},
{
closed = 1;
nodes = (
(956,1832,l),
(958,1827,l),
(717,1566,l),
(672,1566,l),
(670,1571,l),
(892,1832,l)
);
}
);
visible = 1;
width = 1488;
},
{
anchors = (
{
name = _top;
pos = (767,1431);
},
{
name = top;
pos = (767,1827);
}
);
associatedMasterId = "55372407-EEEC-4390-8B77-FB5958F23D2B";
layerId = "C1E1622E-79CF-4F08-9DB7-B4E8A5A9E732";
name = "Jul 26 18, 10:40";
shapes = (
{
closed = 1;
nodes = (
(1450,295,o),
(1146,-21,o),
(753,-21,cs),
(349,-21,o),
(62,295,o),
(62,717,cs),
(62,740,ls),
(62,1158,o),
(348,1477,o),
(751,1477,cs),
(1145,1477,o),
(1450,1158,o),
(1450,740,cs),
(1450,717,ls)
);
},
{
closed = 1;
nodes = (
(1101,1020,o),
(972,1210,o),
(751,1210,cs),
(517,1210,o),
(413,1025,o),
(413,742,cs),
(413,717,ls),
(413,432,o),
(521,245,o),
(753,245,cs),
(973,245,o),
(1101,433,o),
(1101,717,cs),
(1101,742,ls)
);
},
{
closed = 1;
nodes = (
(1091,1827,l),
(1093,1821,l),
(813,1561,l),
(532,1561,l),
(525,1561,l),
(733,1827,l)
);
}
);
width = 1505;
}
);
unicode = 211;
},
{
glyphname = Ohorn;
kernLeft = C;
lastChange = "2018-08-01 20:26:20 +0000";
layers = (
{
layerId = "0331963E-C1C8-4E93-A463-84B984C1D75E";
shapes = (
{
ref = O;
},
{
pos = (1121,0);
ref = horncomb.case;
}
);
width = 1488;
},
{
layerId = "B06AEEA2-953E-4FA5-BFB1-0445B6E4B274";
shapes = (
{
ref = O;
},
{
pos = (945,0);
ref = horncomb.case;
}
);
width = 1351;
},
{
layerId = "55372407-EEEC-4390-8B77-FB5958F23D2B";
shapes = (
{
ref = O;
},
{
pos = (1076,0);
ref = horncomb.case;
}
);
width = 1505;
},
{
associatedMasterId = "B06AEEA2-953E-4FA5-BFB1-0445B6E4B274";
layerId = "FAC32D1D-DF8C-4BBA-B9CA-B40EE1DA7D03";
name = "Jul 26 18, 13:40";
shapes = (
{
closed = 1;
nodes = (
(1363,293,o),
(1095,-21,o),
(708,-21,cs),
(332,-21,o),
(74,293,o),
(74,717,cs),
(74,738,ls),
(74,1161,o),
(332,1477,o),
(708,1477,cs),
(867,1477,o),
(1007,1423,o),
(1118,1328,c),
(1226,1348,o),
(1273,1440,o),
(1273,1593,c),
(1451,1593,l),
(1451,1393,o),
(1373,1261,o),
(1224,1210,c),
(1313,1081,o),
(1363,917,o),
(1363,738,cs),
(1363,717,ls)
);
},
{
closed = 1;
nodes = (
(1166,1079,o),
(995,1315,o),
(708,1315,cs),
(433,1315,o),
(271,1077,o),
(271,740,cs),
(271,717,ls),
(271,376,o),
(433,140,o),
(708,140,cs),
(999,140,o),
(1166,374,o),
(1166,717,cs),
(1166,740,ls)
);
}
);
width = 1486;
},
{
associatedMasterId = "0331963E-C1C8-4E93-A463-84B984C1D75E";
layerId = "F6DA7D89-93AF-4998-8A50-F7A9D088270B";
name = "Jul 30 18, 10:01";
shapes = (
{
closed = 1;
nodes = (
(1338,271,o),
(1091.333,-21,o),
(730,-21,cs),
(367.333,-21,o),
(120,272.333,o),
(120,719,cs),
(120,737,ls),
(120,1183.667,o),
(365.333,1477,o),
(728,1477,cs),
(922.667,1477,o),
(1087.667,1391.333,o),
(1197,1238,c),
(1386.333,1240.667,o),
(1445,1334.333,o),
(1445,1541,c),
(1499,1541,l),
(1499,1315.667,o),
(1422,1199.667,o),
(1230,1185,c),
(1299.333,1063.667,o),
(1338,910.333,o),
(1338,737,cs),
(1338,719,ls)
);
},
{
closed = 1;
nodes = (
(1284,1151,o),
(1065.333,1423,o),
(728,1423,cs),
(392,1423,o),
(175,1151,o),
(175,739,cs),
(175,719,ls),
(175,304.333,o),
(392.667,33,o),
(730,33,cs),
(1067.333,33,o),
(1284,304.333,o),
(1284,719,cs),
(1284,739,ls)
);
}
);
width = 1453;
},
{
associatedMasterId = "55372407-EEEC-4390-8B77-FB5958F23D2B";
layerId = "2E6F8DD3-ADAE-4475-9FCB-212A2D13BB0D";
name = "Jul 30 18, 10:01";
shapes = (
{
closed = 1;
nodes = (
(1408,289,o),
(1142,-21,o),
(742,-21,cs),
(338,-21,o),
(69,289,o),
(69,717,cs),
(69,740,ls),
(69,1164,o),
(336,1477,o),
(740,1477,cs),
(923,1477,o),
(1080,1411,o),
(1197,1297,c),
(1232,1343,o),
(1242,1426,o),
(1242,1556,c),
(1448,1556,l),
(1448,1362,o),
(1404,1227,o),
(1307,1155,c),
(1372,1036,o),
(1408,895,o),
(1408,740,cs),
(1408,717,ls)
);
},
{
closed = 1;
nodes = (
(1059,1020,o),
(960,1208,o),
(740,1208,cs),
(513,1208,o),
(420,1025,o),
(420,742,cs),
(420,717,ls),
(420,432,o),
(517,247,o),
(742,247,cs),
(961,247,o),
(1059,433,o),
(1059,717,cs),
(1059,742,ls)
);
}
);
width = 1492;
}
);
unicode = 416;
},
{
glyphname = Oslash;
kernLeft = C;
lastChange = "2018-08-01 20:26:20 +0000";
layers = (
{
layerId = "0331963E-C1C8-4E93-A463-84B984C1D75E";
shapes = (
{
ref = O;
},
{
pos = (172,18);
ref = slashlongcomb.case;
}
);
width = 1488;
},
{
layerId = "B06AEEA2-953E-4FA5-BFB1-0445B6E4B274";
shapes = (
{
ref = O;
},
{
pos = (83,0);
ref = slashlongcomb.case;
}
);
width = 1351;
},
{
layerId = "55372407-EEEC-4390-8B77-FB5958F23D2B";
shapes = (
{
ref = O;
},
{
pos = (149,16);
ref = slashlongcomb.case;
}
);
width = 1505;
},
{
associatedMasterId = "B06AEEA2-953E-4FA5-BFB1-0445B6E4B274";
layerId = "95CE74C0-74F5-4A74-8165-423AD9D118B5";
name = "Jul 26 18, 15:06";
shapes = (
{
closed = 1;
nodes = (
(1368,293,o),
(1099.667,-21,o),
(713,-21,cs),
(593,-21,o),
(485,10.333,o),
(393,69,c),
(296,-94,l),
(147,-94,l),
(291,150,l),
(155,284.667,o),
(79,486.333,o),
(79,717,cs),
(79,738,ls),
(79,1160.667,o),
(337,1477,o),
(713,1477,cs),
(829,1477,o),
(935.333,1447.333,o),
(1030,1394,c),
(1103,1517,l),
(1252,1517,l),
(1134,1318,l),
(1282,1182,o),
(1368,974,o),
(1368,738,cs),
(1368,717,ls)
);
},
{
closed = 1;
nodes = (
(1171,912,o),
(1125.333,1059.667,o),
(1044,1157,c),
(1038,1158,l),
(478,213,l),
(542,165,o),
(621,140,o),
(713,140,cs),
(1003.667,140,o),
(1171,374.333,o),
(1171,717,cs),
(1171,740,ls)
);
},
{
closed = 1;
nodes = (
(276,553,o),
(313.333,410.667,o),
(384,316,c),
(390,316,l),
(945,1251,l),
(878.333,1292.333,o),
(801,1315,o),
(713,1315,cs),
(438.333,1315,o),
(276,1077.333,o),
(276,740,cs),
(276,717,ls)
);
}
);
width = 1404;
},
{
associatedMasterId = "55372407-EEEC-4390-8B77-FB5958F23D2B";
layerId = "BC0FB723-A9D9-47EB-B22E-2546C141EB29";
name = "Jul 28 18, 16:04";
shapes = (
{
closed = 1;
nodes = (
(1407,289,o),
(1140,-21,o),
(741,-21,cs),
(612,-21,o),
(496,9,o),
(399,67,c),
(306,-96,l),
(165,-96,l),
(301,140,l),
(152,273,o),
(68,478,o),
(68,717,cs),
(68,740,ls),
(68,1164,o),
(335,1477,o),
(739,1477,cs),
(846,1477,o),
(945,1454,o),
(1033,1412,c),
(1095,1519,l),
(1236,1519,l),
(1137,1349,l),
(1309,1215,o),
(1407,995,o),
(1407,740,cs),
(1407,717,ls)
);
},
{
closed = 1;
nodes = (
(1058,877,o),
(1033,996,o),
(984,1069,c),
(978,1070,l),
(544,317,l),
(593,271,o),
(657,247,o),
(741,247,cs),
(960,247,o),
(1058,433,o),
(1058,717,cs),
(1058,742,ls)
);
},
{
closed = 1;
nodes = (
(419,603,o),
(432,503,o),
(463,434,c),
(469,433,l),
(892,1168,l),
(849,1192,o),
(797,1208,o),
(739,1208,cs),
(512,1208,o),
(419,1025,o),
(419,742,cs),
(419,717,ls)
);
}
);
width = 1398;
},
{
associatedMasterId = "0331963E-C1C8-4E93-A463-84B984C1D75E";
layerId = "46FC2305-6505-4C80-9A8C-370AC2054C8A";
name = "Jul 28 18, 16:04";
shapes = (
{
closed = 1;
nodes = (
(1338,271,o),
(1091.333,-21,o),
(730,-21,cs),
(590,-21,o),
(465.667,21.333,o),
(367,104,c),
(254,-75,l),
(188,-75,l),
(325,142,l),
(193,272.667,o),
(120,472.333,o),
(120,719,cs),
(120,737,ls),
(120,1183.667,o),
(365.333,1477,o),
(728,1477,cs),
(866.667,1477,o),
(993,1431.333,o),
(1093,1350,c),
(1185,1495,l),
(1251,1495,l),
(1135,1312,l),
(1263,1180,o),
(1338,979.667,o),
(1338,737,cs),
(1338,719,ls)
);
},
{
closed = 1;
nodes = (
(1284,960.333,o),
(1220,1144.333,o),
(1108,1259,c),
(1102,1260,l),
(396,149,l),
(486.667,73,o),
(599.333,33,o),
(730,33,cs),
(1067.333,33,o),
(1284,304.333,o),
(1284,719,cs),
(1284,739,ls)
);
},
{
closed = 1;
nodes = (
(175,493.667,o),
(238.333,309.667,o),
(353,195,c),
(359,194,l),
(1064,1305,l),
(973.333,1381,o),
(858.667,1423,o),
(728,1423,cs),
(392,1423,o),
(175,1151,o),
(175,739,cs),
(175,719,ls)
);
}
);
width = 1411;
}
);
unicode = 216;
},
{
color = 9;
glyphname = OE;
kernLeft = C;
lastChange = "2018-07-31 16:42:07 +0000";
layers = (
{
anchors = (
{
name = bottom;
pos = (1016,0);
},
{
name = top;
pos = (1021,1345);
}
);
layerId = "0331963E-C1C8-4E93-A463-84B984C1D75E";
shapes = (
{
closed = 1;
nodes = (
(864,-21,o),
(966,-10,o),
(1048,9,c),
(1028,63,l),
(949,43,o),
(859,33,o),
(786,33,cs),
(407,33,o),
(185,304,o),
(185,719,cs),
(185,739,ls),
(185,1151,o),
(406,1423,o),
(784,1423,cs),
(857,1423,o),
(948,1413,o),
(1028,1393,c),
(1048,1446,l),
(965,1466,o),
(863,1477,o),
(784,1477,cs),
(379,1477,o),
(130,1184,o),
(130,737,cs),
(130,719,ls),
(130,272,o),
(381,-21,o),
(786,-21,cs)
);
},
{
closed = 1;
nodes = (
(1878,0,l),
(1878,293,l),
(1824,293,l),
(1824,54,l),
(1046,54,l),
(1046,732,l),
(1676,732,l),
(1676,786,l),
(1046,786,l),
(1046,1402,l),
(1824,1402,l),
(1824,1163,l),
(1878,1163,l),
(1878,1456,l),
(926,1456,l),
(992,1412,l),
(992,44,l),
(926,0,l)
);
}
);
width = 2028;
},
{
anchors = (
{
name = bottom;
pos = (978,0);
},
{
name = top;
pos = (1013,1376);
}
);
layerId = "B06AEEA2-953E-4FA5-BFB1-0445B6E4B274";
shapes = (
{
closed = 1;
nodes = (
(822,-21,o),
(943,0,o),
(1078,38,c),
(1078,240,l),
(969,178,o),
(840,143,o),
(715,143,cs),
(416,143,o),
(268,376,o),
(268,717,cs),
(268,740,ls),
(268,1077,o),
(416,1312,o),
(715,1312,cs),
(839,1312,o),
(968,1275,o),
(1078,1211,c),
(1078,1417,l),
(943,1456,o),
(822,1477,o),
(715,1477,cs),
(302,1477,o),
(70,1171,o),
(70,738,cs),
(70,717,ls),
(70,283,o),
(303,-21,o),
(715,-21,cs)
);
},
{
closed = 1;
nodes = (
(1871,0,l),
(1871,349,l),
(1703,349,l),
(1687,154,l),
(1102,154,l),
(1102,675,l),
(1659,675,l),
(1659,830,l),
(1102,830,l),
(1102,1301,l),
(1675,1301,l),
(1691,1106,l),
(1860,1106,l),
(1860,1456,l),
(850,1456,l),
(905,1301,l),
(905,154,l),
(850,0,l)
);
}
);
width = 1987;
},
{
anchors = (
{
name = bottom;
pos = (1003,0);
},
{
name = top;
pos = (1047,1356);
}
);
layerId = "55372407-EEEC-4390-8B77-FB5958F23D2B";
shapes = (
{
closed = 1;
nodes = (
(885,-21,o),
(994,-4,o),
(1093,27,c),
(1093,343,l),
(999,281,o),
(888,245,o),
(773,245,cs),
(524,245,o),
(413,432,o),
(413,717,cs),
(413,742,ls),
(413,1025,o),
(520,1210,o),
(771,1210,cs),
(890,1210,o),
(1003,1169,o),
(1093,1099,c),
(1093,1429,l),
(994,1460,o),
(884,1477,o),
(771,1477,cs),
(352,1477,o),
(62,1158,o),
(62,740,cs),
(62,717,ls),
(62,295,o),
(353,-21,o),
(773,-21,cs)
);
},
{
closed = 1;
nodes = (
(1961,0,l),
(1961,428,l),
(1706,428,l),
(1695,267,l),
(1296,267,l),
(1296,618,l),
(1749,618,l),
(1749,887,l),
(1296,887,l),
(1296,1188,l),
(1696,1188,l),
(1707,1027,l),
(1965,1027,l),
(1965,1456,l),
(873,1456,l),
(945,1241,l),
(945,214,l),
(873,0,l)
);
}
);
width = 2055;
}
);
metricLeft = O;
metricRight = E;
unicode = 338;
userData = {
com.typemytype.robofont.layerData = {
mask = {
anchors = (
);
components = (
);
contours = (
{
points = (
{
segmentType = line;
smooth = 0;
x = 963;
y = 0;
},
{
smooth = 0;
x = 825.66667;
y = -13.33333;
},
{
smooth = 0;
x = 735.66667;
y = -21;
},
{
segmentType = curve;
smooth = 1;
x = 633;
y = -21;
},
{
smooth = 0;
x = 325;
y = -21;
},
{
smooth = 0;
x = 114;
y = 222.66667;
},
{
segmentType = curve;
smooth = 1;
x = 114;
y = 576;
},
{
segmentType = line;
smooth = 1;
x = 114;
y = 880;
},
{
smooth = 0;
x = 114;
y = 1233.33333;
},
{
smooth = 0;
x = 323;
y = 1477;
},
{
segmentType = curve;
smooth = 1;
x = 631;
y = 1477;
},
{
smooth = 0;
x = 737.66667;
y = 1477;
},
{
smooth = 0;
x = 844.33333;
y = 1468;
},
{
segmentType = curve;
smooth = 0;
x = 963;
y = 1456;
},
{
segmentType = line;
smooth = 0;
x = 1835;
y = 1456;
},
{
segmentType = line;
smooth = 0;
x = 1835;
y = 1163;
},
{
segmentType = line;
smooth = 0;
x = 1781;
y = 1163;
},
{
segmentType = line;
smooth = 0;
x = 1781;
y = 1402;
},
{
segmentType = line;
smooth = 0;
x = 1003;
y = 1402;
},
{
segmentType = line;
smooth = 0;
x = 1003;
y = 786;
},
{
segmentType = line;
smooth = 0;
x = 1633;
y = 786;
},
{
segmentType = line;
smooth = 0;
x = 1633;
y = 732;
},
{
segmentType = line;
smooth = 0;
x = 1003;
y = 732;
},
{
segmentType = line;
smooth = 0;
x = 1003;
y = 54;
},
{
segmentType = line;
smooth = 0;
x = 1781;
y = 54;
},
{
segmentType = line;
smooth = 0;
x = 1781;
y = 293;
},
{
segmentType = line;
smooth = 0;
x = 1835;
y = 293;
},
{
segmentType = line;
smooth = 0;
x = 1835;
y = 0;
}
);
},
{
points = (
{
segmentType = curve;
smooth = 1;
x = 633;
y = 33;
},
{
smooth = 0;
x = 682.33333;
y = 33;
},
{
smooth = 0;
x = 735.33333;
y = 33.33333;
},
{
segmentType = curve;
smooth = 0;
x = 786;
y = 36;
},
{
segmentType = line;
smooth = 0;
x = 786;
y = 54;
},
{
segmentType = line;
smooth = 0;
x = 949;
y = 54;
},
{
segmentType = line;
smooth = 0;
x = 949;
y = 1402;
},
{
segmentType = line;
smooth = 0;
x = 786;
y = 1402;
},
{
segmentType = line;
smooth = 0;
x = 786;
y = 1420;
},
{
smooth = 0;
x = 735.33333;
y = 1421.33333;
},
{
smooth = 0;
x = 683;
y = 1423;
},
{
segmentType = curve;
smooth = 1;
x = 631;
y = 1423;
},
{
smooth = 0;
x = 349.66667;
y = 1423;
},
{
smooth = 0;
x = 168;
y = 1206;
},
{
segmentType = curve;
smooth = 1;
x = 168;
y = 882;
},
{
segmentType = line;
smooth = 1;
x = 168;
y = 576;
},
{
smooth = 0;
x = 168;
y = 256;
},
{
smooth = 0;
x = 353;
y = 33;
}
);
}
);
lib = {
};
name = OE;
unicodes = (
);
width = 1973;
};
};
};
},
{
glyphname = P;
kernRight = P;
lastChange = "2023-10-11 13:41:42 +0000";
layers = (
{
anchors = (
{
name = bottom;
pos = (263,0);
},
{
name = top;
pos = (628,1345);
}
);
layerId = "0331963E-C1C8-4E93-A463-84B984C1D75E";
shapes = (
{
closed = 1;
nodes = (
(451,0,l),
(451,54,l),
(288,54,l),
(288,625,l),
(639,625,ls),
(942,625,o),
(1109,788,o),
(1109,1041,cs),
(1109,1292,o),
(940,1456,o),
(639,1456,cs),
(234,1456,l),
(71,1456,l),
(71,1402,l),
(234,1402,l),
(234,54,l),
(71,54,l),
(71,0,l)
);
},
{
closed = 1;
nodes = (
(288,1402,l),
(639,1402,ls),
(916,1402,o),
(1055,1250,o),
(1055,1039,cs),
(1055,834,o),
(915,679,o),
(639,679,cs),
(288,679,l)
);
}
);
width = 1255;
},
{
anchors = (
{
name = bottom;
pos = (649,0);
},
{
name = top;
pos = (649,1376);
}
);
layerId = "B06AEEA2-953E-4FA5-BFB1-0445B6E4B274";
shapes = (
{
closed = 1;
nodes = (
(604,0,l),
(604,126,l),
(441,154,l),
(441,584,l),
(750,584,ls),
(1061,584,o),
(1242,756,o),
(1242,1020,cs),
(1242,1281,o),
(1061,1456,o),
(750,1456,cs),
(244,1456,l),
(81,1456,l),
(81,1329,l),
(244,1301,l),
(244,154,l),
(81,126,l),
(81,0,l)
);
},
{
closed = 1;
nodes = (
(441,1301,l),
(750,1301,ls),
(947,1301,o),
(1045,1179,o),
(1045,1018,cs),
(1045,857,o),
(947,738,o),
(750,738,cs),
(441,738,l)
);
}
);
width = 1297;
},
{
anchors = (
{
name = bottom;
pos = (373,0);
},
{
name = top;
pos = (671,1356);
}
);
layerId = "55372407-EEEC-4390-8B77-FB5958F23D2B";
shapes = (
{
closed = 1;
nodes = (
(693,0,l),
(693,205,l),
(542,237,l),
(542,493,l),
(748,493,ls),
(1096,493,o),
(1317,685,o),
(1317,973,cs),
(1317,1260,o),
(1096,1456,o),
(748,1456,cs),
(191,1456,l),
(40,1456,l),
(40,1250,l),
(191,1218,l),
(191,237,l),
(40,205,l),
(40,0,l)
);
},
{
closed = 1;
nodes = (
(542,1188,l),
(748,1188,ls),
(890,1188,o),
(966,1098,o),
(966,971,cs),
(966,848,o),
(890,762,o),
(748,762,cs),
(542,762,l)
);
}
);
width = 1342;
}
);
unicode = 80;
},
{
glyphname = Thorn;
lastChange = "2023-10-11 13:41:42 +0000";
layers = (
{
anchors = (
{
name = bottom;
pos = (260,0);
},
{
name = top;
pos = (260,1345);
}
);
layerId = "0331963E-C1C8-4E93-A463-84B984C1D75E";
shapes = (
{
closed = 1;
nodes = (
(450,0,l),
(450,54,l),
(287,54,l),
(287,334,l),
(658,334,ls),
(941,334,o),
(1108,498,o),
(1108,738,cs),
(1108,977,o),
(941,1143,o),
(658,1143,cs),
(287,1143,l),
(287,1402,l),
(450,1402,l),
(450,1456,l),
(287,1456,l),
(70,1456,l),
(70,1402,l),
(233,1402,l),
(233,54,l),
(70,54,l),
(70,0,l)
);
},
{
closed = 1;
nodes = (
(287,1089,l),
(658,1089,ls),
(919,1089,o),
(1054,928,o),
(1054,736,cs),
(1054,549,o),
(918,388,o),
(658,388,cs),
(287,388,l)
);
}
);
width = 1240;
},
{
anchors = (
{
name = bottom;
pos = (338,0);
},
{
name = top;
pos = (338,1376);
}
);
layerId = "B06AEEA2-953E-4FA5-BFB1-0445B6E4B274";
shapes = (
{
closed = 1;
nodes = (
(593,0,l),
(593,126,l),
(430,154,l),
(430,313,l),
(699,313,ls),
(1007,313,o),
(1190,485,o),
(1190,738,cs),
(1190,990,o),
(1007,1163,o),
(699,1163,cs),
(430,1163,l),
(430,1301,l),
(593,1329,l),
(593,1456,l),
(430,1456,l),
(70,1456,l),
(70,1329,l),
(233,1301,l),
(233,154,l),
(70,126,l),
(70,0,l)
);
},
{
closed = 1;
nodes = (
(430,1009,l),
(699,1009,ls),
(894,1009,o),
(993,888,o),
(993,736,cs),
(993,585,o),
(894,467,o),
(699,467,cs),
(430,467,l)
);
}
);
width = 1277;
},
{
anchors = (
{
name = bottom;
pos = (407,0);
},
{
name = top;
pos = (407,1356);
}
);
layerId = "55372407-EEEC-4390-8B77-FB5958F23D2B";
shapes = (
{
closed = 1;
nodes = (
(719,0,l),
(719,205,l),
(568,237,l),
(568,313,l),
(738,313,ls),
(1087,313,o),
(1290,484,o),
(1290,737,cs),
(1290,989,o),
(1087,1159,o),
(738,1159,cs),
(568,1159,l),
(568,1218,l),
(719,1250,l),
(719,1456,l),
(568,1456,l),
(65,1456,l),
(65,1250,l),
(217,1218,l),
(217,237,l),
(65,205,l),
(65,0,l)
);
},
{
closed = 1;
nodes = (
(568,900,l),
(738,900,ls),
(873,900,o),
(939,829,o),
(939,735,cs),
(939,640,o),
(873,572,o),
(738,572,cs),
(568,572,l)
);
}
);
width = 1300;
}
);
unicode = 222;
},
{
glyphname = Q;
kernLeft = C;
lastChange = "2023-10-11 13:41:42 +0000";
layers = (
{
anchors = (
{
name = bottom;
pos = (739,0);
},
{
name = top;
pos = (739,1345);
}
);
layerId = "0331963E-C1C8-4E93-A463-84B984C1D75E";
shapes = (
{
closed = 1;
nodes = (
(1343,-165,l),
(1033,56,l),
(1230,171,o),
(1348,410,o),
(1348,719,cs),
(1348,737,ls),
(1348,1184,o),
(1099,1477,o),
(738,1477,cs),
(375,1477,o),
(130,1184,o),
(130,737,cs),
(130,719,ls),
(130,272,o),
(377,-21,o),
(740,-21,cs),
(825,-21,o),
(906,-5,o),
(979,28,c),
(1308,-206,l)
);
},
{
closed = 1;
nodes = (
(403,33,o),
(185,304,o),
(185,719,cs),
(185,739,ls),
(185,1151,o),
(402,1423,o),
(738,1423,cs),
(1075,1423,o),
(1294,1151,o),
(1294,739,cs),
(1294,719,ls),
(1294,304,o),
(1077,33,o),
(740,33,cs)
);
}
);
width = 1478;
},
{
anchors = (
{
name = bottom;
pos = (682,0);
},
{
name = top;
pos = (682,1376);
}
);
layerId = "B06AEEA2-953E-4FA5-BFB1-0445B6E4B274";
shapes = (
{
closed = 1;
nodes = (
(1348,-98,l),
(1056,105,l),
(1228,236,o),
(1279,454,o),
(1279,717,cs),
(1279,738,ls),
(1279,1170,o),
(1068,1477,o),
(674,1477,cs),
(298,1477,o),
(70,1170,o),
(70,738,cs),
(70,717,ls),
(70,285,o),
(300,-21,o),
(674,-21,cs),
(747,-21,o),
(818,-8,o),
(885,13,c),
(1237,-245,l)
);
},
{
closed = 1;
nodes = (
(409,143,o),
(267,376,o),
(267,717,cs),
(267,740,ls),
(267,1077,o),
(413,1312,o),
(674,1312,cs),
(959,1312,o),
(1082,1079,o),
(1082,740,cs),
(1082,717,ls),
(1082,374,o),
(955,143,o),
(674,143,cs)
);
}
);
width = 1376;
},
{
anchors = (
{
name = bottom;
pos = (757,0);
},
{
name = top;
pos = (757,1356);
}
);
layerId = "55372407-EEEC-4390-8B77-FB5958F23D2B";
shapes = (
{
closed = 1;
nodes = (
(1492,-67,l),
(1171,120,l),
(1330,252,o),
(1454,470,o),
(1454,717,cs),
(1454,740,ls),
(1454,1159,o),
(1150,1477,o),
(755,1477,cs),
(351,1477,o),
(65,1159,o),
(65,740,cs),
(65,717,ls),
(65,294,o),
(351,-21,o),
(757,-21,cs),
(796,-21,o),
(837,-17,o),
(880,-13,c),
(1328,-303,l)
);
},
{
closed = 1;
nodes = (
(526,245,o),
(416,432,o),
(416,717,cs),
(416,742,ls),
(416,1025,o),
(519,1210,o),
(755,1210,cs),
(976,1210,o),
(1105,1020,o),
(1105,742,cs),
(1105,717,ls),
(1105,433,o),
(982,245,o),
(757,245,cs)
);
}
);
width = 1494;
}
);
unicode = 81;
userData = {
com.typemytype.robofont.layerData = {
mask = {
anchors = (
);
components = (
);
contours = (
{
points = (
{
segmentType = line;
smooth = 1;
x = 1348;
y = 719;
},
{
smooth = 0;
x = 1348;
y = 409.66667;
},
{
smooth = 0;
x = 1230.33333;
y = 170.66667;
},
{
segmentType = curve;
smooth = 0;
x = 1033;
y = 56;
},
{
segmentType = line;
smooth = 0;
x = 1343;
y = -165;
},
{
segmentType = line;
smooth = 0;
x = 1304;
y = -203;
},
{
segmentType = line;
smooth = 0;
x = 979;
y = 28;
},
{
smooth = 0;
x = 905.66667;
y = -5.33333;
},
{
smooth = 0;
x = 825.33333;
y = -21;
},
{
segmentType = curve;
smooth = 1;
x = 740;
y = -21;
},
{
smooth = 0;
x = 377.33333;
y = -21;
},
{
smooth = 0;
x = 130;
y = 272.33333;
},
{
segmentType = curve;
smooth = 1;
x = 130;
y = 719;
},
{
segmentType = line;
smooth = 1;
x = 130;
y = 737;
},
{
smooth = 0;
x = 130;
y = 1183.66667;
},
{
smooth = 0;
x = 375.33333;
y = 1477;
},
{
segmentType = curve;
smooth = 1;
x = 738;
y = 1477;
},
{
smooth = 0;
x = 1099.33333;
y = 1477;
},
{
smooth = 0;
x = 1348;
y = 1183.66667;
},
{
segmentType = curve;
smooth = 1;
x = 1348;
y = 737;
}
);
},
{
points = (
{
segmentType = line;
smooth = 1;
x = 1294;
y = 739;
},
{
smooth = 0;
x = 1294;
y = 1151;
},
{
smooth = 0;
x = 1075.33333;
y = 1423;
},
{
segmentType = curve;
smooth = 1;
x = 738;
y = 1423;
},
{
smooth = 0;
x = 402;
y = 1423;
},
{
smooth = 0;
x = 185;
y = 1151;
},
{
segmentType = curve;
smooth = 1;
x = 185;
y = 739;
},
{
segmentType = line;
smooth = 1;
x = 185;
y = 719;
},
{
smooth = 0;
x = 185;
y = 304.33333;
},
{
smooth = 0;
x = 402.66667;
y = 33;
},
{
segmentType = curve;
smooth = 1;
x = 740;
y = 33;
},
{
smooth = 0;
x = 1077.33333;
y = 33;
},
{
smooth = 0;
x = 1294;
y = 304.33333;
},
{
segmentType = curve;
smooth = 1;
x = 1294;
y = 719;
}
);
}
);
lib = {
};
name = Q;
unicodes = (
);
width = 1478;
};
};
com.typemytype.robofont.mark = (
1,
0.1703,
0.1669,
0.8287
);
};
},
{
color = 3;
glyphname = R;
lastChange = "2018-12-13 19:46:42 +0000";
layers = (
{
anchors = (
{
name = bottom;
pos = (682,0);
},
{
name = top;
pos = (682,1345);
}
);
layerId = "0331963E-C1C8-4E93-A463-84B984C1D75E";
shapes = (
{
closed = 1;
nodes = (
(451,-1,l),
(451,53,l),
(288,53,l),
(288,683,l),
(652,683,l),
(940,683,o),
(1134,820,o),
(1134,1065,cs),
(1134,1320,o),
(963,1455,o),
(656,1455,cs),
(71,1455,l),
(71,1401,l),
(234,1401,l),
(234,53,l),
(71,53,l),
(71,-1,l)
);
},
{
closed = 1;
nodes = (
(1236,-1,l),
(1236,53,l),
(1103,53,l),
(816,718,l),
(762,718,l),
(1067,-1,l)
);
},
{
closed = 1;
nodes = (
(288,1401,l),
(656,1401,ls),
(937,1401,o),
(1080,1282,o),
(1080,1065,cs),
(1080,878,o),
(945,737,o),
(651,737,cs),
(288,737,l)
);
}
);
width = 1364;
},
{
anchors = (
{
name = bottom;
pos = (693,0);
},
{
name = top;
pos = (693,1376);
}
);
layerId = "B06AEEA2-953E-4FA5-BFB1-0445B6E4B274";
shapes = (
{
closed = 1;
nodes = (
(604,0,l),
(604,126,l),
(441,154,l),
(441,650,l),
(767,656,ls),
(1046,661,o),
(1222,793,o),
(1222,1050,cs),
(1222,1309,o),
(1047,1455,o),
(730,1455,cs),
(81,1455,l),
(81,1329,l),
(244,1301,l),
(244,154,l),
(81,126,l),
(81,0,l)
);
},
{
closed = 1;
nodes = (
(1285,0,l),
(1285,129,l),
(1184,147,l),
(915,729,l),
(718,727,l),
(1042,0,l)
);
},
{
closed = 1;
nodes = (
(441,1301,l),
(730,1301,ls),
(931,1301,o),
(1025,1205,o),
(1025,1052,cs),
(1025,891,o),
(930,805,o),
(710,805,cs),
(441,805,l)
);
}
);
width = 1385;
},
{
associatedMasterId = "B06AEEA2-953E-4FA5-BFB1-0445B6E4B274";
layerId = "B3C1FABD-A09B-46D2-8C58-F0FEB832F081";
name = "Jul 13 18, 22:53";
shapes = (
{
closed = 1;
nodes = (
(1037,1455,o),
(1212,1309,o),
(1212,1050,cs),
(1212,909,o),
(1131,796,o),
(984,733,c),
(1143,681,o),
(1208,561,o),
(1208,389,cs),
(1208,272,ls),
(1208,183,o),
(1229,143,o),
(1281,135,cs),
(1329,129,l),
(1329,0,l),
(1223,0,ls),
(1070,0,o),
(1011,122,o),
(1011,274,cs),
(1011,387,ls),
(1011,546,o),
(912,650,o),
(757,650,cs),
(441,650,l),
(441,154,l),
(604,126,l),
(604,0,l),
(81,0,l),
(81,126,l),
(244,154,l),
(244,1301,l),
(81,1329,l),
(81,1455,l),
(720,1455,ls)
);
},
{
closed = 1;
nodes = (
(700,805,ls),
(920,805,o),
(1015,891,o),
(1015,1052,cs),
(1015,1205,o),
(921,1301,o),
(720,1301,cs),
(441,1301,l),
(441,805,l)
);
}
);
width = 1396;
},
{
associatedMasterId = "B06AEEA2-953E-4FA5-BFB1-0445B6E4B274";
layerId = "746BFEFE-DE8D-4616-9A01-4CE384D00458";
name = "Jul 13 18, 23:39";
shapes = (
{
closed = 1;
nodes = (
(1212,793,o),
(1036,661,o),
(757,656,cs),
(441,650,l),
(441,154,l),
(604,126,l),
(604,0,l),
(81,0,l),
(81,126,l),
(244,154,l),
(244,1301,l),
(81,1329,l),
(81,1455,l),
(720,1455,ls),
(1037,1455,o),
(1212,1309,o),
(1212,1050,cs)
);
},
{
closed = 1;
nodes = (
(700,805,ls),
(920,805,o),
(1015,891,o),
(1015,1052,cs),
(1015,1205,o),
(921,1301,o),
(720,1301,cs),
(441,1301,l),
(441,805,l)
);
},
{
closed = 1;
nodes = (
(905,729,l),
(1163,221,ls),
(1195,158,o),
(1213,140,o),
(1255,135,cs),
(1303,129,l),
(1303,0,l),
(1197,0,ls),
(1101,0,o),
(1057,28,o),
(993,158,cs),
(715,727,l)
);
}
);
width = 1390;
},
{
associatedMasterId = "0331963E-C1C8-4E93-A463-84B984C1D75E";
layerId = "1D0575CD-5EB1-4601-9DBC-7E3B47C3FF49";
name = "Jul 14 18, 17:28";
shapes = (
{
closed = 1;
nodes = (
(954.667,1455,o),
(1126,1319.667,o),
(1126,1065,cs),
(1126,901,o),
(1014.333,751,o),
(833,711,c),
(1042.333,675,o),
(1126,553.667,o),
(1126,371,cs),
(1126,224,ls),
(1126,109.333,o),
(1165.667,54,o),
(1243,54,cs),
(1294,54,l),
(1294,0,l),
(1243,0,ls),
(1113.667,0,o),
(1072,99.333,o),
(1072,226,cs),
(1072,369,ls),
(1072,566.333,o),
(931.667,683,o),
(681,683,cs),
(288,683,l),
(288,53,l),
(451,53,l),
(451,-1,l),
(71,-1,l),
(71,53,l),
(234,53,l),
(234,1401,l),
(71,1401,l),
(71,1455,l),
(648,1455,ls)
);
},
{
closed = 1;
nodes = (
(638,737,ls),
(935.333,737,o),
(1072,878.333,o),
(1072,1065,cs),
(1072,1282.333,o),
(929.333,1401,o),
(648,1401,cs),
(288,1401,l),
(288,737,l)
);
}
);
width = 1364;
},
{
anchors = (
{
name = bottom;
pos = (711,0);
},
{
name = top;
pos = (704,1356);
}
);
layerId = "55372407-EEEC-4390-8B77-FB5958F23D2B";
shapes = (
{
closed = 1;
nodes = (
(693,0,l),
(693,205,l),
(542,237,l),
(542,528,l),
(785,525,ls),
(1095,522,o),
(1321,749,o),
(1321,1005,cs),
(1321,1283,o),
(1102,1457,o),
(756,1457,cs),
(40,1457,l),
(40,1250,l),
(191,1218,l),
(191,237,l),
(40,205,l),
(40,0,l)
);
},
{
closed = 1;
nodes = (
(1386,0,l),
(1386,204,l),
(1248,239,l),
(1071,672,l),
(766,568,l),
(962,0,l)
);
},
{
closed = 1;
nodes = (
(542,1188,l),
(756,1188,ls),
(894,1188,o),
(972,1106,o),
(972,982,cs),
(972,862,o),
(896,797,o),
(760,797,cs),
(542,797,l)
);
}
);
width = 1422;
}
);
unicode = 82;
},
{
glyphname = S;
kernLeft = S;
lastChange = "2018-07-27 21:54:15 +0000";
layers = (
{
anchors = (
{
name = bottom;
pos = (592,0);
},
{
name = top;
pos = (592,1345);
}
);
layerId = "0331963E-C1C8-4E93-A463-84B984C1D75E";
shapes = (
{
closed = 1;
nodes = (
(872,-21,o),
(1083,120,o),
(1083,351,cs),
(1083,580,o),
(917,694,o),
(594,781,cs),
(262,870,o),
(186,966,o),
(186,1131,cs),
(186,1286,o),
(328,1423,o),
(582,1423,cs),
(738,1423,o),
(877,1379,o),
(981,1292,c),
(981,1088,l),
(1035,1088,l),
(1035,1322,l),
(921,1417,o),
(770,1477,o),
(582,1477,cs),
(311,1477,o),
(132,1336,o),
(132,1129,cs),
(132,917,o),
(247,821,o),
(579,729,cs),
(910,637,o),
(1028,532,o),
(1028,349,cs),
(1028,162,o),
(845,33,o),
(589,33,cs),
(449,33,o),
(298,73,o),
(154,164,c),
(154,390,l),
(100,390,l),
(100,133,l),
(259,26,o),
(433,-21,o),
(589,-21,cs)
);
}
);
width = 1183;
},
{
anchors = (
{
name = bottom;
pos = (603,0);
},
{
name = top;
pos = (603,1376);
}
);
layerId = "B06AEEA2-953E-4FA5-BFB1-0445B6E4B274";
shapes = (
{
closed = 1;
nodes = (
(915,-21,o),
(1116,144,o),
(1116,379,cs),
(1116,598,o),
(955,747,o),
(649,823,cs),
(402,884,o),
(314,956,o),
(314,1082,cs),
(314,1225,o),
(429,1319,o),
(598,1319,cs),
(730,1319,o),
(816,1283,o),
(876,1235,c),
(909,1027,l),
(1062,1027,l),
(1062,1318,l),
(961,1406,o),
(802,1477,o),
(598,1477,cs),
(310,1477,o),
(117,1307,o),
(117,1079,cs),
(117,863,o),
(280,721,o),
(581,652,cs),
(834,594,o),
(919,510,o),
(919,377,cs),
(919,233,o),
(805,136,o),
(606,136,cs),
(489,136,o),
(387,167,o),
(301,220,c),
(268,449,l),
(115,449,l),
(115,138,l),
(264,30,o),
(429,-21,o),
(606,-21,cs)
);
}
);
width = 1206;
},
{
anchors = (
{
name = bottom;
pos = (636,0);
},
{
name = top;
pos = (636,1356);
}
);
layerId = "55372407-EEEC-4390-8B77-FB5958F23D2B";
shapes = (
{
closed = 1;
nodes = (
(1009,-21,o),
(1233,126,o),
(1233,384,cs),
(1233,635,o),
(1059,766,o),
(728,864,cs),
(519,943,o),
(462,987,o),
(462,1065,cs),
(462,1161,o),
(551,1209,o),
(673,1209,cs),
(767,1209,o),
(858,1186,o),
(904,1164,c),
(945,969,l),
(1205,969,l),
(1205,1320,l),
(1065,1427,o),
(885,1480,o),
(648,1475,cs),
(336,1469,o),
(112,1307,o),
(112,1066,cs),
(112,813,o),
(283,705,o),
(656,586,cs),
(821,522,o),
(880,468,o),
(880,382,cs),
(880,291,o),
(811,240,o),
(677,240,cs),
(549,240,o),
(429,277,o),
(387,325,c),
(357,519,l),
(86,519,l),
(86,141,l),
(269,15,o),
(440,-21,o),
(677,-21,cs)
);
}
);
width = 1272;
}
);
unicode = 83;
userData = {
com.typemytype.robofont.layerData = {
mask = {
anchors = (
);
components = (
);
contours = (
{
points = (
{
segmentType = line;
smooth = 0;
x = 1062;
y = 1022;
},
{
segmentType = line;
smooth = 0;
x = 1008;
y = 1022;
},
{
segmentType = line;
smooth = 0;
x = 1008;
y = 1226;
},
{
smooth = 0;
x = 922.66667;
y = 1355.33333;
},
{
smooth = 0;
x = 778;
y = 1423;
},
{
segmentType = curve;
smooth = 1;
x = 582;
y = 1423;
},
{
smooth = 0;
x = 318;
y = 1423;
},
{
smooth = 0;
x = 153;
y = 1287.33333;
},
{
segmentType = curve;
smooth = 1;
x = 153;
y = 1122;
},
{
smooth = 0;
x = 153;
y = 956.66667;
},
{
smooth = 0;
x = 260.66667;
y = 855.33333;
},
{
segmentType = curve;
smooth = 1;
x = 594;
y = 770;
},
{
smooth = 0;
x = 916.66667;
y = 684.66667;
},
{
smooth = 0;
x = 1083;
y = 577.66667;
},
{
segmentType = curve;
smooth = 1;
x = 1083;
y = 351;
},
{
smooth = 0;
x = 1083;
y = 120.33333;
},
{
smooth = 0;
x = 871.66667;
y = -21;
},
{
segmentType = curve;
smooth = 1;
x = 589;
y = -21;
},
{
smooth = 0;
x = 394.33333;
y = -21;
},
{
smooth = 0;
x = 203.66667;
y = 49.33333;
},
{
segmentType = curve;
smooth = 0;
x = 85;
y = 204;
},
{
segmentType = line;
smooth = 0;
x = 85;
y = 444;
},
{
segmentType = line;
smooth = 0;
x = 139;
y = 444;
},
{
segmentType = line;
smooth = 0;
x = 139;
y = 227;
},
{
smooth = 0;
x = 243;
y = 91;
},
{
smooth = 0;
x = 415.66667;
y = 33;
},
{
segmentType = curve;
smooth = 1;
x = 589;
y = 33;
},
{
smooth = 0;
x = 845;
y = 33;
},
{
smooth = 0;
x = 1028;
y = 162.33333;
},
{
segmentType = curve;
smooth = 1;
x = 1028;
y = 349;
},
{
smooth = 0;
x = 1028;
y = 531.66667;
},
{
smooth = 0;
x = 909.66667;
y = 627.33333;
},
{
segmentType = curve;
smooth = 1;
x = 579;
y = 718;
},
{
smooth = 0;
x = 247;
y = 807.33333;
},
{
smooth = 0;
x = 99;
y = 901.33333;
},
{
segmentType = curve;
smooth = 1;
x = 99;
y = 1120;
},
{
smooth = 0;
x = 99;
y = 1337.33333;
},
{
smooth = 0;
x = 300.66667;
y = 1477;
},
{
segmentType = curve;
smooth = 1;
x = 582;
y = 1477;
},
{
smooth = 0;
x = 800.66667;
y = 1477;
},
{
smooth = 0;
x = 967.33333;
y = 1401.66667;
},
{
segmentType = curve;
smooth = 0;
x = 1062;
y = 1251;
}
);
}
);
lib = {
};
name = S;
unicodes = (
);
width = 1183;
};
};
com.typemytype.robofont.mark = (
1,
0.1703,
0.1669,
0.8287
);
};
},
{
glyphname = Germandbls;
lastChange = "2018-08-01 14:10:12 +0000";
layers = (
{
anchors = (
{
name = bottom;
pos = (671,0);
},
{
name = top;
pos = (675,1345);
}
);
layerId = "0331963E-C1C8-4E93-A463-84B984C1D75E";
metricRight = "=B-20";
shapes = (
{
closed = 1;
nodes = (
(451,0,l),
(451,54,l),
(288,54,l),
(288,1402,l),
(1228,1402,l),
(1228,1456,l),
(71,1456,l),
(71,1402,l),
(234,1402,l),
(234,54,l),
(71,54,l),
(71,0,l)
);
},
{
closed = 1;
nodes = (
(1112,-21,o),
(1290,134,o),
(1290,385,cs),
(1290,670,o),
(1136,830,o),
(797,830,c),
(797,790,l),
(1228,1402,l),
(1179,1431,l),
(759,834,l),
(759,778,l),
(806,778,ls),
(1075,778,o),
(1236,652,o),
(1236,381,cs),
(1236,164,o),
(1096,33,o),
(856,33,cs),
(805,33,o),
(757,40,o),
(714,54,c),
(697,2,l),
(747,-13,o),
(801,-21,o),
(856,-21,cs)
);
}
);
width = 1358;
},
{
anchors = (
{
name = bottom;
pos = (715,0);
},
{
name = top;
pos = (715,1376);
}
);
layerId = "B06AEEA2-953E-4FA5-BFB1-0445B6E4B274";
metricRight = "=B-28";
shapes = (
{
closed = 1;
nodes = (
(604,0,l),
(604,126,l),
(441,154,l),
(441,1304,l),
(1293,1304,l),
(1293,1456,l),
(81,1456,l),
(81,1329,l),
(244,1301,l),
(244,154,l),
(81,126,l),
(81,0,l)
);
},
{
closed = 1;
nodes = (
(1217,-21,o),
(1381,150,o),
(1381,432,cs),
(1381,754,o),
(1150,920,o),
(901,913,c),
(952,877,l),
(1293,1304,l),
(1121,1375,l),
(763,907,l),
(763,753,l),
(913,753,ls),
(1078,753,o),
(1184,633,o),
(1184,432,cs),
(1184,245,o),
(1094,133,o),
(945,133,cs),
(892,133,o),
(842,146,o),
(798,163,c),
(752,8,l),
(794,-6,o),
(870,-21,o),
(948,-21,cs)
);
}
);
width = 1422;
},
{
anchors = (
{
name = bottom;
pos = (769,0);
},
{
name = top;
pos = (764,1356);
}
);
layerId = "55372407-EEEC-4390-8B77-FB5958F23D2B";
metricRight = "=B-20";
shapes = (
{
closed = 1;
nodes = (
(692,0,l),
(692,205,l),
(541,237,l),
(541,1188,l),
(1426,1188,l),
(1426,1456,l),
(40,1456,l),
(40,1250,l),
(190,1218,l),
(190,237,l),
(40,205,l),
(40,0,l)
);
},
{
closed = 1;
nodes = (
(1279,-21,o),
(1501,146,o),
(1501,428,cs),
(1501,674,o),
(1344,886,o),
(1028,886,c),
(1114,845,l),
(1426,1188,l),
(1157,1306,l),
(774,874,l),
(774,676,l),
(927,676,ls),
(1075,676,o),
(1151,600,o),
(1151,457,cs),
(1151,315,o),
(1071,247,o),
(953,247,cs),
(918,247,o),
(887,253,o),
(861,265,c),
(781,-2,l),
(835,-15,o),
(894,-21,o),
(955,-21,cs)
);
}
);
width = 1508;
}
);
metricLeft = H;
metricRight = B;
unicode = 7838;
},
{
glyphname = T;
kernLeft = T;
kernRight = T;
lastChange = "2018-07-28 17:35:32 +0000";
layers = (
{
anchors = (
{
name = bottom;
pos = (639,0);
},
{
name = center;
pos = (639,735);
},
{
name = top;
pos = (639,1345);
}
);
layerId = "0331963E-C1C8-4E93-A463-84B984C1D75E";
shapes = (
{
closed = 1;
nodes = (
(827,0,l),
(827,54,l),
(664,54,l),
(664,1402,l),
(1140,1402,l),
(1140,1163,l),
(1194,1163,l),
(1194,1456,l),
(80,1456,l),
(80,1163,l),
(134,1163,l),
(134,1402,l),
(610,1402,l),
(610,54,l),
(447,54,l),
(447,0,l)
);
}
);
width = 1277;
},
{
anchors = (
{
name = bottom;
pos = (703,0);
},
{
name = center;
pos = (703,729);
},
{
name = top;
pos = (703,1376);
}
);
layerId = "B06AEEA2-953E-4FA5-BFB1-0445B6E4B274";
shapes = (
{
closed = 1;
nodes = (
(963,0,l),
(963,126,l),
(800,154,l),
(800,1307,l),
(1130,1307,l),
(1160,1105,l),
(1306,1105,l),
(1306,1456,l),
(96,1456,l),
(96,1105,l),
(244,1105,l),
(273,1307,l),
(603,1307,l),
(603,154,l),
(440,126,l),
(440,0,l)
);
}
);
width = 1406;
},
{
anchors = (
{
name = bottom;
pos = (690,0);
},
{
name = center;
pos = (690,731);
},
{
name = top;
pos = (690,1356);
}
);
layerId = "55372407-EEEC-4390-8B77-FB5958F23D2B";
shapes = (
{
closed = 1;
nodes = (
(1016,0,l),
(1016,205,l),
(864,237,l),
(864,1184,l),
(1091,1184,l),
(1099,1027,l),
(1367,1027,l),
(1367,1456,l),
(14,1456,l),
(14,1027,l),
(279,1027,l),
(288,1184,l),
(513,1184,l),
(513,237,l),
(361,205,l),
(361,0,l)
);
}
);
width = 1379;
}
);
unicode = 84;
},
{
glyphname = Tbar;
kernRight = T;
lastChange = "2018-08-01 20:26:16 +0000";
layers = (
{
layerId = "0331963E-C1C8-4E93-A463-84B984C1D75E";
shapes = (
{
ref = T;
},
{
pos = (338,-13);
ref = strokeshortcomb;
}
);
width = 1277;
},
{
layerId = "B06AEEA2-953E-4FA5-BFB1-0445B6E4B274";
shapes = (
{
ref = T;
},
{
pos = (361,-12);
ref = strokeshortcomb;
}
);
width = 1406;
},
{
layerId = "55372407-EEEC-4390-8B77-FB5958F23D2B";
shapes = (
{
ref = T;
},
{
pos = (303,-16);
ref = strokeshortcomb;
}
);
width = 1379;
},
{
associatedMasterId = "B06AEEA2-953E-4FA5-BFB1-0445B6E4B274";
layerId = "B3AF7522-6A65-4126-92FB-D7B6638C210E";
name = "Jul 26 18, 15:39";
shapes = (
{
closed = 1;
nodes = (
(1247,1134,l),
(1079,1134,l),
(1064,1301,l),
(741,1301,l),
(741,899,l),
(971,899,l),
(971,744,l),
(741,744,l),
(741,154,l),
(904,126,l),
(904,0,l),
(381,0,l),
(381,126,l),
(544,154,l),
(544,744,l),
(330,744,l),
(330,899,l),
(544,899,l),
(544,1301,l),
(220,1301,l),
(206,1134,l),
(37,1134,l),
(37,1456,l),
(1247,1456,l)
);
}
);
width = 1284;
},
{
associatedMasterId = "55372407-EEEC-4390-8B77-FB5958F23D2B";
layerId = "5DE8F081-98AF-4D09-92AB-38A280E8BD4B";
name = "Jul 28 18, 13:14";
shapes = (
{
closed = 1;
nodes = (
(1395,1027,l),
(1136,1027,l),
(1126,1188,l),
(892,1188,l),
(892,833,l),
(1084,833,l),
(1084,678,l),
(892,678,l),
(892,237,l),
(1043,205,l),
(1043,0,l),
(389,0,l),
(389,205,l),
(541,237,l),
(541,678,l),
(346,678,l),
(346,833,l),
(541,833,l),
(541,1188,l),
(309,1188,l),
(298,1027,l),
(42,1027,l),
(42,1456,l),
(1395,1456,l)
);
}
);
width = 1435;
}
);
unicode = 358;
},
{
glyphname = U;
kernLeft = U;
kernRight = J;
lastChange = "2023-10-11 13:41:42 +0000";
layers = (
{
anchors = (
{
name = bottom;
pos = (721,0);
},
{
name = ogonek;
pos = (819,0);
},
{
name = top;
pos = (721,1345);
},
{
name = topright;
pos = (1421,1456);
}
);
layerId = "0331963E-C1C8-4E93-A463-84B984C1D75E";
shapes = (
{
closed = 1;
nodes = (
(1016,-21,o),
(1218,152,o),
(1218,469,cs),
(1218,1402,l),
(1381,1402,l),
(1381,1456,l),
(1001,1456,l),
(1001,1402,l),
(1164,1402,l),
(1164,469,ls),
(1164,196,o),
(981,33,o),
(721,33,cs),
(460,33,o),
(277,196,o),
(277,469,cs),
(277,1402,l),
(440,1402,l),
(440,1456,l),
(60,1456,l),
(60,1402,l),
(223,1402,l),
(223,469,ls),
(223,153,o),
(424,-21,o),
(721,-21,cs)
);
}
);
width = 1441;
},
{
anchors = (
{
name = bottom;
pos = (761,0);
},
{
name = ogonek;
pos = (904,0);
},
{
name = top;
pos = (761,1376);
},
{
name = topright;
pos = (1502,1376);
}
);
layerId = "B06AEEA2-953E-4FA5-BFB1-0445B6E4B274";
shapes = (
{
closed = 1;
nodes = (
(1076,-21,o),
(1289,153,o),
(1289,469,cs),
(1289,1301,l),
(1452,1329,l),
(1452,1456,l),
(929,1456,l),
(929,1329,l),
(1092,1301,l),
(1092,469,ls),
(1092,248,o),
(954,137,o),
(758,137,cs),
(563,137,o),
(430,251,o),
(430,469,cs),
(430,1301,l),
(593,1329,l),
(593,1456,l),
(70,1456,l),
(70,1329,l),
(233,1301,l),
(233,469,ls),
(233,163,o),
(454,-21,o),
(755,-21,cs)
);
}
);
width = 1522;
},
{
anchors = (
{
name = bottom;
pos = (788,0);
},
{
name = ogonek;
pos = (971,0);
},
{
name = top;
pos = (788,1356);
},
{
name = topright;
pos = (1555,1456);
}
);
layerId = "55372407-EEEC-4390-8B77-FB5958F23D2B";
shapes = (
{
closed = 1;
nodes = (
(1156,-21,o),
(1406,170,o),
(1406,503,cs),
(1406,1218,l),
(1557,1250,l),
(1557,1456,l),
(905,1456,l),
(905,1250,l),
(1055,1218,l),
(1055,503,ls),
(1055,327,o),
(962,244,o),
(787,244,cs),
(616,244,o),
(521,327,o),
(521,503,cs),
(521,1218,l),
(672,1250,l),
(672,1456,l),
(20,1456,l),
(20,1250,l),
(170,1218,l),
(170,503,ls),
(170,164,o),
(412,-21,o),
(789,-21,cs)
);
}
);
width = 1575;
}
);
unicode = 85;
},
{
glyphname = Uhorn;
lastChange = "2023-10-11 13:41:42 +0000";
layers = (
{
anchors = (
{
name = bottom;
pos = (716,0);
},
{
name = top;
pos = (716,1345);
}
);
layerId = "0331963E-C1C8-4E93-A463-84B984C1D75E";
shapes = (
{
closed = 1;
nodes = (
(1016,-21,o),
(1218,152,o),
(1218,469,c),
(1218,1456,l),
(1001,1456,l),
(1001,1402,l),
(1164,1402,l),
(1164,469,ls),
(1164,196,o),
(981,33,o),
(721,33,cs),
(460,33,o),
(277,196,o),
(277,469,cs),
(277,1402,l),
(440,1402,l),
(440,1456,l),
(60,1456,l),
(60,1402,l),
(223,1402,l),
(223,469,ls),
(223,153,o),
(424,-21,o),
(721,-21,cs)
);
},
{
closed = 1;
nodes = (
(1417,1196,o),
(1504,1312,o),
(1500,1546,c),
(1500,1551,l),
(1450,1551,l),
(1450,1344,o),
(1391,1250,o),
(1205,1256,c),
(1199,1193,l)
);
}
);
width = 1540;
},
{
anchors = (
{
name = bottom;
pos = (777,0);
},
{
name = top;
pos = (788,1376);
}
);
layerId = "B06AEEA2-953E-4FA5-BFB1-0445B6E4B274";
shapes = (
{
closed = 1;
nodes = (
(1104,-21,o),
(1330,153,o),
(1330,469,cs),
(1330,1456,l),
(970,1456,l),
(970,1329,l),
(1133,1301,l),
(1133,469,ls),
(1133,249,o),
(989,133,o),
(773,133,cs),
(568,133,o),
(431,249,o),
(431,469,cs),
(431,1301,l),
(594,1329,l),
(594,1456,l),
(70,1456,l),
(70,1329,l),
(233,1301,l),
(233,469,ls),
(233,153,o),
(452,-21,o),
(773,-21,cs)
);
},
{
closed = 1;
nodes = (
(1576,1105,o),
(1708,1258,o),
(1703,1544,c),
(1703,1549,l),
(1530,1549,l),
(1530,1345,o),
(1465,1244,o),
(1281,1250,c),
(1280,1103,l)
);
}
);
width = 1724;
},
{
anchors = (
{
name = bottom;
pos = (779,0);
},
{
name = top;
pos = (770,1356);
}
);
layerId = "55372407-EEEC-4390-8B77-FB5958F23D2B";
shapes = (
{
closed = 1;
nodes = (
(1139,-21,o),
(1383,170,o),
(1383,503,c),
(1383,1456,l),
(880,1456,l),
(880,1250,l),
(1030,1218,l),
(1030,503,ls),
(1030,326,o),
(941,246,o),
(779,246,cs),
(614,246,o),
(522,328,o),
(522,503,cs),
(522,1218,l),
(672,1250,l),
(672,1456,l),
(20,1456,l),
(20,1250,l),
(170,1218,l),
(170,503,ls),
(170,170,o),
(414,-21,o),
(779,-21,cs)
);
},
{
closed = 1;
nodes = (
(1686,976,o),
(1791,1134,o),
(1787,1452,c),
(1787,1457,l),
(1515,1457,l),
(1515,1251,o),
(1499,1175,o),
(1370,1178,c),
(1363,970,l)
);
}
);
width = 1805;
}
);
metricLeft = U;
unicode = 431;
},
{
glyphname = Uogonek;
kernLeft = U;
kernRight = J;
lastChange = "2018-12-12 20:57:42 +0000";
layers = (
{
layerId = "0331963E-C1C8-4E93-A463-84B984C1D75E";
shapes = (
{
ref = U;
},
{
pos = (551,0);
ref = ogonekcomb;
}
);
width = 1441;
},
{
layerId = "B06AEEA2-953E-4FA5-BFB1-0445B6E4B274";
shapes = (
{
ref = U;
},
{
pos = (545,0);
ref = ogonekcomb;
}
);
width = 1522;
},
{
layerId = "55372407-EEEC-4390-8B77-FB5958F23D2B";
shapes = (
{
ref = U;
},
{
pos = (548,0);
ref = ogonekcomb;
}
);
width = 1575;
},
{
anchors = (
{
name = _ogonek;
pos = (819,0);
},
{
name = bottom;
pos = (761,0);
},
{
name = ogonek;
pos = (819,0);
},
{
name = top;
pos = (761,1376);
},
{
name = topright;
pos = (1502,1376);
}
);
associatedMasterId = "B06AEEA2-953E-4FA5-BFB1-0445B6E4B274";
layerId = "21C4D838-6893-4A99-9B9D-B63EDED6FEC3";
name = "Jul 27 18, 11:23";
shapes = (
{
closed = 1;
nodes = (
(593,1329,l),
(430,1301,l),
(430,469,ls),
(430,251,o),
(563,137,o),
(758,137,cs),
(954,137,o),
(1092,248,o),
(1092,469,cs),
(1092,1301,l),
(929,1329,l),
(929,1456,l),
(1452,1456,l),
(1452,1329,l),
(1289,1301,l),
(1289,469,ls),
(1289,153,o),
(1076,-21,o),
(755,-21,cs),
(454,-21,o),
(233,163,o),
(233,469,cs),
(233,1301,l),
(70,1329,l),
(70,1456,l),
(593,1456,l)
);
},
{
closed = 1;
nodes = (
(726,-69,o),
(670,-129,o),
(670,-201,cs),
(670,-257,o),
(698,-291,o),
(766,-291,cs),
(802,-291,o),
(830,-280,o),
(865,-265,c),
(898,-388,l),
(850,-413,o),
(795,-432,o),
(715,-432,cs),
(590,-432,o),
(500,-355,o),
(500,-223,cs),
(500,-116,o),
(579,-18,o),
(748,57,c),
(819,0,l)
);
}
);
width = 1522;
},
{
associatedMasterId = "B06AEEA2-953E-4FA5-BFB1-0445B6E4B274";
layerId = "A9ACE6B2-C7F8-4060-892B-7485C45BE3E5";
name = "Dec 12 18, 15:57";
shapes = (
{
ref = U;
},
{
alignment = -1;
pos = (688,0);
ref = ogonekcomb.alt;
}
);
width = 1522;
}
);
unicode = 370;
},
{
glyphname = V;
kernLeft = V;
kernRight = V;
lastChange = "2018-07-27 22:00:07 +0000";
layers = (
{
anchors = (
{
name = bottom;
pos = (717,0);
},
{
name = top;
pos = (717,1345);
}
);
layerId = "0331963E-C1C8-4E93-A463-84B984C1D75E";
shapes = (
{
closed = 1;
nodes = (
(752,0,l),
(1276,1402,l),
(1383,1402,l),
(1383,1456,l),
(1064,1456,l),
(1064,1402,l),
(1217,1402,l),
(748,142,l),
(722,63,l),
(716,63,l),
(690,142,l),
(221,1402,l),
(374,1402,l),
(374,1456,l),
(55,1456,l),
(55,1402,l),
(162,1402,l),
(686,0,l)
);
}
);
width = 1434;
},
{
anchors = (
{
name = bottom;
pos = (754,0);
},
{
name = top;
pos = (754,1376);
}
);
layerId = "B06AEEA2-953E-4FA5-BFB1-0445B6E4B274";
shapes = (
{
closed = 1;
nodes = (
(838,0,l),
(1326,1313,l),
(1443,1329,l),
(1443,1456,l),
(984,1456,l),
(984,1329,l),
(1132,1309,l),
(794,382,l),
(758,267,l),
(752,267,l),
(718,382,l),
(392,1308,l),
(525,1329,l),
(525,1456,l),
(65,1456,l),
(65,1329,l),
(181,1313,l),
(669,0,l)
);
}
);
width = 1508;
},
{
anchors = (
{
name = bottom;
pos = (801,0);
},
{
name = top;
pos = (801,1356);
}
);
layerId = "55372407-EEEC-4390-8B77-FB5958F23D2B";
shapes = (
{
closed = 1;
nodes = (
(989,0,l),
(1397,1234,l),
(1539,1250,l),
(1539,1456,l),
(929,1456,l),
(929,1250,l),
(1085,1230,l),
(832,409,l),
(819,355,l),
(813,355,l),
(799,412,l),
(538,1230,l),
(668,1250,l),
(668,1456,l),
(15,1456,l),
(15,1250,l),
(153,1234,l),
(609,0,l)
);
}
);
width = 1552;
}
);
unicode = 86;
userData = {
com.typemytype.robofont.layerData = {
mask = {
anchors = (
);
components = (
);
contours = (
{
points = (
{
segmentType = line;
smooth = 0;
x = 364;
y = 1402;
},
{
segmentType = line;
smooth = 0;
x = 221;
y = 1402;
},
{
segmentType = line;
smooth = 0;
x = 690;
y = 142;
},
{
segmentType = line;
smooth = 0;
x = 716;
y = 63;
},
{
segmentType = line;
smooth = 0;
x = 722;
y = 63;
},
{
segmentType = line;
smooth = 0;
x = 748;
y = 142;
},
{
segmentType = line;
smooth = 0;
x = 1217;
y = 1402;
},
{
segmentType = line;
smooth = 0;
x = 1074;
y = 1402;
},
{
segmentType = line;
smooth = 0;
x = 1074;
y = 1456;
},
{
segmentType = line;
smooth = 0;
x = 1383;
y = 1456;
},
{
segmentType = line;
smooth = 0;
x = 1383;
y = 1402;
},
{
segmentType = line;
smooth = 0;
x = 1276;
y = 1402;
},
{
segmentType = line;
smooth = 0;
x = 752;
y = 0;
},
{
segmentType = line;
smooth = 0;
x = 686;
y = 0;
},
{
segmentType = line;
smooth = 0;
x = 162;
y = 1402;
},
{
segmentType = line;
smooth = 0;
x = 55;
y = 1402;
},
{
segmentType = line;
smooth = 0;
x = 55;
y = 1456;
},
{
segmentType = line;
smooth = 0;
x = 364;
y = 1456;
}
);
}
);
lib = {
};
name = V;
unicodes = (
);
width = 1434;
};
};
com.typemytype.robofont.mark = (
1,
0.1703,
0.1669,
0.8287
);
};
},
{
glyphname = W;
kernLeft = W;
kernRight = W;
lastChange = "2018-08-31 13:58:18 +0000";
layers = (
{
anchors = (
{
name = bottom;
pos = (1013,0);
},
{
name = top;
pos = (1013,1345);
}
);
layerId = "0331963E-C1C8-4E93-A463-84B984C1D75E";
shapes = (
{
closed = 1;
nodes = (
(578,0,l),
(962,1214,l),
(1008,1359,l),
(1014,1359,l),
(1062,1214,l),
(1443,0,l),
(1504,0,l),
(1862,1402,l),
(1963,1402,l),
(1963,1456,l),
(1644,1456,l),
(1644,1402,l),
(1803,1402,l),
(1537,330,l),
(1472,101,l),
(1466,101,l),
(1404,330,l),
(1042,1456,l),
(982,1456,l),
(618,330,l),
(555,101,l),
(549,101,l),
(486,330,l),
(217,1402,l),
(377,1402,l),
(377,1456,l),
(57,1456,l),
(57,1402,l),
(158,1402,l),
(517,0,l)
);
}
);
width = 2000;
},
{
anchors = (
{
name = bottom;
pos = (1065,0);
},
{
name = top;
pos = (1065,1376);
}
);
layerId = "B06AEEA2-953E-4FA5-BFB1-0445B6E4B274";
shapes = (
{
closed = 1;
nodes = (
(711,0,l),
(1028,1008,l),
(1067,1155,l),
(1073,1155,l),
(1113,1008,l),
(1429,0,l),
(1616,0,l),
(1942,1314,l),
(2057,1329,l),
(2057,1456,l),
(1593,1456,l),
(1593,1329,l),
(1756,1306,l),
(1568,504,l),
(1516,306,l),
(1510,306,l),
(1453,504,l),
(1157,1456,l),
(984,1456,l),
(691,504,l),
(633,317,l),
(627,318,l),
(583,505,l),
(393,1306,l),
(544,1329,l),
(544,1456,l),
(72,1456,l),
(72,1329,l),
(195,1314,l),
(535,0,l)
);
}
);
width = 2129;
},
{
anchors = (
{
name = bottom;
pos = (1124,0);
},
{
name = top;
pos = (1124,1356);
}
);
layerId = "55372407-EEEC-4390-8B77-FB5958F23D2B";
shapes = (
{
closed = 1;
nodes = (
(835,0,l),
(1090,747,l),
(1129,857,l),
(1135,857,l),
(1166,753,l),
(1417,0,l),
(1730,0,l),
(2081,1235,l),
(2236,1250,l),
(2236,1456,l),
(1592,1456,l),
(1592,1250,l),
(1759,1227,l),
(1589,536,l),
(1572,473,l),
(1566,473,l),
(1545,536,l),
(1245,1456,l),
(1003,1456,l),
(718,577,l),
(694,482,l),
(688,482,l),
(665,576,l),
(506,1227,l),
(668,1250,l),
(668,1456,l),
(11,1456,l),
(11,1250,l),
(176,1235,l),
(512,0,l)
);
}
);
width = 2247;
}
);
unicode = 87;
userData = {
com.typemytype.robofont.layerData = {
mask = {
anchors = (
);
components = (
);
contours = (
{
points = (
{
segmentType = line;
smooth = 0;
x = 1963;
y = 1402;
},
{
segmentType = line;
smooth = 0;
x = 1862;
y = 1402;
},
{
segmentType = line;
smooth = 0;
x = 1504;
y = 0;
},
{
segmentType = line;
smooth = 0;
x = 1443;
y = 0;
},
{
segmentType = line;
smooth = 0;
x = 1062;
y = 1214;
},
{
segmentType = line;
smooth = 0;
x = 1014;
y = 1359;
},
{
segmentType = line;
smooth = 0;
x = 1008;
y = 1359;
},
{
segmentType = line;
smooth = 0;
x = 962;
y = 1214;
},
{
segmentType = line;
smooth = 0;
x = 578;
y = 0;
},
{
segmentType = line;
smooth = 0;
x = 517;
y = 0;
},
{
segmentType = line;
smooth = 0;
x = 158;
y = 1402;
},
{
segmentType = line;
smooth = 0;
x = 57;
y = 1402;
},
{
segmentType = line;
smooth = 0;
x = 57;
y = 1456;
},
{
segmentType = line;
smooth = 0;
x = 367;
y = 1456;
},
{
segmentType = line;
smooth = 0;
x = 367;
y = 1402;
},
{
segmentType = line;
smooth = 0;
x = 217;
y = 1402;
},
{
segmentType = line;
smooth = 0;
x = 486;
y = 330;
},
{
segmentType = line;
smooth = 0;
x = 549;
y = 101;
},
{
segmentType = line;
smooth = 0;
x = 555;
y = 101;
},
{
segmentType = line;
smooth = 0;
x = 618;
y = 330;
},
{
segmentType = line;
smooth = 0;
x = 982;
y = 1456;
},
{
segmentType = line;
smooth = 0;
x = 1042;
y = 1456;
},
{
segmentType = line;
smooth = 0;
x = 1404;
y = 330;
},
{
segmentType = line;
smooth = 0;
x = 1466;
y = 101;
},
{
segmentType = line;
smooth = 0;
x = 1472;
y = 101;
},
{
segmentType = line;
smooth = 0;
x = 1537;
y = 330;
},
{
segmentType = line;
smooth = 0;
x = 1803;
y = 1402;
},
{
segmentType = line;
smooth = 0;
x = 1654;
y = 1402;
},
{
segmentType = line;
smooth = 0;
x = 1654;
y = 1456;
},
{
segmentType = line;
smooth = 0;
x = 1963;
y = 1456;
}
);
}
);
lib = {
};
name = W;
unicodes = (
);
width = 2000;
};
};
com.typemytype.robofont.mark = (
1,
0.1703,
0.1669,
0.8287
);
};
},
{
glyphname = X;
kernLeft = Chi;
kernRight = Chi;
lastChange = "2018-07-28 20:14:58 +0000";
layers = (
{
anchors = (
{
name = bottom;
pos = (692,0);
},
{
name = top;
pos = (692,1345);
}
);
layerId = "0331963E-C1C8-4E93-A463-84B984C1D75E";
shapes = (
{
closed = 1;
nodes = (
(403,0,l),
(403,54,l),
(238,54,l),
(691,701,l),
(1145,54,l),
(980,54,l),
(980,0,l),
(1327,0,l),
(1327,54,l),
(1212,54,l),
(726,743,l),
(1191,1402,l),
(1306,1402,l),
(1306,1456,l),
(959,1456,l),
(959,1402,l),
(1124,1402,l),
(691,785,l),
(259,1402,l),
(425,1402,l),
(425,1456,l),
(77,1456,l),
(77,1402,l),
(192,1402,l),
(658,743,l),
(172,54,l),
(57,54,l),
(57,0,l)
);
}
);
width = 1384;
},
{
anchors = (
{
name = bottom;
pos = (765,0);
},
{
name = top;
pos = (765,1376);
}
);
layerId = "B06AEEA2-953E-4FA5-BFB1-0445B6E4B274";
shapes = (
{
closed = 1;
nodes = (
(556,0,l),
(556,126,l),
(423,139,l),
(767,612,l),
(1112,139,l),
(971,126,l),
(971,0,l),
(1449,0,l),
(1449,126,l),
(1320,148,l),
(882,739,l),
(1277,1307,l),
(1410,1329,l),
(1410,1456,l),
(935,1456,l),
(935,1329,l),
(1075,1316,l),
(769,867,l),
(447,1316,l),
(584,1329,l),
(584,1456,l),
(112,1456,l),
(112,1329,l),
(239,1307,l),
(657,739,l),
(206,148,l),
(80,126,l),
(80,0,l)
);
}
);
width = 1529;
},
{
anchors = (
{
name = bottom;
pos = (753,0);
},
{
name = top;
pos = (753,1356);
}
);
layerId = "55372407-EEEC-4390-8B77-FB5958F23D2B";
shapes = (
{
closed = 1;
nodes = (
(623,0,l),
(623,205,l),
(508,217,l),
(741,523,l),
(965,217,l),
(849,205,l),
(849,0,l),
(1497,0,l),
(1497,205,l),
(1353,232,l),
(947,752,l),
(1306,1223,l),
(1432,1250,l),
(1432,1456,l),
(818,1456,l),
(818,1250,l),
(951,1237,l),
(737,948,l),
(531,1237,l),
(671,1250,l),
(671,1456,l),
(42,1456,l),
(42,1250,l),
(154,1223,l),
(524,710,l),
(137,231,l),
(8,205,l),
(8,0,l)
);
}
);
width = 1505;
}
);
unicode = 88;
userData = {
com.typemytype.robofont.layerData = {
mask = {
anchors = (
);
components = (
);
contours = (
{
points = (
{
segmentType = line;
smooth = 0;
x = 57;
y = 54;
},
{
segmentType = line;
smooth = 0;
x = 172;
y = 54;
},
{
segmentType = line;
smooth = 0;
x = 658;
y = 743;
},
{
segmentType = line;
smooth = 0;
x = 192;
y = 1402;
},
{
segmentType = line;
smooth = 0;
x = 77;
y = 1402;
},
{
segmentType = line;
smooth = 0;
x = 77;
y = 1456;
},
{
segmentType = line;
smooth = 0;
x = 415;
y = 1456;
},
{
segmentType = line;
smooth = 0;
x = 415;
y = 1402;
},
{
segmentType = line;
smooth = 0;
x = 259;
y = 1402;
},
{
segmentType = line;
smooth = 0;
x = 691;
y = 785;
},
{
segmentType = line;
smooth = 0;
x = 1124;
y = 1402;
},
{
segmentType = line;
smooth = 0;
x = 969;
y = 1402;
},
{
segmentType = line;
smooth = 0;
x = 969;
y = 1456;
},
{
segmentType = line;
smooth = 0;
x = 1306;
y = 1456;
},
{
segmentType = line;
smooth = 0;
x = 1306;
y = 1402;
},
{
segmentType = line;
smooth = 0;
x = 1191;
y = 1402;
},
{
segmentType = line;
smooth = 0;
x = 726;
y = 743;
},
{
segmentType = line;
smooth = 0;
x = 1212;
y = 54;
},
{
segmentType = line;
smooth = 0;
x = 1327;
y = 54;
},
{
segmentType = line;
smooth = 0;
x = 1327;
y = 0;
},
{
segmentType = line;
smooth = 0;
x = 990;
y = 0;
},
{
segmentType = line;
smooth = 0;
x = 990;
y = 54;
},
{
segmentType = line;
smooth = 0;
x = 1145;
y = 54;
},
{
segmentType = line;
smooth = 0;
x = 691;
y = 701;
},
{
segmentType = line;
smooth = 0;
x = 238;
y = 54;
},
{
segmentType = line;
smooth = 0;
x = 393;
y = 54;
},
{
segmentType = line;
smooth = 0;
x = 393;
y = 0;
},
{
segmentType = line;
smooth = 0;
x = 57;
y = 0;
}
);
}
);
lib = {
};
name = X;
unicodes = (
);
width = 1384;
};
};
com.typemytype.robofont.mark = (
1,
0.1703,
0.1669,
0.8287
);
};
},
{
glyphname = Y;
kernLeft = Upsilon;
kernRight = Upsilon;
lastChange = "2018-07-27 21:54:15 +0000";
layers = (
{
anchors = (
{
name = bottom;
pos = (715,0);
},
{
name = top;
pos = (715,1345);
},
{
name = topleft;
pos = (20,1456);
}
);
layerId = "0331963E-C1C8-4E93-A463-84B984C1D75E";
shapes = (
{
closed = 1;
nodes = (
(907,0,l),
(907,54,l),
(744,54,l),
(744,553,l),
(1258,1402,l),
(1378,1402,l),
(1378,1456,l),
(1052,1456,l),
(1052,1402,l),
(1193,1402,l),
(742,647,l),
(716,599,l),
(715,597,l),
(689,647,l),
(240,1402,l),
(381,1402,l),
(381,1456,l),
(55,1456,l),
(55,1402,l),
(174,1402,l),
(689,553,l),
(689,54,l),
(526,54,l),
(526,0,l)
);
}
);
width = 1429;
},
{
anchors = (
{
name = bottom;
pos = (731,0);
},
{
name = top;
pos = (731,1376);
},
{
name = topleft;
pos = (20,1376);
}
);
layerId = "B06AEEA2-953E-4FA5-BFB1-0445B6E4B274";
shapes = (
{
closed = 1;
nodes = (
(992,0,l),
(992,126,l),
(829,154,l),
(829,545,l),
(1269,1310,l),
(1396,1329,l),
(1396,1456,l),
(904,1456,l),
(904,1329,l),
(1076,1310,l),
(752,738,l),
(732,701,l),
(731,699,l),
(710,738,l),
(401,1310,l),
(567,1329,l),
(567,1456,l),
(65,1456,l),
(65,1329,l),
(185,1310,l),
(633,530,l),
(633,154,l),
(470,126,l),
(470,0,l)
);
}
);
width = 1461;
},
{
anchors = (
{
name = bottom;
pos = (769,0);
},
{
name = top;
pos = (769,1356);
},
{
name = topleft;
pos = (20,1356);
}
);
layerId = "55372407-EEEC-4390-8B77-FB5958F23D2B";
shapes = (
{
closed = 1;
nodes = (
(1094,0,l),
(1094,205,l),
(942,237,l),
(942,508,l),
(1360,1229,l),
(1514,1250,l),
(1514,1456,l),
(896,1456,l),
(896,1250,l),
(1048,1234,l),
(814,832,l),
(790,784,l),
(781,784,l),
(758,835,l),
(558,1234,l),
(648,1250,l),
(648,1456,l),
(18,1456,l),
(18,1250,l),
(170,1229,l),
(592,480,l),
(592,237,l),
(441,205,l),
(441,0,l)
);
}
);
width = 1537;
}
);
unicode = 89;
userData = {
com.typemytype.robofont.mark = (
1,
0.1703,
0.1669,
0.8287
);
};
},
{
glyphname = Z;
kernLeft = Z;
kernRight = Z;
lastChange = "2018-07-27 21:54:15 +0000";
layers = (
{
anchors = (
{
name = bottom;
pos = (610,0);
},
{
name = top;
pos = (610,1345);
}
);
layerId = "0331963E-C1C8-4E93-A463-84B984C1D75E";
shapes = (
{
closed = 1;
nodes = (
(1128,0,l),
(1128,293,l),
(1074,293,l),
(1074,54,l),
(166,54,l),
(1096,1418,l),
(1096,1456,l),
(132,1456,l),
(132,1163,l),
(186,1163,l),
(186,1403,l),
(1021,1403,l),
(92,44,l),
(92,0,l)
);
}
);
width = 1220;
},
{
anchors = (
{
name = bottom;
pos = (599,0);
},
{
name = top;
pos = (585,1376);
}
);
layerId = "B06AEEA2-953E-4FA5-BFB1-0445B6E4B274";
shapes = (
{
closed = 1;
nodes = (
(1107,0,l),
(1107,360,l),
(950,360,l),
(932,153,l),
(313,153,l),
(1074,1311,l),
(1074,1456,l),
(105,1456,l),
(105,1114,l),
(263,1114,l),
(281,1302,l),
(847,1302,l),
(90,149,l),
(90,0,l)
);
}
);
width = 1197;
},
{
anchors = (
{
name = bottom;
pos = (622,0);
},
{
name = top;
pos = (622,1356);
}
);
layerId = "55372407-EEEC-4390-8B77-FB5958F23D2B";
shapes = (
{
closed = 1;
nodes = (
(1201,0,l),
(1230,441,l),
(968,441,l),
(940,268,l),
(503,268,l),
(1186,1245,l),
(1186,1456,l),
(108,1456,l),
(89,1002,l),
(352,1002,l),
(378,1187,l),
(745,1187,l),
(64,219,l),
(64,0,l)
);
}
);
width = 1244;
}
);
unicode = 90;
},
{
glyphname = C.ss03;
lastChange = "2023-10-11 13:41:42 +0000";
layers = (
{
layerId = "0331963E-C1C8-4E93-A463-84B984C1D75E";
shapes = (
{
closed = 1;
nodes = (
(864,-21,o),
(1053,75,o),
(1150,230,c),
(1150,504,l),
(1095,504,l),
(1095,250,l),
(1007,118,o),
(843,33,o),
(651,33,cs),
(366,33,o),
(168,267,o),
(168,619,cs),
(168,839,ls),
(168,1192,o),
(356,1423,o),
(661,1423,cs),
(852,1423,o),
(1006,1346,o),
(1095,1226,c),
(1095,922,l),
(1150,922,l),
(1150,1246,l),
(1051,1389,o),
(872,1477,o),
(661,1477,cs),
(321,1477,o),
(114,1222,o),
(114,837,cs),
(114,619,ls),
(114,238,o),
(331,-21,o),
(651,-21,cs)
);
}
);
width = 1266;
},
{
layerId = "B06AEEA2-953E-4FA5-BFB1-0445B6E4B274";
shapes = (
{
closed = 1;
nodes = (
(893,-21,o),
(1069,80,o),
(1152,188,c),
(1152,496,l),
(1014,496,l),
(957,241,l),
(902,180,o),
(795,133,o),
(672,133,cs),
(452,133,o),
(311,333,o),
(311,598,cs),
(311,859,ls),
(311,1122,o),
(468,1322,o),
(711,1322,cs),
(832,1322,o),
(918,1269,o),
(977,1196,c),
(1034,958,l),
(1192,958,l),
(1192,1268,l),
(1104,1375,o),
(921,1477,o),
(692,1477,cs),
(351,1477,o),
(114,1216,o),
(114,857,cs),
(114,598,ls),
(114,238,o),
(341,-21,o),
(672,-21,cs)
);
}
);
width = 1283;
},
{
layerId = "55372407-EEEC-4390-8B77-FB5958F23D2B";
shapes = (
{
closed = 1;
nodes = (
(913,-21,o),
(1107,57,o),
(1246,211,c),
(1246,540,l),
(982,540,l),
(910,288,l),
(870,261,o),
(793,246,o),
(709,246,cs),
(524,246,o),
(423,375,o),
(423,574,cs),
(423,883,ls),
(423,1077,o),
(528,1209,o),
(701,1209,cs),
(790,1209,o),
(860,1193,o),
(906,1167,c),
(979,883,l),
(1237,883,l),
(1237,1244,l),
(1098,1396,o),
(908,1477,o),
(681,1477,cs),
(320,1477,o),
(73,1231,o),
(73,881,cs),
(73,574,ls),
(73,222,o),
(322,-21,o),
(685,-21,cs)
);
}
);
width = 1278;
}
);
},
{
glyphname = G.ss03;
lastChange = "2023-10-11 13:41:42 +0000";
layers = (
{
layerId = "0331963E-C1C8-4E93-A463-84B984C1D75E";
shapes = (
{
closed = 1;
nodes = (
(928,-21,o),
(1111,71,o),
(1172,156,c),
(1172,620,l),
(803,620,l),
(803,565,l),
(1118,565,l),
(1118,181,l),
(1063,109,o),
(890,33,o),
(675,33,cs),
(370,33,o),
(168,273,o),
(168,620,cs),
(168,860,ls),
(168,1191,o),
(371,1423,o),
(678,1423,cs),
(882,1423,o),
(1035,1355,o),
(1124,1226,c),
(1124,972,l),
(1177,972,l),
(1177,1246,l),
(1077,1398,o),
(903,1477,o),
(678,1477,cs),
(345,1477,o),
(114,1223,o),
(114,858,cs),
(114,620,ls),
(114,240,o),
(342,-21,o),
(675,-21,cs)
);
}
);
width = 1373;
},
{
layerId = "B06AEEA2-953E-4FA5-BFB1-0445B6E4B274";
shapes = (
{
closed = 1;
nodes = (
(987,-21,o),
(1159,86,o),
(1228,193,c),
(1228,687,l),
(793,687,l),
(793,542,l),
(1031,532,l),
(1031,241,l),
(986,185,o),
(880,133,o),
(715,133,cs),
(480,133,o),
(311,319,o),
(311,578,cs),
(311,880,ls),
(311,1136,o),
(477,1322,o),
(722,1322,cs),
(845,1322,o),
(931,1288,o),
(987,1239,c),
(1045,989,l),
(1202,989,l),
(1202,1273,l),
(1097,1402,o),
(927,1477,o),
(702,1477,cs),
(355,1477,o),
(114,1231,o),
(114,878,cs),
(114,578,ls),
(114,225,o),
(367,-21,o),
(715,-21,cs)
);
}
);
width = 1385;
},
{
layerId = "55372407-EEEC-4390-8B77-FB5958F23D2B";
shapes = (
{
closed = 1;
nodes = (
(966,-21,o),
(1154,63,o),
(1256,161,c),
(1256,732,l),
(714,732,l),
(714,490,l),
(903,469,l),
(903,277,l),
(860,257,o),
(799,246,o),
(681,246,cs),
(518,246,o),
(423,379,o),
(423,575,cs),
(423,883,ls),
(423,1077,o),
(530,1209,o),
(691,1209,cs),
(764,1209,o),
(826,1192,o),
(861,1164,c),
(956,945,l),
(1265,945,l),
(1228,1265,l),
(1099,1399,o),
(897,1477,o),
(671,1477,cs),
(318,1477,o),
(73,1232,o),
(73,881,cs),
(73,575,ls),
(73,221,o),
(320,-21,o),
(681,-21,cs)
);
}
);
width = 1304;
}
);
},
{
glyphname = S.ss03;
lastChange = "2023-10-11 13:41:42 +0000";
layers = (
{
layerId = "0331963E-C1C8-4E93-A463-84B984C1D75E";
shapes = (
{
closed = 1;
nodes = (
(897,-21,o),
(1108,120,o),
(1108,351,cs),
(1108,578,o),
(942,685,o),
(619,770,cs),
(286,855,o),
(178,957,o),
(178,1122,cs),
(178,1287,o),
(343,1423,o),
(607,1423,cs),
(862,1423,o),
(1038,1263,o),
(1038,1046,c),
(1084,1046,l),
(1086,1052,l),
(1091,1301,o),
(891,1477,o),
(607,1477,cs),
(326,1477,o),
(124,1337,o),
(124,1120,cs),
(124,901,o),
(272,807,o),
(604,718,cs),
(935,627,o),
(1053,532,o),
(1053,349,cs),
(1053,162,o),
(870,33,o),
(614,33,cs),
(359,33,o),
(131,146,o),
(131,410,c),
(86,410,l),
(84,404,l),
(77,111,o),
(322,-21,o),
(614,-21,cs)
);
}
);
width = 1231;
},
{
layerId = "B06AEEA2-953E-4FA5-BFB1-0445B6E4B274";
shapes = (
{
closed = 1;
nodes = (
(941,-21,o),
(1152,134,o),
(1152,369,cs),
(1152,588,o),
(989,736,o),
(682,812,cs),
(427,876,o),
(321,955,o),
(321,1082,cs),
(321,1225,o),
(429,1322,o),
(625,1322,cs),
(836,1322,o),
(952,1207,o),
(952,1036,c),
(1140,1036,l),
(1142,1042,l),
(1149,1273,o),
(944,1477,o),
(625,1477,cs),
(329,1477,o),
(124,1306,o),
(124,1079,cs),
(124,863,o),
(306,721,o),
(614,648,cs),
(869,587,o),
(954,500,o),
(954,367,cs),
(954,223,o),
(831,133,o),
(632,133,cs),
(429,133,o),
(274,232,o),
(274,419,c),
(86,419,l),
(84,413,l),
(77,149,o),
(341,-21,o),
(632,-21,cs)
);
}
);
width = 1248;
},
{
layerId = "55372407-EEEC-4390-8B77-FB5958F23D2B";
shapes = (
{
closed = 1;
nodes = (
(984,-21,o),
(1202,132,o),
(1202,390,cs),
(1202,641,o),
(1030,773,o),
(700,870,cs),
(495,945,o),
(430,981,o),
(430,1063,cs),
(430,1149,o),
(508,1213,o),
(640,1213,cs),
(772,1213,o),
(853,1137,o),
(853,1025,c),
(1193,1025,l),
(1195,1031,l),
(1202,1292,o),
(969,1477,o),
(646,1477,cs),
(320,1477,o),
(80,1312,o),
(80,1066,cs),
(80,813,o),
(258,705,o),
(627,588,cs),
(791,529,o),
(850,487,o),
(850,388,cs),
(850,300,o),
(789,242,o),
(653,242,cs),
(472,242,o),
(387,306,o),
(387,471,c),
(45,471,l),
(43,465,l),
(37,151,o),
(321,-21,o),
(653,-21,cs)
);
}
);
width = 1238;
}
);
},
{
glyphname = C.ss04;
lastChange = "2023-10-11 13:41:42 +0000";
layers = (
{
layerId = "0331963E-C1C8-4E93-A463-84B984C1D75E";
shapes = (
{
closed = 1;
nodes = (
(940,-21,o),
(1130,137,o),
(1154,440,c),
(1152,446,l),
(1106,446,l),
(1075,166,o),
(916,33,o),
(641,33,cs),
(357,33,o),
(168,266,o),
(168,619,cs),
(168,839,ls),
(168,1188,o),
(357,1423,o),
(641,1423,cs),
(916,1423,o),
(1075,1279,o),
(1106,1012,c),
(1152,1012,l),
(1154,1018,l),
(1130,1317,o),
(938,1477,o),
(641,1477,cs),
(322,1477,o),
(114,1218,o),
(114,837,cs),
(114,619,ls),
(114,236,o),
(322,-21,o),
(641,-21,cs)
);
}
);
width = 1266;
},
{
layerId = "B06AEEA2-953E-4FA5-BFB1-0445B6E4B274";
shapes = (
{
closed = 1;
nodes = (
(988,-21,o),
(1181,179,o),
(1206,460,c),
(1204,466,l),
(1015,466,l),
(983,247,o),
(884,133,o),
(672,133,cs),
(452,133,o),
(311,333,o),
(311,598,cs),
(311,859,ls),
(311,1122,o),
(452,1322,o),
(672,1322,cs),
(883,1322,o),
(983,1206,o),
(1015,991,c),
(1204,991,l),
(1206,997,l),
(1181,1294,o),
(993,1477,o),
(672,1477,cs),
(343,1477,o),
(114,1216,o),
(114,857,cs),
(114,598,ls),
(114,238,o),
(341,-21,o),
(672,-21,cs)
);
}
);
width = 1283;
},
{
layerId = "55372407-EEEC-4390-8B77-FB5958F23D2B";
shapes = (
{
closed = 1;
nodes = (
(1046,-21,o),
(1237,165,o),
(1250,507,c),
(1248,513,l),
(906,513,l),
(900,327,o),
(843,246,o),
(697,246,cs),
(523,246,o),
(423,378,o),
(423,574,cs),
(423,883,ls),
(423,1077,o),
(514,1209,o),
(673,1209,cs),
(839,1209,o),
(902,1119,o),
(908,933,c),
(1251,933,l),
(1253,939,l),
(1228,1284,o),
(1034,1477,o),
(673,1477,cs),
(312,1477,o),
(73,1231,o),
(73,881,cs),
(73,574,ls),
(73,222,o),
(322,-21,o),
(697,-21,cs)
);
}
);
width = 1278;
}
);
},
{
glyphname = G.ss04;
lastChange = "2023-10-11 13:41:42 +0000";
layers = (
{
layerId = "0331963E-C1C8-4E93-A463-84B984C1D75E";
shapes = (
{
closed = 1;
nodes = (
(928,-21,o),
(1111,71,o),
(1172,156,c),
(1172,630,l),
(823,630,l),
(823,575,l),
(1118,575,l),
(1118,181,l),
(1063,109,o),
(890,33,o),
(675,33,cs),
(370,33,o),
(168,273,o),
(168,620,cs),
(168,860,ls),
(168,1191,o),
(363,1423,o),
(658,1423,cs),
(939,1423,o),
(1081,1274,o),
(1116,1063,c),
(1161,1063,l),
(1163,1069,l),
(1142,1308,o),
(959,1477,o),
(658,1477,cs),
(335,1477,o),
(114,1223,o),
(114,858,cs),
(114,620,ls),
(114,240,o),
(342,-21,o),
(675,-21,cs)
);
}
);
width = 1373;
},
{
layerId = "B06AEEA2-953E-4FA5-BFB1-0445B6E4B274";
shapes = (
{
closed = 1;
nodes = (
(987,-21,o),
(1159,86,o),
(1228,193,c),
(1228,687,l),
(793,687,l),
(793,542,l),
(1031,533,l),
(1031,241,l),
(986,185,o),
(880,133,o),
(715,133,cs),
(480,133,o),
(311,319,o),
(311,578,cs),
(311,880,ls),
(311,1136,o),
(461,1322,o),
(682,1322,cs),
(897,1322,o),
(996,1208,o),
(1031,1032,c),
(1219,1032,l),
(1221,1038,l),
(1186,1303,o),
(1009,1477,o),
(682,1477,cs),
(347,1477,o),
(114,1231,o),
(114,878,cs),
(114,578,ls),
(114,225,o),
(367,-21,o),
(715,-21,cs)
);
}
);
width = 1385;
},
{
layerId = "55372407-EEEC-4390-8B77-FB5958F23D2B";
shapes = (
{
closed = 1;
nodes = (
(966,-21,o),
(1154,63,o),
(1256,161,c),
(1256,742,l),
(749,742,l),
(749,532,l),
(903,510,l),
(903,277,l),
(860,257,o),
(799,246,o),
(681,246,cs),
(518,246,o),
(423,379,o),
(423,575,cs),
(423,883,ls),
(423,1077,o),
(523,1209,o),
(676,1209,cs),
(828,1209,o),
(894,1132,o),
(916,982,c),
(1245,982,l),
(1247,988,l),
(1223,1290,o),
(1043,1477,o),
(664,1477,cs),
(319,1477,o),
(73,1232,o),
(73,881,cs),
(73,575,ls),
(73,221,o),
(320,-21,o),
(681,-21,cs)
);
}
);
width = 1304;
}
);
},
{
glyphname = O.ss04;
lastChange = "2023-10-11 13:41:42 +0000";
layers = (
{
layerId = "0331963E-C1C8-4E93-A463-84B984C1D75E";
shapes = (
{
closed = 1;
nodes = (
(1005,-21,o),
(1212,226,o),
(1212,619,cs),
(1212,837,ls),
(1212,1229,o),
(1003,1477,o),
(662,1477,cs),
(319,1477,o),
(114,1229,o),
(114,837,cs),
(114,619,ls),
(114,226,o),
(321,-21,o),
(664,-21,cs)
);
},
{
closed = 1;
nodes = (
(347,33,o),
(169,259,o),
(169,619,cs),
(169,839,ls),
(169,1196,o),
(346,1423,o),
(662,1423,cs),
(979,1423,o),
(1158,1196,o),
(1158,839,cs),
(1158,619,ls),
(1158,258,o),
(981,33,o),
(664,33,cs)
);
}
);
width = 1372;
},
{
layerId = "B06AEEA2-953E-4FA5-BFB1-0445B6E4B274";
shapes = (
{
closed = 1;
nodes = (
(1040,-21,o),
(1283,242,o),
(1283,598,cs),
(1283,857,ls),
(1283,1213,o),
(1040,1477,o),
(688,1477,cs),
(348,1477,o),
(114,1212,o),
(114,857,cs),
(114,598,ls),
(114,242,o),
(348,-21,o),
(688,-21,cs)
);
},
{
closed = 1;
nodes = (
(457,140,o),
(311,329,o),
(311,598,cs),
(311,859,ls),
(311,1126,o),
(457,1315,o),
(688,1315,cs),
(931,1315,o),
(1086,1126,o),
(1086,859,cs),
(1086,598,ls),
(1086,327,o),
(932,140,o),
(688,140,cs)
);
}
);
width = 1403;
},
{
layerId = "55372407-EEEC-4390-8B77-FB5958F23D2B";
shapes = (
{
closed = 1;
nodes = (
(1066,-21,o),
(1317,236,o),
(1317,596,cs),
(1317,860,ls),
(1317,1216,o),
(1063,1477,o),
(696,1477,cs),
(326,1477,o),
(73,1217,o),
(73,860,cs),
(73,596,ls),
(73,238,o),
(327,-21,o),
(699,-21,cs)
);
},
{
closed = 1;
nodes = (
(521,247,o),
(423,390,o),
(423,596,cs),
(423,862,ls),
(423,1064,o),
(519,1208,o),
(696,1208,cs),
(870,1208,o),
(968,1064,o),
(968,862,cs),
(968,596,ls),
(968,391,o),
(872,247,o),
(699,247,cs)
);
}
);
width = 1372;
}
);
},
{
color = 4;
glyphname = D.ss05;
kernRight = D;
lastChange = "2023-10-11 13:41:42 +0000";
layers = (
{
layerId = "55372407-EEEC-4390-8B77-FB5958F23D2B";
shapes = (
{
closed = 1;
nodes = (
(742,0,ls),
(1083,0,o),
(1343,234,o),
(1343,588,cs),
(1343,867,ls),
(1343,1214,o),
(1089,1456,o),
(748,1456,cs),
(191,1456,l),
(40,1456,l),
(40,1250,l),
(191,1218,l),
(191,237,l),
(40,205,l),
(40,0,l)
);
},
{
closed = 1;
nodes = (
(542,1188,l),
(724,1188,ls),
(896,1188,o),
(990,1064,o),
(990,869,cs),
(990,588,ls),
(990,384,o),
(896,267,o),
(724,267,cs),
(542,267,l)
);
}
);
width = 1443;
},
{
layerId = "B06AEEA2-953E-4FA5-BFB1-0445B6E4B274";
shapes = (
{
closed = 1;
nodes = (
(661,0,ls),
(1041,0,o),
(1294,275,o),
(1294,638,cs),
(1294,817,ls),
(1294,1188,o),
(1031,1456,o),
(651,1456,cs),
(244,1456,l),
(81,1456,l),
(81,1329,l),
(244,1301,l),
(244,154,l),
(81,126,l),
(81,0,l)
);
},
{
closed = 1;
nodes = (
(441,1301,l),
(651,1301,ls),
(920,1301,o),
(1097,1094,o),
(1097,819,cs),
(1097,638,ls),
(1097,371,o),
(920,154,o),
(651,154,cs),
(441,154,l)
);
}
);
width = 1359;
},
{
layerId = "0331963E-C1C8-4E93-A463-84B984C1D75E";
shapes = (
{
closed = 1;
nodes = (
(637,0,ls),
(972,0,o),
(1238,266,o),
(1238,639,cs),
(1238,817,ls),
(1238,1189,o),
(972,1456,o),
(637,1456,cs),
(234,1456,l),
(71,1456,l),
(71,1402,l),
(234,1402,l),
(234,54,l),
(71,54,l),
(71,0,l)
);
},
{
closed = 1;
nodes = (
(288,1402,l),
(637,1402,ls),
(940,1402,o),
(1184,1153,o),
(1184,820,cs),
(1184,639,ls),
(1184,302,o),
(940,54,o),
(637,54,cs),
(288,54,l)
);
}
);
width = 1386;
}
);
},
{
color = 4;
glyphname = Dcroat.ss05;
kernRight = D;
lastChange = "2023-10-11 13:41:42 +0000";
layers = (
{
layerId = "0331963E-C1C8-4E93-A463-84B984C1D75E";
shapes = (
{
closed = 1;
nodes = (
(667,0,ls),
(1002,0,o),
(1268,266,o),
(1268,639,cs),
(1268,817,ls),
(1268,1189,o),
(1002,1456,o),
(667,1456,cs),
(101,1456,l),
(101,1402,l),
(264,1402,l),
(264,767,l),
(136,767,l),
(136,713,l),
(264,713,l),
(264,54,l),
(101,54,l),
(101,0,l)
);
},
{
closed = 1;
nodes = (
(318,713,l),
(723,713,l),
(723,767,l),
(318,767,l),
(318,1402,l),
(667,1402,ls),
(970,1402,o),
(1214,1153,o),
(1214,820,cs),
(1214,639,ls),
(1214,302,o),
(970,54,o),
(667,54,cs),
(318,54,l)
);
}
);
width = 1416;
},
{
layerId = "B06AEEA2-953E-4FA5-BFB1-0445B6E4B274";
shapes = (
{
closed = 1;
nodes = (
(711,0,ls),
(1091,0,o),
(1343,256,o),
(1343,628,cs),
(1343,827,ls),
(1343,1198,o),
(1091,1456,o),
(711,1456,cs),
(101,1456,l),
(101,1329,l),
(264,1301,l),
(264,818,l),
(66,818,l),
(66,663,l),
(264,663,l),
(264,154,l),
(101,126,l),
(101,0,l)
);
},
{
closed = 1;
nodes = (
(461,663,l),
(707,663,l),
(707,818,l),
(461,818,l),
(461,1301,l),
(711,1301,ls),
(980,1301,o),
(1146,1104,o),
(1146,829,cs),
(1146,628,ls),
(1146,351,o),
(980,154,o),
(711,154,cs),
(461,154,l)
);
}
);
width = 1449;
},
{
layerId = "55372407-EEEC-4390-8B77-FB5958F23D2B";
shapes = (
{
closed = 1;
nodes = (
(760,0,ls),
(1101,0,o),
(1361,246,o),
(1361,594,cs),
(1361,861,ls),
(1361,1208,o),
(1101,1456,o),
(760,1456,cs),
(77,1456,l),
(77,1250,l),
(227,1218,l),
(227,821,l),
(34,821,l),
(34,666,l),
(227,666,l),
(227,237,l),
(77,205,l),
(77,0,l)
);
},
{
closed = 1;
nodes = (
(578,666,l),
(772,666,l),
(772,821,l),
(578,821,l),
(578,1188,l),
(735,1188,ls),
(907,1188,o),
(1008,1058,o),
(1008,863,cs),
(1008,594,ls),
(1008,397,o),
(907,267,o),
(735,267,cs),
(578,267,l)
);
}
);
width = 1436;
}
);
},
{
color = 4;
glyphname = K.ss05;
kernRight = K;
lastChange = "2023-10-11 11:58:44 +0000";
layers = (
{
layerId = "55372407-EEEC-4390-8B77-FB5958F23D2B";
shapes = (
{
closed = 1;
nodes = (
(701,0,l),
(701,205,l),
(556,242,l),
(556,592,l),
(712,592,l),
(1009,218,l),
(1009,220,l),
(880,205,l),
(880,0,l),
(1584,0,l),
(1584,205,l),
(1435,236,l),
(987,781,l),
(1350,1216,l),
(1493,1250,l),
(1493,1456,l),
(862,1456,l),
(862,1250,l),
(999,1235,l),
(996,1232,l),
(699,883,l),
(556,883,l),
(556,1212,l),
(701,1250,l),
(701,1456,l),
(52,1456,l),
(52,1250,l),
(205,1212,l),
(205,242,l),
(52,205,l),
(52,0,l)
);
}
);
width = 1608;
},
{
layerId = "B06AEEA2-953E-4FA5-BFB1-0445B6E4B274";
shapes = (
{
closed = 1;
nodes = (
(604,0,l),
(604,126,l),
(441,154,l),
(441,657,l),
(614,657,l),
(1054,141,l),
(1055,140,l),
(935,126,l),
(935,0,l),
(1416,0,l),
(1416,126,l),
(1282,151,l),
(770,752,l),
(1215,1304,l),
(1352,1329,l),
(1352,1456,l),
(890,1456,l),
(890,1329,l),
(999,1315,l),
(995,1310,l),
(592,812,l),
(441,812,l),
(441,1301,l),
(604,1329,l),
(604,1456,l),
(81,1456,l),
(81,1329,l),
(244,1301,l),
(244,154,l),
(81,126,l),
(81,0,l)
);
}
);
width = 1496;
},
{
layerId = "0331963E-C1C8-4E93-A463-84B984C1D75E";
shapes = (
{
closed = 1;
nodes = (
(451,0,l),
(451,54,l),
(288,54,l),
(288,711,l),
(511,711,l),
(1133,60,l),
(1130,54,l),
(967,54,l),
(967,0,l),
(1328,0,l),
(1328,54,l),
(1210,54,l),
(571,730,l),
(1167,1402,l),
(1282,1402,l),
(1282,1456,l),
(921,1456,l),
(921,1402,l),
(1089,1402,l),
(1091,1397,l),
(526,764,l),
(288,764,l),
(288,1402,l),
(451,1402,l),
(451,1456,l),
(71,1456,l),
(71,1402,l),
(234,1402,l),
(234,54,l),
(71,54,l),
(71,0,l)
);
}
);
width = 1388;
}
);
},
{
color = 4;
glyphname = OE.ss05;
kernLeft = C;
lastChange = "2023-10-11 13:41:42 +0000";
layers = (
{
layerId = "0331963E-C1C8-4E93-A463-84B984C1D75E";
shapes = (
{
closed = 1;
nodes = (
(736,-21,o),
(826,-13,o),
(963,0,c),
(1835,0,l),
(1835,293,l),
(1781,293,l),
(1781,54,l),
(1003,54,l),
(1003,732,l),
(1633,732,l),
(1633,786,l),
(1003,786,l),
(1003,1402,l),
(1781,1402,l),
(1781,1163,l),
(1835,1163,l),
(1835,1456,l),
(963,1456,l),
(844,1468,o),
(738,1477,o),
(631,1477,cs),
(323,1477,o),
(114,1233,o),
(114,880,cs),
(114,576,ls),
(114,223,o),
(325,-21,o),
(633,-21,cs)
);
},
{
closed = 1;
nodes = (
(353,33,o),
(168,256,o),
(168,576,cs),
(168,882,ls),
(168,1206,o),
(350,1423,o),
(631,1423,cs),
(723,1423,o),
(827,1415,o),
(949,1402,c),
(949,54,l),
(819,38,o),
(712,33,o),
(633,33,cs)
);
}
);
width = 1973;
},
{
layerId = "B06AEEA2-953E-4FA5-BFB1-0445B6E4B274";
shapes = (
{
closed = 1;
nodes = (
(763,-21,o),
(842,-13,o),
(963,0,c),
(1884,0,l),
(1884,349,l),
(1716,349,l),
(1700,154,l),
(1115,154,l),
(1115,675,l),
(1672,675,l),
(1672,830,l),
(1115,830,l),
(1115,1301,l),
(1688,1301,l),
(1704,1106,l),
(1873,1106,l),
(1873,1456,l),
(963,1456,l),
(858,1468,o),
(764,1477,o),
(672,1477,cs),
(340,1477,o),
(114,1233,o),
(114,880,cs),
(114,576,ls),
(114,223,o),
(342,-21,o),
(674,-21,cs)
);
},
{
closed = 1;
nodes = (
(449,134,o),
(311,291,o),
(311,576,cs),
(311,882,ls),
(311,1166,o),
(447,1322,o),
(672,1322,cs),
(735,1322,o),
(799,1319,o),
(918,1301,c),
(918,154,l),
(828,138,o),
(745,134,o),
(674,134,cs)
);
}
);
width = 1969;
},
{
layerId = "55372407-EEEC-4390-8B77-FB5958F23D2B";
shapes = (
{
closed = 1;
nodes = (
(822,-21,o),
(896,-13,o),
(1020,0,c),
(1968,0,l),
(1968,428,l),
(1713,428,l),
(1702,267,l),
(1303,267,l),
(1303,618,l),
(1756,618,l),
(1756,887,l),
(1303,887,l),
(1303,1188,l),
(1703,1188,l),
(1714,1027,l),
(1972,1027,l),
(1972,1456,l),
(1020,1456,l),
(914,1468,o),
(822,1477,o),
(730,1477,cs),
(353,1477,o),
(96,1233,o),
(96,880,cs),
(96,576,ls),
(96,223,o),
(355,-21,o),
(732,-21,cs)
);
},
{
closed = 1;
nodes = (
(552,247,o),
(446,360,o),
(446,576,cs),
(446,882,ls),
(446,1097,o),
(550,1209,o),
(730,1209,cs),
(815,1209,o),
(898,1197,o),
(952,1191,c),
(952,264,l),
(887,255,o),
(814,247,o),
(732,247,cs)
);
}
);
width = 2013;
}
);
userData = {
com.typemytype.robofont.layerData = {
mask = {
anchors = (
);
components = (
);
contours = (
{
points = (
{
segmentType = line;
smooth = 0;
x = 963;
y = 0;
},
{
smooth = 0;
x = 825.66667;
y = -13.33333;
},
{
smooth = 0;
x = 735.66667;
y = -21;
},
{
segmentType = curve;
smooth = 1;
x = 633;
y = -21;
},
{
smooth = 0;
x = 325;
y = -21;
},
{
smooth = 0;
x = 114;
y = 222.66667;
},
{
segmentType = curve;
smooth = 1;
x = 114;
y = 576;
},
{
segmentType = line;
smooth = 1;
x = 114;
y = 880;
},
{
smooth = 0;
x = 114;
y = 1233.33333;
},
{
smooth = 0;
x = 323;
y = 1477;
},
{
segmentType = curve;
smooth = 1;
x = 631;
y = 1477;
},
{
smooth = 0;
x = 737.66667;
y = 1477;
},
{
smooth = 0;
x = 844.33333;
y = 1468;
},
{
segmentType = curve;
smooth = 0;
x = 963;
y = 1456;
},
{
segmentType = line;
smooth = 0;
x = 1835;
y = 1456;
},
{
segmentType = line;
smooth = 0;
x = 1835;
y = 1163;
},
{
segmentType = line;
smooth = 0;
x = 1781;
y = 1163;
},
{
segmentType = line;
smooth = 0;
x = 1781;
y = 1402;
},
{
segmentType = line;
smooth = 0;
x = 1003;
y = 1402;
},
{
segmentType = line;
smooth = 0;
x = 1003;
y = 786;
},
{
segmentType = line;
smooth = 0;
x = 1633;
y = 786;
},
{
segmentType = line;
smooth = 0;
x = 1633;
y = 732;
},
{
segmentType = line;
smooth = 0;
x = 1003;
y = 732;
},
{
segmentType = line;
smooth = 0;
x = 1003;
y = 54;
},
{
segmentType = line;
smooth = 0;
x = 1781;
y = 54;
},
{
segmentType = line;
smooth = 0;
x = 1781;
y = 293;
},
{
segmentType = line;
smooth = 0;
x = 1835;
y = 293;
},
{
segmentType = line;
smooth = 0;
x = 1835;
y = 0;
}
);
},
{
points = (
{
segmentType = curve;
smooth = 1;
x = 633;
y = 33;
},
{
smooth = 0;
x = 682.33333;
y = 33;
},
{
smooth = 0;
x = 735.33333;
y = 33.33333;
},
{
segmentType = curve;
smooth = 0;
x = 786;
y = 36;
},
{
segmentType = line;
smooth = 0;
x = 786;
y = 54;
},
{
segmentType = line;
smooth = 0;
x = 949;
y = 54;
},
{
segmentType = line;
smooth = 0;
x = 949;
y = 1402;
},
{
segmentType = line;
smooth = 0;
x = 786;
y = 1402;
},
{
segmentType = line;
smooth = 0;
x = 786;
y = 1420;
},
{
smooth = 0;
x = 735.33333;
y = 1421.33333;
},
{
smooth = 0;
x = 683;
y = 1423;
},
{
segmentType = curve;
smooth = 1;
x = 631;
y = 1423;
},
{
smooth = 0;
x = 349.66667;
y = 1423;
},
{
smooth = 0;
x = 168;
y = 1206;
},
{
segmentType = curve;
smooth = 1;
x = 168;
y = 882;
},
{
segmentType = line;
smooth = 1;
x = 168;
y = 576;
},
{
smooth = 0;
x = 168;
y = 256;
},
{
smooth = 0;
x = 353;
y = 33;
}
);
}
);
lib = {
};
name = OE;
unicodes = (
);
width = 1973;
};
};
};
},
{
color = 4;
glyphname = R.ss05;
lastChange = "2023-10-11 13:41:42 +0000";
layers = (
{
layerId = "55372407-EEEC-4390-8B77-FB5958F23D2B";
shapes = (
{
closed = 1;
nodes = (
(711,0,l),
(711,205,l),
(556,243,l),
(556,566,l),
(757,566,ls),
(866,561,o),
(930,484,o),
(930,357,cs),
(930,288,ls),
(930,117,o),
(1005,0,o),
(1211,0,cs),
(1386,0,l),
(1386,206,l),
(1354,212,ls),
(1300,221,o),
(1281,251,o),
(1281,303,cs),
(1281,359,ls),
(1281,531,o),
(1214,652,o),
(1051,706,c),
(1196,779,o),
(1268,878,o),
(1268,1020,cs),
(1268,1290,o),
(1062,1456,o),
(725,1456,cs),
(52,1456,l),
(52,1250,l),
(205,1213,l),
(205,243,l),
(52,205,l),
(52,0,l)
);
},
{
closed = 1;
nodes = (
(556,1189,l),
(725,1189,ls),
(852,1189,o),
(919,1113,o),
(919,1004,cs),
(919,887,o),
(851,833,o),
(722,833,cs),
(556,833,l)
);
}
);
width = 1419;
},
{
layerId = "0331963E-C1C8-4E93-A463-84B984C1D75E";
shapes = (
{
closed = 1;
nodes = (
(451,-1,l),
(451,53,l),
(288,53,l),
(288,683,l),
(681,683,ls),
(932,683,o),
(1072,566,o),
(1072,369,cs),
(1072,226,ls),
(1072,99,o),
(1114,0,o),
(1243,0,cs),
(1294,0,l),
(1294,54,l),
(1243,54,ls),
(1166,54,o),
(1126,109,o),
(1126,224,cs),
(1126,371,ls),
(1126,554,o),
(1042,675,o),
(833,711,c),
(1014,751,o),
(1126,901,o),
(1126,1065,cs),
(1126,1320,o),
(955,1455,o),
(648,1455,cs),
(71,1455,l),
(71,1401,l),
(234,1401,l),
(234,53,l),
(71,53,l),
(71,-1,l)
);
},
{
closed = 1;
nodes = (
(288,1401,l),
(648,1401,ls),
(929,1401,o),
(1072,1282,o),
(1072,1065,cs),
(1072,878,o),
(935,737,o),
(638,737,cs),
(288,737,l)
);
}
);
width = 1364;
},
{
layerId = "B06AEEA2-953E-4FA5-BFB1-0445B6E4B274";
shapes = (
{
closed = 1;
nodes = (
(604,0,l),
(604,126,l),
(441,154,l),
(441,650,l),
(757,650,ls),
(912,650,o),
(1011,546,o),
(1011,387,cs),
(1011,274,ls),
(1011,122,o),
(1070,0,o),
(1223,0,cs),
(1329,0,l),
(1329,129,l),
(1281,135,ls),
(1229,143,o),
(1208,183,o),
(1208,272,cs),
(1208,389,ls),
(1208,561,o),
(1143,681,o),
(984,733,c),
(1131,796,o),
(1212,909,o),
(1212,1050,cs),
(1212,1309,o),
(1037,1455,o),
(720,1455,cs),
(81,1455,l),
(81,1329,l),
(244,1301,l),
(244,154,l),
(81,126,l),
(81,0,l)
);
},
{
closed = 1;
nodes = (
(441,1301,l),
(720,1301,ls),
(921,1301,o),
(1015,1205,o),
(1015,1052,cs),
(1015,891,o),
(920,805,o),
(700,805,cs),
(441,805,l)
);
}
);
width = 1396;
}
);
},
{
glyphname = a;
kernLeft = a;
kernRight = a;
lastChange = "2023-10-11 13:41:42 +0000";
layers = (
{
anchors = (
{
name = bottom;
pos = (538,0);
},
{
name = ogonek;
pos = (1046,0);
},
{
name = top;
pos = (515,1082);
}
);
layerId = "0331963E-C1C8-4E93-A463-84B984C1D75E";
shapes = (
{
closed = 1;
nodes = (
(598,-21,o),
(745,68,o),
(827,199,c),
(827,128,o),
(832,95,o),
(849,0,c),
(1046,0,l),
(1046,54,l),
(896,54,l),
(885,107,o),
(881,162,o),
(881,218,cs),
(881,740,ls),
(881,962,o),
(754,1102,o),
(505,1102,cs),
(361,1102,o),
(254,1048,o),
(165,965,c),
(165,759,l),
(219,759,l),
(219,936,l),
(287,999,o),
(386,1049,o),
(504,1049,cs),
(726,1049,o),
(827,922,o),
(827,742,cs),
(827,604,l),
(578,604,ls),
(289,604,o),
(104,469,o),
(104,274,cs),
(104,98,o),
(227,-21,o),
(417,-21,cs)
);
},
{
closed = 1;
nodes = (
(266,32,o),
(158,135,o),
(158,270,cs),
(158,435,o),
(326,549,o),
(581,549,cs),
(827,549,l),
(827,292,l),
(751,129,o),
(581,32,o),
(417,32,cs)
);
}
);
width = 1116;
},
{
anchors = (
{
name = bottom;
pos = (551,0);
},
{
name = ogonek;
pos = (1053,0);
},
{
name = top;
pos = (534,1082);
}
);
layerId = "B06AEEA2-953E-4FA5-BFB1-0445B6E4B274";
shapes = (
{
closed = 1;
nodes = (
(553,-21,o),
(673,52,o),
(749,149,c),
(752,102,o),
(758,59,o),
(770,0,c),
(1053,0,l),
(1053,126,l),
(948,137,l),
(945,164,o),
(945,190,o),
(945,218,cs),
(945,739,ls),
(945,972,o),
(787,1102,o),
(524,1102,cs),
(367,1102,o),
(236,1061,o),
(139,982,c),
(139,734,l),
(291,734,l),
(312,885,l),
(366,924,o),
(430,947,o),
(521,947,cs),
(665,947,o),
(748,872,o),
(748,741,cs),
(748,635,l),
(555,635,ls),
(256,635,o),
(79,499,o),
(79,294,cs),
(79,94,o),
(199,-21,o),
(424,-21,cs)
);
},
{
closed = 1;
nodes = (
(334,144,o),
(276,195,o),
(276,290,cs),
(276,397,o),
(367,500,o),
(548,500,cs),
(748,500,l),
(748,304,l),
(701,216,o),
(584,144,o),
(453,144,cs)
);
}
);
width = 1132;
},
{
anchors = (
{
name = bottom;
pos = (584,0);
},
{
name = ogonek;
pos = (1151,0);
},
{
name = top;
pos = (555,1082);
}
);
layerId = "55372407-EEEC-4390-8B77-FB5958F23D2B";
shapes = (
{
closed = 1;
nodes = (
(551,-21,o),
(626,27,o),
(691,108,c),
(699,68,o),
(722,24,o),
(740,0,c),
(1150,0,l),
(1150,205,l),
(1033,225,l),
(1028,252,o),
(1028,281,o),
(1028,312,cs),
(1028,711,ls),
(1028,961,o),
(841,1102,o),
(547,1102,cs),
(381,1102,o),
(252,1056,o),
(130,1001,c),
(135,700,l),
(382,700,l),
(406,838,l),
(438,859,o),
(478,871,o),
(523,871,cs),
(630,871,o),
(677,802,o),
(677,715,cs),
(677,651,l),
(564,651,ls),
(233,651,o),
(71,507,o),
(71,305,cs),
(71,108,o),
(217,-21,o),
(426,-21,cs)
);
},
{
closed = 1;
nodes = (
(467,227,o),
(420,266,o),
(420,332,cs),
(420,400,o),
(473,445,o),
(568,445,cs),
(677,445,l),
(677,289,l),
(639,247,o),
(585,227,o),
(534,227,cs)
);
}
);
width = 1167;
}
);
unicode = 97;
userData = {
com.typemytype.robofont.layerData = {
mask = {
anchors = (
);
components = (
);
contours = (
{
points = (
{
segmentType = line;
smooth = 0;
x = 885;
y = 0;
},
{
smooth = 0;
x = 867.66667;
y = 94.66667;
},
{
smooth = 0;
x = 863;
y = 128.33333;
},
{
segmentType = curve;
smooth = 1;
x = 863;
y = 183;
},
{
segmentType = line;
smooth = 0;
x = 863;
y = 199;
},
{
smooth = 0;
x = 780.33333;
y = 69.66667;
},
{
smooth = 0;
x = 628.33333;
y = -21;
},
{
segmentType = curve;
smooth = 1;
x = 427;
y = -21;
},
{
smooth = 0;
x = 227;
y = -21;
},
{
smooth = 0;
x = 104;
y = 98;
},
{
segmentType = curve;
smooth = 1;
x = 104;
y = 274;
},
{
smooth = 0;
x = 104;
y = 468.66667;
},
{
smooth = 0;
x = 295.33333;
y = 604;
},
{
segmentType = curve;
smooth = 1;
x = 594;
y = 604;
},
{
segmentType = line;
smooth = 0;
x = 863;
y = 604;
},
{
segmentType = line;
smooth = 1;
x = 863;
y = 762;
},
{
smooth = 0;
x = 863;
y = 942;
},
{
smooth = 0;
x = 742.33333;
y = 1048;
},
{
segmentType = curve;
smooth = 1;
x = 533;
y = 1048;
},
{
smooth = 0;
x = 395.66667;
y = 1048;
},
{
smooth = 0;
x = 272;
y = 1007;
},
{
segmentType = curve;
smooth = 0;
x = 188;
y = 939;
},
{
segmentType = line;
smooth = 0;
x = 187;
y = 766;
},
{
segmentType = line;
smooth = 0;
x = 133;
y = 766;
},
{
segmentType = line;
smooth = 0;
x = 134;
y = 972;
},
{
smooth = 0;
x = 236.66667;
y = 1048;
},
{
smooth = 0;
x = 382.33333;
y = 1102;
},
{
segmentType = curve;
smooth = 1;
x = 533;
y = 1102;
},
{
smooth = 0;
x = 765;
y = 1102;
},
{
smooth = 0;
x = 917;
y = 981.33333;
},
{
segmentType = curve;
smooth = 1;
x = 917;
y = 760;
},
{
segmentType = line;
smooth = 1;
x = 917;
y = 218;
},
{
smooth = 0;
x = 917;
y = 162;
},
{
smooth = 0;
x = 921.33333;
y = 107.33333;
},
{
segmentType = curve;
smooth = 0;
x = 932;
y = 54;
},
{
segmentType = line;
smooth = 0;
x = 1062;
y = 54;
},
{
segmentType = line;
smooth = 0;
x = 1062;
y = 0;
}
);
},
{
points = (
{
segmentType = curve;
smooth = 1;
x = 427;
y = 32;
},
{
smooth = 0;
x = 631;
y = 32;
},
{
smooth = 0;
x = 787;
y = 129.33333;
},
{
segmentType = curve;
smooth = 0;
x = 863;
y = 292;
},
{
segmentType = line;
smooth = 0;
x = 863;
y = 549;
},
{
segmentType = line;
smooth = 1;
x = 597;
y = 549;
},
{
smooth = 0;
x = 331.66667;
y = 549;
},
{
smooth = 0;
x = 158;
y = 435.33333;
},
{
segmentType = curve;
smooth = 1;
x = 158;
y = 270;
},
{
smooth = 0;
x = 158;
y = 135.33333;
},
{
smooth = 0;
x = 265.66667;
y = 32;
}
);
},
{
points = (
{
segmentType = line;
smooth = 0;
x = 885;
y = 0;
},
{
smooth = 0;
x = 867.66667;
y = 94.66667;
},
{
smooth = 0;
x = 863;
y = 128;
},
{
segmentType = curve;
smooth = 0;
x = 863;
y = 199;
},
{
smooth = 0;
x = 780.33333;
y = 69.66667;
},
{
smooth = 0;
x = 628.33333;
y = -21;
},
{
segmentType = curve;
smooth = 1;
x = 427;
y = -21;
},
{
smooth = 0;
x = 227;
y = -21;
},
{
smooth = 0;
x = 104;
y = 98;
},
{
segmentType = curve;
smooth = 1;
x = 104;
y = 274;
},
{
smooth = 0;
x = 104;
y = 468.66667;
},
{
smooth = 0;
x = 295.33333;
y = 604;
},
{
segmentType = curve;
smooth = 1;
x = 594;
y = 604;
},
{
segmentType = line;
smooth = 0;
x = 863;
y = 604;
},
{
segmentType = line;
smooth = 1;
x = 863;
y = 762;
},
{
smooth = 0;
x = 863;
y = 942;
},
{
smooth = 0;
x = 742.33333;
y = 1048;
},
{
segmentType = curve;
smooth = 1;
x = 533;
y = 1048;
},
{
smooth = 0;
x = 395.66667;
y = 1048;
},
{
smooth = 0;
x = 272;
y = 1007;
},
{
segmentType = curve;
smooth = 0;
x = 188;
y = 939;
},
{
segmentType = line;
smooth = 0;
x = 187;
y = 766;
},
{
segmentType = line;
smooth = 0;
x = 133;
y = 766;
},
{
segmentType = line;
smooth = 0;
x = 134;
y = 972;
},
{
smooth = 0;
x = 236.66667;
y = 1048;
},
{
smooth = 0;
x = 382.33333;
y = 1102;
},
{
segmentType = curve;
smooth = 1;
x = 533;
y = 1102;
},
{
smooth = 0;
x = 765;
y = 1102;
},
{
smooth = 0;
x = 917;
y = 981.33333;
},
{
segmentType = curve;
smooth = 1;
x = 917;
y = 760;
},
{
segmentType = line;
smooth = 1;
x = 917;
y = 218;
},
{
smooth = 0;
x = 917;
y = 162;
},
{
smooth = 0;
x = 921.33333;
y = 107.33333;
},
{
segmentType = curve;
smooth = 0;
x = 932;
y = 54;
},
{
segmentType = line;
smooth = 0;
x = 1062;
y = 54;
},
{
segmentType = line;
smooth = 0;
x = 1062;
y = 0;
}
);
},
{
points = (
{
segmentType = curve;
smooth = 1;
x = 427;
y = 32;
},
{
smooth = 0;
x = 631;
y = 32;
},
{
smooth = 0;
x = 787;
y = 129.33333;
},
{
segmentType = curve;
smooth = 0;
x = 863;
y = 292;
},
{
segmentType = line;
smooth = 0;
x = 863;
y = 549;
},
{
segmentType = line;
smooth = 1;
x = 597;
y = 549;
},
{
smooth = 0;
x = 331.66667;
y = 549;
},
{
smooth = 0;
x = 158;
y = 435.33333;
},
{
segmentType = curve;
smooth = 1;
x = 158;
y = 270;
},
{
smooth = 0;
x = 158;
y = 135.33333;
},
{
smooth = 0;
x = 265.66667;
y = 32;
}
);
}
);
lib = {
};
name = a;
unicodes = (
);
width = 1116;
};
};
com.typemytype.robofont.mark = (
1,
0.1703,
0.1669,
0.8287
);
};
},
{
glyphname = aringacute;
kernLeft = a;
kernRight = a;
lastChange = "2018-07-30 20:31:27 +0000";
layers = (
{
layerId = "0331963E-C1C8-4E93-A463-84B984C1D75E";
shapes = (
{
ref = a;
},
{
pos = (304,0);
ref = ringcomb_acutecomb;
}
);
width = 1116;
},
{
layerId = "B06AEEA2-953E-4FA5-BFB1-0445B6E4B274";
shapes = (
{
ref = a;
},
{
pos = (291,0);
ref = ringcomb_acutecomb;
}
);
width = 1132;
},
{
layerId = "55372407-EEEC-4390-8B77-FB5958F23D2B";
shapes = (
{
ref = a;
},
{
pos = (267,0);
ref = ringcomb_acutecomb;
}
);
width = 1167;
},
{
anchors = (
{
name = _top;
pos = (575.5,1063);
},
{
name = bottom;
pos = (551,0);
},
{
name = ogonek;
pos = (1053,0);
},
{
name = top;
pos = (551,1082);
}
);
associatedMasterId = "B06AEEA2-953E-4FA5-BFB1-0445B6E4B274";
layerId = "436F8AE7-8A92-4B56-9B78-DD917FDCAB66";
name = "Jul 27 18, 14:30";
shapes = (
{
closed = 1;
nodes = (
(553,-21,o),
(673,52,o),
(749,149,c),
(752,102,o),
(758,59,o),
(770,0,c),
(1053,0,l),
(1053,126,l),
(948,137,l),
(945,164,o),
(945,190,o),
(945,218,cs),
(945,739,ls),
(945,972,o),
(787,1102,o),
(524,1102,cs),
(367,1102,o),
(236,1061,o),
(139,982,c),
(139,734,l),
(291,734,l),
(312,885,l),
(366,924,o),
(430,947,o),
(521,947,cs),
(665,947,o),
(748,872,o),
(748,741,cs),
(748,635,l),
(555,635,ls),
(256,635,o),
(79,499,o),
(79,294,cs),
(79,94,o),
(199,-21,o),
(424,-21,cs)
);
},
{
closed = 1;
nodes = (
(334,144,o),
(276,195,o),
(276,290,cs),
(276,397,o),
(367,500,o),
(548,500,cs),
(748,500,l),
(748,304,l),
(701,216,o),
(584,144,o),
(453,144,cs)
);
},
{
closed = 1;
nodes = (
(690,1055,o),
(782,1134,o),
(782,1249,cs),
(782,1362,o),
(690,1447,o),
(577,1447,cs),
(461,1447,o),
(369,1361,o),
(369,1249,cs),
(369,1134,o),
(461,1055,o),
(577,1055,cs)
);
},
{
closed = 1;
nodes = (
(520,1145,o),
(472,1192,o),
(472,1249,cs),
(472,1309,o),
(518,1356,o),
(577,1356,cs),
(633,1356,o),
(679,1309,o),
(679,1249,cs),
(679,1189,o),
(633,1145,o),
(577,1145,cs)
);
},
{
closed = 1;
nodes = (
(869,1810,l),
(871,1804,l),
(602,1538,l),
(464,1538,l),
(455,1538,l),
(639,1810,l)
);
}
);
width = 1128;
}
);
unicode = 507;
},
{
glyphname = ae;
lastChange = "2018-07-27 22:42:56 +0000";
layers = (
{
anchors = (
{
name = bottom;
pos = (897,0);
},
{
name = top;
pos = (897,1082);
}
);
layerId = "0331963E-C1C8-4E93-A463-84B984C1D75E";
shapes = (
{
closed = 1;
nodes = (
(616,-21,o),
(777,87,o),
(870,248,c),
(948,71,o),
(1084,-21,o),
(1279,-21,cs),
(1452,-21,o),
(1554,34,o),
(1641,122,c),
(1611,164,l),
(1530,81,o),
(1415,33,o),
(1279,33,cs),
(1012,33,o),
(881,222,o),
(881,500,cs),
(881,577,l),
(1668,577,l),
(1668,660,ls),
(1668,933,o),
(1515,1102,o),
(1264,1102,cs),
(1090,1102,o),
(926,988,o),
(873,829,c),
(847,998,o),
(723,1102,o),
(505,1102,cs),
(361,1102,o),
(254,1048,o),
(165,965,c),
(165,759,l),
(219,759,l),
(219,936,l),
(287,999,o),
(386,1049,o),
(504,1049,cs),
(726,1049,o),
(827,922,o),
(827,742,cs),
(827,632,l),
(578,632,ls),
(289,632,o),
(104,491,o),
(104,288,cs),
(104,104,o),
(227,-21,o),
(417,-21,cs)
);
},
{
closed = 1;
nodes = (
(266,32,o),
(158,141,o),
(158,284,cs),
(158,457,o),
(326,577,o),
(581,577,cs),
(827,577,l),
(827,502,ls),
(827,437,o),
(833,372,o),
(842,309,c),
(763,135,o),
(584,32,o),
(417,32,cs)
);
},
{
closed = 1;
nodes = (
(881,637,l),
(898,874,o),
(1047,1048,o),
(1264,1048,cs),
(1487,1048,o),
(1614,888,o),
(1614,664,cs),
(1614,632,l),
(883,632,l)
);
}
);
width = 1795;
},
{
anchors = (
{
name = bottom;
pos = (892,0);
},
{
name = top;
pos = (892,1082);
}
);
layerId = "B06AEEA2-953E-4FA5-BFB1-0445B6E4B274";
shapes = (
{
closed = 1;
nodes = (
(601,-21,o),
(737,51,o),
(831,190,c),
(933,53,o),
(1079,-21,o),
(1259,-21,cs),
(1444,-21,o),
(1568,41,o),
(1641,101,c),
(1573,239,l),
(1469,171,o),
(1398,133,o),
(1259,133,cs),
(1052,133,o),
(947,278,o),
(946,490,c),
(948,495,l),
(1658,495,l),
(1658,614,ls),
(1658,918,o),
(1498,1102,o),
(1213,1102,cs),
(1078,1102,o),
(959,1043,o),
(874,937,c),
(809,1046,o),
(688,1102,o),
(525,1102,cs),
(368,1102,o),
(237,1061,o),
(140,982,c),
(140,734,l),
(292,734,l),
(313,885,l),
(367,924,o),
(431,947,o),
(522,947,cs),
(666,947,o),
(749,872,o),
(749,741,cs),
(749,640,l),
(556,640,ls),
(256,640,o),
(79,506,o),
(79,302,cs),
(79,98,o),
(202,-21,o),
(435,-21,cs)
);
},
{
closed = 1;
nodes = (
(334,144,o),
(276,211,o),
(276,298,cs),
(276,405,o),
(367,505,o),
(549,505,cs),
(749,505,l),
(749,504,ls),
(749,447,o),
(752,407,o),
(760,342,c),
(711,234,o),
(589,144,o),
(454,144,cs)
);
},
{
closed = 1;
nodes = (
(948,645,l),
(963,822,o),
(1060,947,o),
(1213,947,cs),
(1384,947,o),
(1461,834,o),
(1461,671,cs),
(1461,640,l),
(950,640,l)
);
}
);
width = 1737;
},
{
anchors = (
{
name = bottom;
pos = (824,0);
},
{
name = top;
pos = (863,1082);
}
);
layerId = "55372407-EEEC-4390-8B77-FB5958F23D2B";
shapes = (
{
closed = 1;
nodes = (
(614,-21,o),
(727,30,o),
(825,115,c),
(909,26,o),
(1033,-21,o),
(1191,-21,cs),
(1348,-21,o),
(1517,33,o),
(1606,99,c),
(1523,312,l),
(1419,266,o),
(1354,246,o),
(1248,246,cs),
(1102,246,o),
(1035,312,o),
(1027,422,c),
(1029,429,l),
(1642,429,l),
(1642,611,ls),
(1642,910,o),
(1464,1102,o),
(1183,1102,cs),
(1056,1102,o),
(954,1064,o),
(871,981,c),
(796,1063,o),
(684,1102,o),
(547,1102,cs),
(381,1102,o),
(252,1056,o),
(130,1001,c),
(135,700,l),
(382,700,l),
(406,838,l),
(438,859,o),
(478,871,o),
(523,871,cs),
(630,871,o),
(677,802,o),
(677,715,cs),
(677,651,l),
(564,651,ls),
(233,651,o),
(71,507,o),
(71,305,cs),
(71,108,o),
(217,-21,o),
(456,-21,cs)
);
},
{
closed = 1;
nodes = (
(467,227,o),
(420,266,o),
(420,332,cs),
(420,400,o),
(473,445,o),
(568,445,cs),
(677,445,l),
(677,434,ls),
(677,395,o),
(683,342,o),
(700,299,c),
(657,250,o),
(591,227,o),
(535,227,cs)
);
},
{
closed = 1;
nodes = (
(1027,651,l),
(1033,768,o),
(1086,834,o),
(1170,834,cs),
(1249,834,o),
(1301,775,o),
(1301,673,cs),
(1301,646,l),
(1029,646,l)
);
}
);
width = 1710;
}
);
metricLeft = a;
metricRight = e;
unicode = 230;
userData = {
com.typemytype.robofont.layerData = {
mask = {
anchors = (
);
components = (
);
contours = (
{
points = (
{
segmentType = curve;
smooth = 1;
x = 1272;
y = -21;
},
{
smooth = 0;
x = 1081.33333;
y = -21;
},
{
smooth = 0;
x = 942.66667;
y = 71.33333;
},
{
segmentType = curve;
smooth = 0;
x = 872;
y = 230;
},
{
segmentType = line;
smooth = 0;
x = 872;
y = 218;
},
{
segmentType = line;
smooth = 0;
x = 873;
y = 218;
},
{
smooth = 0;
x = 814.33333;
y = 91.33333;
},
{
smooth = 0;
x = 664;
y = -21;
},
{
segmentType = curve;
smooth = 1;
x = 452;
y = -21;
},
{
smooth = 0;
x = 226.66667;
y = -21;
},
{
smooth = 0;
x = 97;
y = 96;
},
{
segmentType = curve;
smooth = 1;
x = 97;
y = 284;
},
{
smooth = 0;
x = 97;
y = 493.33333;
},
{
smooth = 0;
x = 251;
y = 630;
},
{
segmentType = curve;
smooth = 1;
x = 527;
y = 630;
},
{
segmentType = line;
smooth = 0;
x = 817;
y = 630;
},
{
segmentType = line;
smooth = 1;
x = 817;
y = 720;
},
{
smooth = 0;
x = 817;
y = 930.66667;
},
{
smooth = 0;
x = 719.66667;
y = 1048;
},
{
segmentType = curve;
smooth = 1;
x = 525;
y = 1048;
},
{
smooth = 0;
x = 309;
y = 1048;
},
{
smooth = 0;
x = 178;
y = 932.33333;
},
{
segmentType = curve;
smooth = 0;
x = 178;
y = 771;
},
{
segmentType = line;
smooth = 0;
x = 133;
y = 777;
},
{
segmentType = line;
smooth = 0;
x = 131;
y = 783;
},
{
smooth = 0;
x = 124.33333;
y = 967;
},
{
smooth = 0;
x = 282.33333;
y = 1102;
},
{
segmentType = curve;
smooth = 1;
x = 525;
y = 1102;
},
{
smooth = 0;
x = 709;
y = 1102;
},
{
smooth = 0;
x = 833.33333;
y = 1002;
},
{
segmentType = curve;
smooth = 0;
x = 864;
y = 814;
},
{
smooth = 0;
x = 934.66667;
y = 991.33333;
},
{
smooth = 0;
x = 1081;
y = 1102;
},
{
segmentType = curve;
smooth = 1;
x = 1257;
y = 1102;
},
{
smooth = 0;
x = 1507.66667;
y = 1102;
},
{
smooth = 0;
x = 1661;
y = 933.33333;
},
{
segmentType = curve;
smooth = 1;
x = 1661;
y = 660;
},
{
segmentType = line;
smooth = 0;
x = 1661;
y = 577;
},
{
segmentType = line;
smooth = 0;
x = 874;
y = 577;
},
{
segmentType = line;
smooth = 0;
x = 874;
y = 564;
},
{
segmentType = line;
smooth = 1;
x = 874;
y = 500;
},
{
smooth = 0;
x = 874;
y = 222.66667;
},
{
smooth = 0;
x = 1005.33333;
y = 33;
},
{
segmentType = curve;
smooth = 1;
x = 1272;
y = 33;
},
{
smooth = 0;
x = 1408;
y = 33;
},
{
smooth = 0;
x = 1522.66667;
y = 81.33333;
},
{
segmentType = curve;
smooth = 0;
x = 1604;
y = 164;
},
{
segmentType = line;
smooth = 0;
x = 1634;
y = 122;
},
{
smooth = 0;
x = 1547.33333;
y = 34;
},
{
smooth = 0;
x = 1445.33333;
y = -21;
}
);
},
{
points = (
{
segmentType = curve;
smooth = 1;
x = 451;
y = 31;
},
{
smooth = 0;
x = 624.33333;
y = 31;
},
{
smooth = 0;
x = 787.66667;
y = 141;
},
{
segmentType = curve;
smooth = 0;
x = 817;
y = 225;
},
{
segmentType = line;
smooth = 0;
x = 817;
y = 575;
},
{
segmentType = line;
smooth = 1;
x = 529;
y = 575;
},
{
smooth = 0;
x = 282.33333;
y = 575;
},
{
smooth = 0;
x = 152;
y = 449.33333;
},
{
segmentType = curve;
smooth = 1;
x = 152;
y = 280;
},
{
smooth = 0;
x = 152;
y = 124;
},
{
smooth = 0;
x = 259;
y = 31;
}
);
},
{
points = (
{
segmentType = curve;
smooth = 1;
x = 1257;
y = 1048;
},
{
smooth = 0;
x = 1045;
y = 1048;
},
{
smooth = 0;
x = 899.33333;
y = 874.33333;
},
{
segmentType = curve;
smooth = 0;
x = 882;
y = 637;
},
{
segmentType = line;
smooth = 0;
x = 884;
y = 632;
},
{
segmentType = line;
smooth = 0;
x = 1607;
y = 632;
},
{
segmentType = line;
smooth = 1;
x = 1607;
y = 664;
},
{
smooth = 0;
x = 1607;
y = 888;
},
{
smooth = 0;
x = 1479.66667;
y = 1048;
}
);
}
);
lib = {
};
name = ae;
unicodes = (
);
width = 1779;
};
};
};
},
{
glyphname = b;
kernRight = b;
lastChange = "2023-10-11 13:41:42 +0000";
layers = (
{
anchors = (
{
name = bottom;
pos = (544,0);
},
{
name = top;
pos = (183,1456);
}
);
layerId = "0331963E-C1C8-4E93-A463-84B984C1D75E";
shapes = (
{
closed = 1;
nodes = (
(831,-21,o),
(984,188,o),
(984,521,cs),
(984,542,ls),
(984,885,o),
(831,1102,o),
(576,1102,cs),
(404,1102,o),
(281,1020,o),
(209,885,c),
(209,1560,l),
(-8,1560,l),
(-8,1506,l),
(155,1506,l),
(155,0,l),
(200,0,l),
(207,173,l),
(278,54,o),
(406,-21,o),
(578,-21,cs)
);
},
{
closed = 1;
nodes = (
(387,33,o),
(261,127,o),
(209,274,c),
(209,770,l),
(258,926,o),
(366,1048,o),
(577,1048,cs),
(805,1048,o),
(928,842,o),
(928,542,cs),
(928,521,ls),
(928,222,o),
(807,33,o),
(579,33,cs)
);
}
);
width = 1088;
},
{
anchors = (
{
name = bottom;
pos = (587,0);
},
{
name = top;
pos = (246,1456);
}
);
layerId = "B06AEEA2-953E-4FA5-BFB1-0445B6E4B274";
shapes = (
{
closed = 1;
nodes = (
(912,-21,o),
(1071,188,o),
(1071,500,cs),
(1071,521,ls),
(1071,869,o),
(914,1102,o),
(647,1102,cs),
(512,1102,o),
(412,1050,o),
(344,954,c),
(344,1560,l),
(-16,1560,l),
(-16,1433,l),
(147,1405,l),
(147,0,l),
(317,0,l),
(335,139,l),
(404,34,o),
(508,-21,o),
(649,-21,cs)
);
},
{
closed = 1;
nodes = (
(478,139,o),
(393,202,o),
(344,302,c),
(344,780,l),
(393,879,o),
(476,942,o),
(597,942,cs),
(784,942,o),
(873,770,o),
(873,521,cs),
(873,500,ls),
(873,283,o),
(784,139,o),
(599,139,cs)
);
}
);
width = 1145;
},
{
anchors = (
{
name = bottom;
pos = (602,0);
},
{
name = top;
pos = (301,1456);
}
);
layerId = "55372407-EEEC-4390-8B77-FB5958F23D2B";
shapes = (
{
closed = 1;
nodes = (
(991,-21,o),
(1133,189,o),
(1133,518,cs),
(1133,539,ls),
(1133,883,o),
(990,1102,o),
(732,1102,cs),
(618,1102,o),
(533,1056,o),
(474,975,c),
(474,1560,l),
(-26,1560,l),
(-26,1354,l),
(124,1322,l),
(124,0,l),
(427,0,l),
(450,129,l),
(511,32,o),
(596,-21,o),
(726,-21,cs)
);
},
{
closed = 1;
nodes = (
(557,248,o),
(508,266,o),
(474,312,c),
(474,747,l),
(502,800,o),
(553,833,o),
(619,833,cs),
(738,833,o),
(784,726,o),
(784,539,cs),
(784,518,ls),
(784,337,o),
(741,248,o),
(614,248,cs)
);
}
);
width = 1203;
}
);
unicode = 98;
},
{
glyphname = c;
kernLeft = alpha;
kernRight = c;
lastChange = "2018-07-30 17:58:09 +0000";
layers = (
{
anchors = (
{
name = bottom;
pos = (541,0);
},
{
name = top;
pos = (541,1082);
}
);
layerId = "0331963E-C1C8-4E93-A463-84B984C1D75E";
shapes = (
{
closed = 1;
nodes = (
(759,-21,o),
(912,94,o),
(937,317,c),
(935,323,l),
(889,323,l),
(865,125,o),
(728,33,o),
(543,33,cs),
(311,33,o),
(158,232,o),
(158,520,cs),
(158,562,ls),
(158,847,o),
(310,1048,o),
(539,1048,cs),
(674,1048,o),
(780,996,o),
(866,905,c),
(866,693,l),
(920,693,l),
(920,925,l),
(833,1024,o),
(701,1102,o),
(538,1102,cs),
(284,1102,o),
(104,885,o),
(104,562,cs),
(104,520,ls),
(104,196,o),
(291,-21,o),
(540,-21,cs)
);
}
);
width = 1082;
},
{
anchors = (
{
name = bottom;
pos = (557,0);
},
{
name = top;
pos = (557,1082);
}
);
layerId = "B06AEEA2-953E-4FA5-BFB1-0445B6E4B274";
shapes = (
{
closed = 1;
nodes = (
(833,-21,o),
(977,146,o),
(988,333,c),
(986,339,l),
(809,339,l),
(789,211,o),
(695,133,o),
(562,133,cs),
(384,133,o),
(275,283,o),
(275,520,cs),
(275,562,ls),
(275,775,o),
(394,947,o),
(570,947,cs),
(662,947,o),
(730,917,o),
(775,870,c),
(809,681,l),
(963,681,l),
(958,941,l),
(869,1041,o),
(738,1102,o),
(563,1102,cs),
(260,1102,o),
(78,870,o),
(78,562,cs),
(78,520,ls),
(78,199,o),
(268,-21,o),
(563,-21,cs)
);
}
);
width = 1067;
},
{
anchors = (
{
name = bottom;
pos = (553,0);
},
{
name = top;
pos = (553,1082);
}
);
layerId = "55372407-EEEC-4390-8B77-FB5958F23D2B";
shapes = (
{
closed = 1;
nodes = (
(868,-21,o),
(981,107,o),
(1030,364,c),
(1026,370,l),
(732,370,l),
(707,289,o),
(665,246,o),
(581,246,cs),
(499,246,o),
(411,314,o),
(411,528,cs),
(411,551,ls),
(411,756,o),
(462,851,o),
(612,851,cs),
(637,851,o),
(682,834,o),
(705,812,c),
(747,616,l),
(1008,616,l),
(1014,957,l),
(928,1025,o),
(780,1102,o),
(574,1102,cs),
(266,1102,o),
(60,876,o),
(60,551,cs),
(60,528,ls),
(60,210,o),
(255,-21,o),
(577,-21,cs)
);
}
);
width = 1092;
}
);
metricLeft = "=o";
unicode = 99;
userData = {
com.typemytype.robofont.layerData = {
mask = {
anchors = (
);
components = (
);
contours = (
{
points = (
{
segmentType = curve;
smooth = 1;
x = 546;
y = 33;
},
{
smooth = 0;
x = 728.66667;
y = 33;
},
{
smooth = 0;
x = 893;
y = 133;
},
{
segmentType = curve;
smooth = 0;
x = 893;
y = 333;
},
{
segmentType = line;
smooth = 0;
x = 939;
y = 333;
},
{
segmentType = line;
smooth = 0;
x = 941;
y = 327;
},
{
smooth = 0;
x = 946.33333;
y = 115;
},
{
smooth = 0;
x = 756.66667;
y = -21;
},
{
segmentType = curve;
smooth = 1;
x = 546;
y = -21;
},
{
smooth = 0;
x = 270;
y = -21;
},
{
smooth = 0;
x = 104;
y = 196;
},
{
segmentType = curve;
smooth = 1;
x = 104;
y = 520;
},
{
segmentType = line;
smooth = 1;
x = 104;
y = 562;
},
{
smooth = 0;
x = 104;
y = 884.66667;
},
{
smooth = 0;
x = 269.33333;
y = 1102;
},
{
segmentType = curve;
smooth = 1;
x = 544;
y = 1102;
},
{
smooth = 0;
x = 706.66667;
y = 1102;
},
{
smooth = 0;
x = 853;
y = 1029.66667;
},
{
segmentType = curve;
smooth = 0;
x = 937;
y = 915;
},
{
segmentType = line;
smooth = 0;
x = 937;
y = 683;
},
{
segmentType = line;
smooth = 0;
x = 883;
y = 683;
},
{
segmentType = line;
smooth = 0;
x = 883;
y = 895;
},
{
smooth = 0;
x = 807;
y = 988.33333;
},
{
smooth = 0;
x = 689.33333;
y = 1048;
},
{
segmentType = curve;
smooth = 1;
x = 544;
y = 1048;
},
{
smooth = 0;
x = 290.66667;
y = 1048;
},
{
smooth = 0;
x = 158;
y = 847.33333;
},
{
segmentType = curve;
smooth = 1;
x = 158;
y = 562;
},
{
segmentType = line;
smooth = 1;
x = 158;
y = 520;
},
{
smooth = 0;
x = 158;
y = 232;
},
{
smooth = 0;
x = 290;
y = 33;
}
);
}
);
lib = {
};
name = c;
unicodes = (
);
width = 1082;
};
};
com.typemytype.robofont.mark = (
1,
0.1703,
0.1669,
0.8287
);
};
},
{
glyphname = d;
kernLeft = alpha;
lastChange = "2023-10-11 13:41:42 +0000";
layers = (
{
anchors = (
{
name = bottom;
pos = (543,0);
},
{
name = center;
pos = (836,1285);
},
{
name = top;
pos = (886,1456);
},
{
name = topright;
pos = (1109,1560);
}
);
layerId = "0331963E-C1C8-4E93-A463-84B984C1D75E";
shapes = (
{
closed = 1;
nodes = (
(681,-21,o),
(808,54,o),
(879,173,c),
(881,0,l),
(1096,0,l),
(1096,54,l),
(933,54,l),
(933,1560,l),
(879,1560,l),
(716,1560,l),
(716,1506,l),
(879,1506,l),
(879,883,l),
(806,1019,o),
(683,1102,o),
(512,1102,cs),
(256,1102,o),
(104,885,o),
(104,542,cs),
(104,521,ls),
(104,188,o),
(255,-21,o),
(510,-21,cs)
);
},
{
closed = 1;
nodes = (
(280,33,o),
(160,222,o),
(160,521,cs),
(160,542,ls),
(160,842,o),
(282,1048,o),
(511,1048,cs),
(718,1048,o),
(827,930,o),
(879,775,c),
(879,268,l),
(823,125,o),
(697,33,o),
(509,33,cs)
);
}
);
width = 1205;
},
{
anchors = (
{
name = bottom;
pos = (611,0);
},
{
name = center;
pos = (855,1232);
},
{
name = top;
pos = (860,1456);
},
{
name = topright;
pos = (1222,1560);
}
);
layerId = "B06AEEA2-953E-4FA5-BFB1-0445B6E4B274";
metricLeft = "=o";
shapes = (
{
closed = 1;
nodes = (
(634,-21,o),
(735,30,o),
(806,129,c),
(822,0,l),
(1156,0,l),
(1156,126,l),
(993,154,l),
(993,1560,l),
(796,1560,l),
(633,1560,l),
(633,1433,l),
(796,1405,l),
(796,964,l),
(727,1053,o),
(629,1102,o),
(501,1102,cs),
(234,1102,o),
(78,869,o),
(78,521,cs),
(78,500,ls),
(78,188,o),
(235,-21,o),
(499,-21,cs)
);
},
{
closed = 1;
nodes = (
(362,139,o),
(275,283,o),
(275,500,cs),
(275,521,ls),
(275,770,o),
(363,942,o),
(551,942,cs),
(664,942,o),
(745,885,o),
(796,794,c),
(796,292,l),
(744,195,o),
(666,139,o),
(549,139,cs)
);
}
);
width = 1218;
},
{
anchors = (
{
name = bottom;
pos = (589,-21);
},
{
name = center;
pos = (877,1198);
},
{
name = top;
pos = (859,1456);
},
{
name = topright;
pos = (1280,1560);
}
);
layerId = "55372407-EEEC-4390-8B77-FB5958F23D2B";
shapes = (
{
closed = 1;
nodes = (
(589,-21,o),
(676,33,o),
(742,134,c),
(768,0,l),
(1198,0,l),
(1198,205,l),
(1072,237,l),
(1072,1560,l),
(721,1560,l),
(569,1560,l),
(569,1354,l),
(721,1322,l),
(721,967,l),
(658,1052,o),
(578,1102,o),
(463,1102,cs),
(214,1102,o),
(60,876,o),
(60,539,cs),
(60,518,ls),
(60,193,o),
(212,-21,o),
(467,-21,cs)
);
},
{
closed = 1;
nodes = (
(452,248,o),
(411,346,o),
(411,518,cs),
(411,539,ls),
(411,715,o),
(457,833,o),
(578,833,cs),
(638,833,o),
(688,804,o),
(721,749,c),
(721,316,l),
(688,271,o),
(635,248,o),
(576,248,cs)
);
}
);
width = 1208;
}
);
metricLeft = "=o";
unicode = 100;
},
{
glyphname = dcroat;
lastChange = "2018-07-30 19:30:48 +0000";
layers = (
{
layerId = "0331963E-C1C8-4E93-A463-84B984C1D75E";
shapes = (
{
ref = d;
},
{
pos = (535,537);
ref = strokeshortcomb;
}
);
width = 1205;
},
{
layerId = "B06AEEA2-953E-4FA5-BFB1-0445B6E4B274";
shapes = (
{
ref = d;
},
{
pos = (513,491);
ref = strokeshortcomb;
}
);
width = 1218;
},
{
layerId = "55372407-EEEC-4390-8B77-FB5958F23D2B";
shapes = (
{
ref = d;
},
{
pos = (490,451);
ref = strokeshortcomb;
}
);
width = 1208;
},
{
associatedMasterId = "B06AEEA2-953E-4FA5-BFB1-0445B6E4B274";
layerId = "1AC26FC2-FF6B-43E2-AD16-C15BF2197E71";
name = "Jul 26 18, 15:40";
shapes = (
{
closed = 1;
nodes = (
(747.333,30.333,o),
(645.667,-21,o),
(511,-21,cs),
(247,-21,o),
(90,188,o),
(90,500,cs),
(90,521,ls),
(90,869,o),
(246.333,1102,o),
(513,1102,cs),
(641,1102,o),
(738.667,1053.333,o),
(808,964,c),
(808,1163,l),
(557,1163,l),
(557,1318,l),
(808,1318,l),
(808,1405,l),
(645,1433,l),
(645,1560,l),
(1005,1560,l),
(1005,1318,l),
(1198,1318,l),
(1198,1163,l),
(1005,1163,l),
(1005,154,l),
(1168,126,l),
(1168,0,l),
(834,0,l),
(818,129,l)
);
},
{
closed = 1;
nodes = (
(287,282.667,o),
(374.333,139,o),
(561,139,cs),
(678.333,139,o),
(756,194.667,o),
(808,292,c),
(808,794,l),
(757.333,884.667,o),
(676.333,942,o),
(563,942,cs),
(375,942,o),
(287,770.333,o),
(287,521,cs),
(287,500,ls)
);
}
);
width = 1259;
}
);
unicode = 273;
},
{
glyphname = eth;
lastChange = "2023-10-11 13:41:42 +0000";
layers = (
{
layerId = "0331963E-C1C8-4E93-A463-84B984C1D75E";
shapes = (
{
closed = 1;
nodes = (
(799,-21,o),
(996,208,o),
(996,535,cs),
(996,615,ls),
(996,931,o),
(920,1148,o),
(760,1311,c),
(1026,1463,l),
(997,1511,l),
(717,1351,l),
(644,1414,o),
(556,1468,o),
(453,1517,c),
(433,1467,l),
(524,1423,o),
(600,1377,o),
(667,1322,c),
(344,1137,l),
(372,1089,l),
(710,1282,l),
(831,1162,o),
(910,1000,o),
(931,783,c),
(926,779,l),
(857,887,o),
(713,953,o),
(546,953,cs),
(251,953,o),
(78,767,o),
(78,446,cs),
(78,182,o),
(269,-21,o),
(534,-21,cs)
);
},
{
closed = 1;
nodes = (
(290,37,o),
(133,227,o),
(133,446,cs),
(133,713,o),
(269,895,o),
(546,895,cs),
(757,895,o),
(888,799,o),
(942,676,c),
(942,617,l),
(942,535,ls),
(942,243,o),
(777,37,o),
(538,37,cs)
);
}
);
width = 1170;
},
{
layerId = "B06AEEA2-953E-4FA5-BFB1-0445B6E4B274";
shapes = (
{
closed = 1;
nodes = (
(862,-21,o),
(1078,208,o),
(1078,535,cs),
(1078,633,ls),
(1078,900,o),
(998,1125,o),
(859,1286,c),
(1074,1409,l),
(997,1511,l),
(764,1378,l),
(684,1441,o),
(593,1488,o),
(493,1517,c),
(433,1353,l),
(489,1332,o),
(540,1308,o),
(588,1277,c),
(343,1137,l),
(420,1035,l),
(692,1190,l),
(771,1107,o),
(828,998,o),
(855,867,c),
(851,862,l),
(782,931,o),
(678,978,o),
(567,978,cs),
(283,978,o),
(78,770,o),
(78,466,cs),
(78,190,o),
(284,-21,o),
(575,-21,cs)
);
},
{
closed = 1;
nodes = (
(392,133,o),
(275,290,o),
(275,466,cs),
(275,665,o),
(392,823,o),
(567,823,cs),
(723,823,o),
(833,762,o),
(881,685,c),
(881,635,l),
(881,535,ls),
(881,303,o),
(756,133,o),
(579,133,cs)
);
}
);
width = 1191;
},
{
layerId = "55372407-EEEC-4390-8B77-FB5958F23D2B";
shapes = (
{
closed = 1;
nodes = (
(942,-21,o),
(1191,242,o),
(1191,616,cs),
(1191,678,ls),
(1191,921,o),
(1106,1127,o),
(955,1280,c),
(1108,1362,l),
(1031,1482,l),
(839,1376,l),
(741,1443,o),
(628,1490,o),
(506,1517,c),
(394,1265,l),
(439,1251,o),
(487,1233,o),
(533,1211,c),
(377,1127,l),
(456,1007,l),
(661,1119,l),
(727,1055,o),
(778,982,o),
(805,901,c),
(801,898,l),
(736,939,o),
(647,960,o),
(546,960,cs),
(231,960,o),
(49,769,o),
(49,484,cs),
(49,191,o),
(278,-21,o),
(612,-21,cs)
);
},
{
closed = 1;
nodes = (
(486,246,o),
(398,339,o),
(398,480,cs),
(398,625,o),
(476,713,o),
(634,713,cs),
(721,713,o),
(797,687,o),
(840,649,c),
(840,630,l),
(840,616,ls),
(840,399,o),
(759,246,o),
(606,246,cs)
);
}
);
width = 1233;
}
);
unicode = 240;
},
{
glyphname = e;
kernLeft = o;
kernRight = e;
lastChange = "2023-10-11 13:41:42 +0000";
layers = (
{
anchors = (
{
name = bottom;
pos = (544,0);
},
{
name = ogonek;
pos = (852,0);
},
{
name = top;
pos = (553,1082);
}
);
layerId = "0331963E-C1C8-4E93-A463-84B984C1D75E";
shapes = (
{
closed = 1;
nodes = (
(719,-21,o),
(828,37,o),
(917,123,c),
(888,165,l),
(805,83,o),
(701,33,o),
(564,33,cs),
(332,33,o),
(166,232,o),
(166,500,cs),
(166,577,l),
(957,577,l),
(957,660,ls),
(957,929,o),
(795,1102,o),
(551,1102,cs),
(298,1102,o),
(112,875,o),
(112,564,cs),
(112,500,ls),
(112,194,o),
(304,-21,o),
(564,-21,cs)
);
},
{
closed = 1;
nodes = (
(174,637,l),
(193,872,o),
(346,1048,o),
(551,1048,cs),
(764,1048,o),
(903,884,o),
(903,664,cs),
(903,631,l),
(177,631,l)
);
}
);
width = 1084;
},
{
anchors = (
{
name = bottom;
pos = (539,0);
},
{
name = ogonek;
pos = (853,0);
},
{
name = top;
pos = (536,1082);
}
);
layerId = "B06AEEA2-953E-4FA5-BFB1-0445B6E4B274";
shapes = (
{
closed = 1;
nodes = (
(746,-21,o),
(873,37,o),
(950,112,c),
(873,240,l),
(800,173,o),
(700,133,o),
(567,133,cs),
(384,133,o),
(279,282,o),
(275,490,c),
(278,495,l),
(980,495,l),
(980,618,ls),
(980,911,o),
(828,1102,o),
(537,1102,cs),
(286,1102,o),
(74,872,o),
(74,564,cs),
(74,520,ls),
(74,200,o),
(266,-21,o),
(567,-21,cs)
);
},
{
closed = 1;
nodes = (
(282,654,l),
(303,822,o),
(405,947,o),
(537,947,cs),
(700,947,o),
(783,830,o),
(783,675,cs),
(783,649,l),
(284,649,l)
);
}
);
width = 1059;
},
{
anchors = (
{
name = bottom;
pos = (567,0);
},
{
name = ogonek;
pos = (908,0);
},
{
name = top;
pos = (558,1082);
}
);
layerId = "55372407-EEEC-4390-8B77-FB5958F23D2B";
shapes = (
{
closed = 1;
nodes = (
(762,-21,o),
(905,29,o),
(1002,99,c),
(922,311,l),
(824,266,o),
(740,246,o),
(650,246,cs),
(512,246,o),
(441,320,o),
(426,422,c),
(427,429,l),
(1022,429,l),
(1022,610,ls),
(1022,929,o),
(859,1102,o),
(566,1102,cs),
(240,1102,o),
(63,871,o),
(63,541,cs),
(63,504,ls),
(63,203,o),
(271,-21,o),
(590,-21,cs)
);
},
{
closed = 1;
nodes = (
(423,651,l),
(434,765,o),
(467,848,o),
(574,848,cs),
(672,848,o),
(702,788,o),
(702,672,cs),
(702,646,l),
(427,646,l)
);
}
);
width = 1090;
}
);
unicode = 101;
userData = {
com.typemytype.robofont.layerData = {
mask = {
anchors = (
);
components = (
);
contours = (
{
points = (
{
segmentType = curve;
smooth = 1;
x = 566;
y = -21;
},
{
smooth = 0;
x = 319.33333;
y = -21;
},
{
smooth = 0;
x = 112;
y = 204;
},
{
segmentType = curve;
smooth = 1;
x = 112;
y = 500;
},
{
segmentType = line;
smooth = 1;
x = 112;
y = 564;
},
{
smooth = 0;
x = 112;
y = 874.66667;
},
{
smooth = 0;
x = 308.33333;
y = 1102;
},
{
segmentType = curve;
smooth = 1;
x = 563;
y = 1102;
},
{
smooth = 0;
x = 807;
y = 1102;
},
{
smooth = 0;
x = 977;
y = 929.33333;
},
{
segmentType = curve;
smooth = 1;
x = 977;
y = 660;
},
{
segmentType = line;
smooth = 0;
x = 977;
y = 577;
},
{
segmentType = line;
smooth = 0;
x = 166;
y = 577;
},
{
segmentType = line;
smooth = 0;
x = 166;
y = 564;
},
{
segmentType = line;
smooth = 1;
x = 166;
y = 500;
},
{
smooth = 0;
x = 166;
y = 238.66667;
},
{
smooth = 0;
x = 339.33333;
y = 33;
},
{
segmentType = curve;
smooth = 1;
x = 566;
y = 33;
},
{
smooth = 0;
x = 727.33333;
y = 33;
},
{
smooth = 0;
x = 830.66667;
y = 77;
},
{
segmentType = curve;
smooth = 0;
x = 908;
y = 165;
},
{
segmentType = line;
smooth = 0;
x = 937;
y = 123;
},
{
smooth = 0;
x = 851.66667;
y = 28.33333;
},
{
smooth = 0;
x = 731.33333;
y = -21;
}
);
},
{
points = (
{
segmentType = curve;
smooth = 1;
x = 563;
y = 1048;
},
{
smooth = 0;
x = 348.33333;
y = 1048;
},
{
smooth = 0;
x = 192.66667;
y = 871.66667;
},
{
segmentType = curve;
smooth = 0;
x = 174;
y = 637;
},
{
segmentType = line;
smooth = 0;
x = 177;
y = 631;
},
{
segmentType = line;
smooth = 0;
x = 923;
y = 631;
},
{
segmentType = line;
smooth = 1;
x = 923;
y = 664;
},
{
smooth = 0;
x = 923;
y = 884;
},
{
smooth = 0;
x = 776.33333;
y = 1048;
}
);
},
{
points = (
{
segmentType = curve;
smooth = 1;
x = 566;
y = -21;
},
{
smooth = 0;
x = 319.33333;
y = -21;
},
{
smooth = 0;
x = 112;
y = 204;
},
{
segmentType = curve;
smooth = 1;
x = 112;
y = 500;
},
{
segmentType = line;
smooth = 1;
x = 112;
y = 564;
},
{
smooth = 0;
x = 112;
y = 874.66667;
},
{
smooth = 0;
x = 308.33333;
y = 1102;
},
{
segmentType = curve;
smooth = 1;
x = 563;
y = 1102;
},
{
smooth = 0;
x = 807;
y = 1102;
},
{
smooth = 0;
x = 977;
y = 929.33333;
},
{
segmentType = curve;
smooth = 1;
x = 977;
y = 660;
},
{
segmentType = line;
smooth = 0;
x = 977;
y = 577;
},
{
segmentType = line;
smooth = 0;
x = 166;
y = 577;
},
{
segmentType = line;
smooth = 1;
x = 166;
y = 500;
},
{
smooth = 0;
x = 166;
y = 239;
},
{
smooth = 0;
x = 339.33333;
y = 33;
},
{
segmentType = curve;
smooth = 1;
x = 566;
y = 33;
},
{
smooth = 0;
x = 727.33333;
y = 33;
},
{
smooth = 0;
x = 830.66667;
y = 77;
},
{
segmentType = curve;
smooth = 0;
x = 908;
y = 165;
},
{
segmentType = line;
smooth = 0;
x = 937;
y = 123;
},
{
smooth = 0;
x = 851.66667;
y = 28.33333;
},
{
smooth = 0;
x = 731.33333;
y = -21;
}
);
},
{
points = (
{
segmentType = curve;
smooth = 1;
x = 563;
y = 1048;
},
{
smooth = 0;
x = 348.33333;
y = 1048;
},
{
smooth = 0;
x = 192.66667;
y = 871.66667;
},
{
segmentType = curve;
smooth = 0;
x = 174;
y = 637;
},
{
segmentType = line;
smooth = 0;
x = 177;
y = 631;
},
{
segmentType = line;
smooth = 0;
x = 923;
y = 631;
},
{
segmentType = line;
smooth = 1;
x = 923;
y = 664;
},
{
smooth = 0;
x = 923;
y = 884;
},
{
smooth = 0;
x = 776.33333;
y = 1048;
}
);
}
);
lib = {
};
name = e;
unicodes = (
);
width = 1084;
};
};
com.typemytype.robofont.mark = (
1,
0.1703,
0.1669,
0.8287
);
};
},
{
color = 0;
glyphname = schwa;
lastChange = "2023-10-11 13:41:42 +0000";
layers = (
{
layerId = "0331963E-C1C8-4E93-A463-84B984C1D75E";
shapes = (
{
closed = 1;
nodes = (
(754,-21,o),
(952,205,o),
(952,517,cs),
(952,581,ls),
(952,876,o),
(743,1102,o),
(498,1102,cs),
(331,1102,o),
(211,1051,o),
(127,958,c),
(156,916,l),
(232,1003,o),
(335,1048,o),
(498,1048,cs),
(723,1048,o),
(898,841,o),
(898,581,cs),
(898,533,o),
(898,520,o),
(898,504,c),
(87,504,l),
(87,421,ls),
(87,150,o),
(256,-21,o),
(501,-21,cs)
);
},
{
closed = 1;
nodes = (
(286,33,o),
(141,196,o),
(141,417,cs),
(141,450,l),
(886,450,l),
(889,444,l),
(869,208,o),
(714,33,o),
(501,33,cs)
);
}
);
width = 1032;
},
{
layerId = "B06AEEA2-953E-4FA5-BFB1-0445B6E4B274";
shapes = (
{
closed = 1;
nodes = (
(796,-19,o),
(1009,209,o),
(1009,518,cs),
(1009,562,ls),
(1009,881,o),
(816,1103,o),
(516,1103,cs),
(336,1103,o),
(210,1045,o),
(133,970,c),
(210,841,l),
(283,906,o),
(381,949,o),
(516,949,cs),
(699,949,o),
(803,799,o),
(807,592,c),
(807,590,o),
(807,589,o),
(807,587,c),
(103,587,l),
(103,464,ls),
(103,169,o),
(254,-19,o),
(547,-19,cs)
);
},
{
closed = 1;
nodes = (
(383,135,o),
(300,251,o),
(300,407,cs),
(300,432,l),
(798,432,l),
(800,427,l),
(779,258,o),
(676,135,o),
(547,135,cs)
);
}
);
width = 1115;
},
{
layerId = "55372407-EEEC-4390-8B77-FB5958F23D2B";
shapes = (
{
closed = 1;
nodes = (
(883,-20,o),
(1061,208,o),
(1061,541,cs),
(1061,578,ls),
(1061,880,o),
(853,1105,o),
(534,1105,cs),
(362,1105,o),
(200,1051,o),
(105,983,c),
(187,771,l),
(302,819,o),
(377,836,o),
(472,836,cs),
(606,836,o),
(684,761,o),
(698,660,c),
(698,658,o),
(698,655,o),
(698,653,c),
(85,653,l),
(85,472,ls),
(85,169,o),
(263,-19,o),
(558,-19,cs)
);
},
{
closed = 1;
nodes = (
(468,248,o),
(428,304,o),
(428,410,cs),
(428,437,l),
(697,437,l),
(701,432,l),
(688,317,o),
(651,248,o),
(555,248,cs)
);
}
);
width = 1121;
}
);
unicode = 601;
userData = {
com.typemytype.robofont.layerData = {
mask = {
anchors = (
);
components = (
);
contours = (
{
points = (
{
segmentType = curve;
smooth = 1;
x = 498;
y = 1102;
},
{
smooth = 0;
x = 743.33333;
y = 1102;
},
{
smooth = 0;
x = 952;
y = 875.66667;
},
{
segmentType = curve;
smooth = 1;
x = 952;
y = 581;
},
{
segmentType = line;
smooth = 1;
x = 952;
y = 517;
},
{
smooth = 0;
x = 952;
y = 205;
},
{
smooth = 0;
x = 754.33333;
y = -21;
},
{
segmentType = curve;
smooth = 1;
x = 501;
y = -21;
},
{
smooth = 0;
x = 255.66667;
y = -21;
},
{
smooth = 0;
x = 87;
y = 150.33333;
},
{
segmentType = curve;
smooth = 1;
x = 87;
y = 421;
},
{
segmentType = line;
smooth = 0;
x = 87;
y = 504;
},
{
segmentType = line;
smooth = 0;
x = 897;
y = 504;
},
{
smooth = 0;
x = 897;
y = 505.33333;
},
{
smooth = 0;
x = 898;
y = 513;
},
{
segmentType = curve;
smooth = 1;
x = 898;
y = 517;
},
{
segmentType = line;
smooth = 1;
x = 898;
y = 581;
},
{
smooth = 0;
x = 898;
y = 841;
},
{
smooth = 0;
x = 723.33333;
y = 1048;
},
{
segmentType = curve;
smooth = 1;
x = 498;
y = 1048;
},
{
smooth = 0;
x = 335.33333;
y = 1048;
},
{
smooth = 0;
x = 232;
y = 1002.66667;
},
{
segmentType = curve;
smooth = 0;
x = 156;
y = 916;
},
{
segmentType = line;
smooth = 0;
x = 127;
y = 958;
},
{
smooth = 0;
x = 211;
y = 1051.33333;
},
{
smooth = 0;
x = 331.33333;
y = 1102;
}
);
},
{
points = (
{
segmentType = curve;
smooth = 1;
x = 501;
y = 33;
},
{
smooth = 0;
x = 714.33333;
y = 33;
},
{
smooth = 0;
x = 869;
y = 208;
},
{
segmentType = curve;
smooth = 0;
x = 889;
y = 444;
},
{
segmentType = line;
smooth = 0;
x = 886;
y = 450;
},
{
segmentType = line;
smooth = 0;
x = 141;
y = 450;
},
{
segmentType = line;
smooth = 1;
x = 141;
y = 417;
},
{
smooth = 0;
x = 141;
y = 195.66667;
},
{
smooth = 0;
x = 286.33333;
y = 33;
}
);
}
);
lib = {
};
name = schwa;
unicodes = (
);
width = 1032;
};
};
};
},
{
glyphname = f;
lastChange = "2023-10-11 13:41:42 +0000";
layers = (
{
anchors = (
{
name = bottom;
pos = (361,0);
},
{
name = top;
pos = (361,2146);
}
);
layerId = "0331963E-C1C8-4E93-A463-84B984C1D75E";
shapes = (
{
closed = 1;
nodes = (
(494,0,l),
(494,54,l),
(331,54,l),
(331,1027,l),
(617,1027,l),
(617,1082,l),
(331,1082,l),
(331,1260,ls),
(331,1427,o),
(417,1527,o),
(561,1527,cs),
(612,1527,o),
(637,1523,o),
(680,1512,c),
(688,1564,l),
(648,1576,o),
(604,1581,o),
(560,1581,cs),
(381,1581,o),
(277,1464,o),
(277,1260,cs),
(277,1082,l),
(89,1082,l),
(89,1027,l),
(277,1027,l),
(277,54,l),
(114,54,l),
(114,0,l)
);
}
);
width = 722;
},
{
anchors = (
{
name = bottom;
pos = (363,0);
},
{
name = top;
pos = (483,1456);
}
);
layerId = "B06AEEA2-953E-4FA5-BFB1-0445B6E4B274";
shapes = (
{
closed = 1;
nodes = (
(616,0,l),
(616,126,l),
(430,154,l),
(430,936,l),
(666,936,l),
(666,1082,l),
(430,1082,l),
(430,1219,ls),
(430,1350,o),
(485,1420,o),
(601,1420,cs),
(637,1420,o),
(683,1415,o),
(707,1410,c),
(731,1560,l),
(675,1573,o),
(621,1581,o),
(576,1581,cs),
(360,1581,o),
(233,1450,o),
(233,1219,cs),
(233,1082,l),
(64,1082,l),
(64,936,l),
(233,936,l),
(233,154,l),
(70,126,l),
(70,0,l)
);
}
);
width = 725;
},
{
anchors = (
{
name = bottom;
pos = (423,0);
},
{
name = top;
pos = (643,1456);
}
);
layerId = "55372407-EEEC-4390-8B77-FB5958F23D2B";
shapes = (
{
closed = 1;
nodes = (
(757,0,l),
(757,205,l),
(563,237,l),
(563,840,l),
(814,840,l),
(814,1082,l),
(563,1082,l),
(563,1191,ls),
(563,1268,o),
(608,1311,o),
(700,1311,cs),
(746,1311,o),
(788,1305,o),
(825,1295,c),
(851,1554,l),
(805,1567,o),
(715,1581,o),
(643,1581,cs),
(371,1581,o),
(212,1441,o),
(212,1191,cs),
(212,1082,l),
(56,1082,l),
(56,840,l),
(212,840,l),
(212,237,l),
(85,205,l),
(85,0,l)
);
}
);
width = 845;
}
);
unicode = 102;
},
{
glyphname = g;
kernLeft = alpha;
kernRight = g;
lastChange = "2023-10-05 08:40:00 +0000";
layers = (
{
anchors = (
{
name = bottom;
pos = (577,-416);
},
{
name = top;
pos = (559,1082);
}
);
layerId = "0331963E-C1C8-4E93-A463-84B984C1D75E";
shapes = (
{
closed = 1;
nodes = (
(777,-437,o),
(933,-263,o),
(933,14,cs),
(933,1082,l),
(887,1082,l),
(879,882,l),
(807,1018,o),
(683,1102,o),
(512,1102,cs),
(256,1102,o),
(104,885,o),
(104,542,cs),
(104,521,ls),
(104,188,o),
(255,-21,o),
(510,-21,cs),
(679,-21,o),
(806,54,o),
(878,171,c),
(878,14,ls),
(878,-233,o),
(753,-384,o),
(522,-384,cs),
(406,-384,o),
(323,-364,o),
(226,-321,c),
(210,-375,l),
(295,-414,o),
(419,-437,o),
(524,-437,cs)
);
},
{
closed = 1;
nodes = (
(280,33,o),
(159,222,o),
(159,521,cs),
(159,542,ls),
(159,842,o),
(282,1048,o),
(511,1048,cs),
(722,1048,o),
(827,926,o),
(878,767,c),
(878,276,l),
(825,128,o),
(701,33,o),
(509,33,cs)
);
},
{
closed = 1;
nodes = (
(1076,1028,l),
(1076,1082,l),
(906,1082,l),
(913,1028,l)
);
}
);
width = 1155;
},
{
anchors = (
{
name = bottom;
pos = (555,-416);
},
{
name = top;
pos = (585,1082);
}
);
layerId = "B06AEEA2-953E-4FA5-BFB1-0445B6E4B274";
metricLeft = "=o";
shapes = (
{
closed = 1;
nodes = (
(837,-437,o),
(999,-266,o),
(999,14,cs),
(999,1082,l),
(833,1082,l),
(815,946,l),
(746,1047,o),
(643,1102,o),
(507,1102,cs),
(239,1102,o),
(78,869,o),
(78,521,cs),
(78,500,ls),
(78,189,o),
(240,-21,o),
(505,-21,cs),
(633,-21,o),
(731,26,o),
(802,117,c),
(802,14,ls),
(802,-169,o),
(723,-271,o),
(547,-271,cs),
(452,-271,o),
(344,-243,o),
(271,-204,c),
(220,-357,l),
(312,-406,o),
(445,-437,o),
(549,-437,cs)
);
},
{
closed = 1;
nodes = (
(366,139,o),
(275,283,o),
(275,500,cs),
(275,521,ls),
(275,768,o),
(368,942,o),
(556,942,cs),
(671,942,o),
(751,884,o),
(802,792,c),
(802,294,l),
(750,195,o),
(673,139,o),
(554,139,cs)
);
},
{
closed = 1;
nodes = (
(1133,956,l),
(1133,1082,l),
(892,1082,l),
(969,921,l)
);
}
);
width = 1157;
},
{
anchors = (
{
name = bottom;
pos = (596,-555);
},
{
name = top;
pos = (596,1082);
}
);
layerId = "55372407-EEEC-4390-8B77-FB5958F23D2B";
shapes = (
{
closed = 1;
nodes = (
(864,-437,o),
(1072,-245,o),
(1072,43,cs),
(1072,1082,l),
(763,1082,l),
(741,946,l),
(678,1045,o),
(593,1102,o),
(468,1102,cs),
(213,1102,o),
(60,876,o),
(60,539,cs),
(60,518,ls),
(60,194,o),
(214,-21,o),
(479,-21,cs),
(581,-21,o),
(660,21,o),
(720,96,c),
(720,45,ls),
(720,-92,o),
(655,-177,o),
(511,-177,cs),
(423,-177,o),
(310,-154,o),
(205,-113,c),
(149,-355,l),
(260,-408,o),
(422,-437,o),
(535,-437,cs)
);
},
{
closed = 1;
nodes = (
(452,248,o),
(411,346,o),
(411,518,cs),
(411,539,ls),
(411,716,o),
(456,833,o),
(582,833,cs),
(640,833,o),
(691,808,o),
(720,760,c),
(720,307,l),
(691,267,o),
(640,248,o),
(582,248,cs)
);
},
{
closed = 1;
nodes = (
(1195,875,l),
(1195,1082,l),
(873,1082,l),
(1031,840,l)
);
}
);
width = 1224;
}
);
metricLeft = "=o";
unicode = 103;
userData = {
com.typemytype.robofont.mark = (
1,
0.1703,
0.1669,
0.8287
);
};
},
{
glyphname = h;
kernLeft = h;
kernRight = eta;
lastChange = "2023-10-11 13:41:42 +0000";
layers = (
{
anchors = (
{
name = bottom;
pos = (639,0);
},
{
name = center;
pos = (323,1285);
},
{
name = top;
pos = (257,1456);
}
);
layerId = "0331963E-C1C8-4E93-A463-84B984C1D75E";
shapes = (
{
closed = 1;
nodes = (
(442,0,l),
(442,54,l),
(279,54,l),
(279,676,l),
(311,893,o),
(431,1048,o),
(664,1048,cs),
(839,1048,o),
(952,944,o),
(952,660,cs),
(952,54,l),
(789,54,l),
(789,0,l),
(1170,0,l),
(1170,54,l),
(1007,54,l),
(1007,658,ls),
(1007,965,o),
(888,1102,o),
(663,1102,cs),
(476,1102,o),
(346,1011,o),
(279,854,c),
(279,1560,l),
(62,1560,l),
(62,1506,l),
(225,1506,l),
(225,54,l),
(62,54,l),
(62,0,l)
);
}
);
width = 1278;
},
{
anchors = (
{
name = bottom;
pos = (658,0);
},
{
name = center;
pos = (351,1232);
},
{
name = top;
pos = (318,1456);
}
);
layerId = "B06AEEA2-953E-4FA5-BFB1-0445B6E4B274";
shapes = (
{
closed = 1;
nodes = (
(572,0,l),
(572,126,l),
(409,154,l),
(409,799,l),
(466,887,o),
(558,942,o),
(666,942,cs),
(818,942,o),
(895,859,o),
(895,680,cs),
(895,154,l),
(732,126,l),
(732,0,l),
(1255,0,l),
(1255,126,l),
(1092,154,l),
(1092,678,ls),
(1092,966,o),
(958,1102,o),
(726,1102,cs),
(594,1102,o),
(484,1042,o),
(409,938,c),
(409,1560,l),
(49,1560,l),
(49,1433,l),
(212,1405,l),
(212,154,l),
(49,126,l),
(49,0,l)
);
}
);
width = 1315;
},
{
anchors = (
{
name = bottom;
pos = (647,0);
},
{
name = center;
pos = (368,1198);
},
{
name = top;
pos = (352,1456);
}
);
layerId = "55372407-EEEC-4390-8B77-FB5958F23D2B";
shapes = (
{
closed = 1;
nodes = (
(625,0,l),
(625,205,l),
(522,237,l),
(522,766,l),
(554,812,o),
(604,833,o),
(666,833,cs),
(755,833,o),
(804,789,o),
(804,648,cs),
(804,237,l),
(701,205,l),
(701,0,l),
(1281,0,l),
(1281,205,l),
(1155,237,l),
(1155,646,ls),
(1155,957,o),
(1017,1102,o),
(809,1102,cs),
(682,1102,o),
(586,1045,o),
(522,948,c),
(522,1560,l),
(21,1560,l),
(21,1354,l),
(173,1322,l),
(173,237,l),
(46,205,l),
(46,0,l)
);
}
);
width = 1294;
}
);
unicode = 104;
},
{
glyphname = hbar;
lastChange = "2018-07-30 19:30:49 +0000";
layers = (
{
layerId = "0331963E-C1C8-4E93-A463-84B984C1D75E";
shapes = (
{
ref = h;
},
{
pos = (22,537);
ref = strokeshortcomb;
}
);
width = 1278;
},
{
layerId = "B06AEEA2-953E-4FA5-BFB1-0445B6E4B274";
shapes = (
{
ref = h;
},
{
pos = (9,491);
ref = strokeshortcomb;
}
);
width = 1315;
},
{
layerId = "55372407-EEEC-4390-8B77-FB5958F23D2B";
shapes = (
{
ref = h;
},
{
pos = (-19,451);
ref = strokeshortcomb;
}
);
width = 1294;
},
{
associatedMasterId = "B06AEEA2-953E-4FA5-BFB1-0445B6E4B274";
layerId = "68B87F8B-E7B2-47A8-A8AD-34D991F40F4E";
name = "Jul 26 18, 15:40";
shapes = (
{
closed = 1;
nodes = (
(692,1154,l),
(51,1154,l),
(51,1309,l),
(692,1309,l)
);
},
{
pos = (43,0);
ref = h;
}
);
width = 1358;
},
{
associatedMasterId = "55372407-EEEC-4390-8B77-FB5958F23D2B";
layerId = "612A96C3-6BB1-4F6B-8C8C-355AD3BDE1CA";
name = "Jul 28 18, 13:07";
shapes = (
{
closed = 1;
nodes = (
(721,1099,l),
(-17,1099,l),
(-17,1254,l),
(721,1254,l)
);
},
{
pos = (22,0);
ref = h;
}
);
width = 1316;
},
{
associatedMasterId = "0331963E-C1C8-4E93-A463-84B984C1D75E";
layerId = "59D48994-CC56-4FD6-A106-08E0BFE5301B";
name = "Jul 28 18, 13:30";
shapes = (
{
closed = 1;
nodes = (
(694,1259,l),
(107,1259,l),
(107,1313,l),
(694,1313,l)
);
},
{
pos = (30,0);
ref = h;
}
);
visible = 1;
width = 1308;
}
);
metricRight = h;
unicode = 295;
},
{
glyphname = i;
kernLeft = eta;
lastChange = "2018-08-01 20:26:05 +0000";
layers = (
{
layerId = "0331963E-C1C8-4E93-A463-84B984C1D75E";
shapes = (
{
ref = idotless;
},
{
pos = (194,0);
ref = dotaccentcomb;
}
);
width = 609;
},
{
layerId = "B06AEEA2-953E-4FA5-BFB1-0445B6E4B274";
shapes = (
{
ref = idotless;
},
{
pos = (180,0);
ref = dotaccentcomb;
}
);
width = 652;
},
{
layerId = "55372407-EEEC-4390-8B77-FB5958F23D2B";
shapes = (
{
ref = idotless;
},
{
pos = (123,0);
ref = dotaccentcomb;
}
);
width = 667;
},
{
associatedMasterId = "B06AEEA2-953E-4FA5-BFB1-0445B6E4B274";
layerId = "B536E011-3433-4155-8617-30FBE55867EA";
name = "Jul 26 18, 11:41";
shapes = (
{
closed = 1;
nodes = (
(230,154,l),
(230,927,l),
(67,955,l),
(67,1082,l),
(427,1082,l),
(427,154,l),
(590,126,l),
(590,0,l),
(67,0,l),
(67,126,l)
);
},
{
closed = 1;
nodes = (
(220,1349,l),
(220,1560,l),
(427,1560,l),
(427,1349,l)
);
}
);
width = 652;
},
{
associatedMasterId = "0331963E-C1C8-4E93-A463-84B984C1D75E";
layerId = "71D474A9-78DF-4140-ACE7-7C96129D72FD";
name = "Jul 27 18, 16:44";
shapes = (
{
closed = 1;
nodes = (
(252,54,l),
(252,1028,l),
(89,1028,l),
(89,1082,l),
(306,1082,l),
(306,54,l),
(469,54,l),
(469,0,l),
(89,0,l),
(89,54,l)
);
},
{
closed = 1;
nodes = (
(234,1420,l),
(234,1560,l),
(306,1560,l),
(306,1420,l)
);
}
);
visible = 1;
width = 609;
}
);
unicode = 105;
userData = {
com.typemytype.robofont.layerData = {
mask = {
anchors = (
);
components = (
);
contours = (
{
points = (
{
segmentType = line;
smooth = 0;
x = 89;
y = 54;
},
{
segmentType = line;
smooth = 0;
x = 252;
y = 54;
},
{
segmentType = line;
smooth = 0;
x = 252;
y = 1028;
},
{
segmentType = line;
smooth = 0;
x = 89;
y = 1028;
},
{
segmentType = line;
smooth = 0;
x = 89;
y = 1082;
},
{
segmentType = line;
smooth = 0;
x = 306;
y = 1082;
},
{
segmentType = line;
smooth = 0;
x = 306;
y = 54;
},
{
segmentType = line;
smooth = 0;
x = 469;
y = 54;
},
{
segmentType = line;
smooth = 0;
x = 469;
y = 0;
},
{
segmentType = line;
smooth = 0;
x = 89;
y = 0;
}
);
},
{
points = (
{
segmentType = line;
smooth = 0;
x = 306;
y = 1422;
},
{
segmentType = line;
smooth = 0;
x = 252;
y = 1422;
},
{
segmentType = line;
smooth = 0;
x = 252;
y = 1560;
},
{
segmentType = line;
smooth = 0;
x = 306;
y = 1560;
}
);
}
);
lib = {
};
name = i;
unicodes = (
);
width = 609;
};
};
com.typemytype.robofont.mark = (
1,
0.1703,
0.1669,
0.8287
);
};
},
{
glyphname = idotless;
lastChange = "2018-07-27 22:42:56 +0000";
layers = (
{
anchors = (
{
name = bottom;
pos = (281,0);
},
{
name = ogonek;
pos = (469,0);
},
{
name = top;
pos = (271,1082);
}
);
layerId = "0331963E-C1C8-4E93-A463-84B984C1D75E";
shapes = (
{
closed = 1;
nodes = (
(469,0,l),
(469,54,l),
(306,54,l),
(306,1082,l),
(89,1082,l),
(89,1028,l),
(252,1028,l),
(252,54,l),
(89,54,l),
(89,0,l)
);
}
);
width = 609;
},
{
anchors = (
{
name = bottom;
pos = (328,0);
},
{
name = ogonek;
pos = (590,0);
},
{
name = top;
pos = (324,1082);
}
);
layerId = "B06AEEA2-953E-4FA5-BFB1-0445B6E4B274";
shapes = (
{
closed = 1;
nodes = (
(590,0,l),
(590,126,l),
(427,154,l),
(427,1082,l),
(67,1082,l),
(67,955,l),
(230,927,l),
(230,154,l),
(67,126,l),
(67,0,l)
);
}
);
width = 652;
},
{
anchors = (
{
name = bottom;
pos = (344,0);
},
{
name = ogonek;
pos = (650,0);
},
{
name = top;
pos = (344,1082);
}
);
layerId = "55372407-EEEC-4390-8B77-FB5958F23D2B";
shapes = (
{
closed = 1;
nodes = (
(650,0,l),
(650,205,l),
(524,237,l),
(524,1082,l),
(22,1082,l),
(22,876,l),
(173,844,l),
(173,237,l),
(46,205,l),
(46,0,l)
);
}
);
width = 667;
}
);
unicode = 305;
},
{
glyphname = iacute;
lastChange = "2018-07-30 19:30:48 +0000";
layers = (
{
layerId = "0331963E-C1C8-4E93-A463-84B984C1D75E";
shapes = (
{
ref = idotless;
},
{
pos = (171,0);
ref = acutecomb;
}
);
width = 609;
},
{
layerId = "B06AEEA2-953E-4FA5-BFB1-0445B6E4B274";
shapes = (
{
ref = idotless;
},
{
pos = (163,0);
ref = acutecomb;
}
);
width = 652;
},
{
layerId = "55372407-EEEC-4390-8B77-FB5958F23D2B";
shapes = (
{
ref = idotless;
},
{
pos = (96,0);
ref = acutecomb;
}
);
width = 667;
},
{
anchors = (
{
name = _top;
pos = (390,1112);
},
{
name = top;
pos = (390,1508);
}
);
associatedMasterId = "55372407-EEEC-4390-8B77-FB5958F23D2B";
layerId = "6E5A119C-0D14-444C-A50B-02DD4B706F84";
name = "Jul 26 18, 10:43";
shapes = (
{
closed = 1;
nodes = (
(58,1082,l),
(560,1082,l),
(560,237,l),
(686,205,l),
(686,0,l),
(82,0,l),
(82,205,l),
(209,237,l),
(209,844,l),
(58,876,l)
);
},
{
closed = 1;
nodes = (
(730,1508,l),
(732,1502,l),
(452,1242,l),
(171,1242,l),
(164,1242,l),
(372,1508,l)
);
}
);
width = 695;
}
);
unicode = 237;
},
{
glyphname = jdotless;
lastChange = "2023-10-11 13:41:42 +0000";
layers = (
{
anchors = (
{
name = bottom;
pos = (282,-555);
},
{
name = top;
pos = (352,1082);
}
);
layerId = "0331963E-C1C8-4E93-A463-84B984C1D75E";
shapes = (
{
closed = 1;
nodes = (
(288,-437,o),
(393,-312,o),
(393,-89,cs),
(393,1082,l),
(176,1082,l),
(176,1028,l),
(339,1028,l),
(339,-89,ls),
(339,-277,o),
(255,-383,o),
(108,-383,cs),
(73,-383,o),
(33,-373,o),
(9,-365,c),
(-4,-417,l),
(36,-430,o),
(68,-437,o),
(108,-437,cs)
);
}
);
width = 563;
},
{
anchors = (
{
name = bottom;
pos = (238,-555);
},
{
name = top;
pos = (278,1082);
}
);
layerId = "B06AEEA2-953E-4FA5-BFB1-0445B6E4B274";
shapes = (
{
closed = 1;
nodes = (
(260,-437,o),
(381,-312,o),
(381,-89,cs),
(381,1082,l),
(21,1082,l),
(21,955,l),
(184,927,l),
(184,-89,ls),
(184,-209,o),
(135,-282,o),
(56,-282,cs),
(32,-282,o),
(-24,-276,o),
(-43,-269,c),
(-56,-419,l),
(-19,-431,o),
(13,-437,o),
(56,-437,cs)
);
}
);
width = 525;
},
{
anchors = (
{
name = bottom;
pos = (324,-555);
},
{
name = top;
pos = (367,1082);
}
);
layerId = "55372407-EEEC-4390-8B77-FB5958F23D2B";
shapes = (
{
closed = 1;
nodes = (
(398,-437,o),
(551,-284,o),
(551,-10,cs),
(551,1082,l),
(50,1082,l),
(50,876,l),
(202,844,l),
(202,-10,ls),
(202,-112,o),
(160,-169,o),
(85,-169,cs),
(42,-169,o),
(22,-164,o),
(-12,-156,c),
(-28,-421,l),
(26,-433,o),
(73,-437,o),
(136,-437,cs)
);
}
);
width = 647;
}
);
unicode = 567;
},
{
color = 3;
glyphname = k;
kernLeft = h;
lastChange = "2018-07-27 22:42:56 +0000";
layers = (
{
anchors = (
{
name = bottom;
pos = (577,0);
},
{
name = top;
pos = (577,2146);
}
);
layerId = "0331963E-C1C8-4E93-A463-84B984C1D75E";
shapes = (
{
closed = 1;
nodes = (
(442,0,l),
(442,54,l),
(279,54,l),
(279,1560,l),
(62,1560,l),
(62,1506,l),
(225,1506,l),
(225,54,l),
(62,54,l),
(62,0,l)
);
},
{
closed = 1;
nodes = (
(1081,0,l),
(1081,54,l),
(964,54,l),
(528,649,l),
(490,614,l),
(889,59,l),
(887,54,l),
(761,54,l),
(761,0,l)
);
},
{
closed = 1;
nodes = (
(916,1028,l),
(1038,1028,l),
(1038,1082,l),
(717,1082,l),
(717,1028,l),
(836,1028,l),
(838,1022,l),
(251,400,l),
(269,346,l)
);
}
);
width = 1154;
},
{
anchors = (
{
name = bottom;
pos = (644,0);
},
{
name = top;
pos = (327,1456);
}
);
layerId = "B06AEEA2-953E-4FA5-BFB1-0445B6E4B274";
shapes = (
{
closed = 1;
nodes = (
(587,0,l),
(587,126,l),
(424,154,l),
(424,1560,l),
(64,1560,l),
(64,1433,l),
(227,1405,l),
(227,154,l),
(64,126,l),
(64,0,l)
);
},
{
closed = 1;
nodes = (
(1248,0,l),
(1248,126,l),
(1092,150,l),
(655,704,l),
(553,547,l),
(866,143,l),
(869,139,l),
(759,126,l),
(759,0,l)
);
},
{
closed = 1;
nodes = (
(1023,929,l),
(1162,955,l),
(1162,1082,l),
(696,1082,l),
(696,955,l),
(812,942,l),
(807,936,l),
(337,468,l),
(410,313,l)
);
}
);
width = 1287;
},
{
associatedMasterId = "B06AEEA2-953E-4FA5-BFB1-0445B6E4B274";
layerId = "AEF7E964-6F7F-4951-9CB3-AA03DF705DC2";
name = "Jul 15 18, 14:37";
shapes = (
{
closed = 1;
nodes = (
(64,1560,l),
(424,1560,l),
(424,656,l),
(550,656,l),
(813,936,l),
(818,942,l),
(702,955,l),
(702,1082,l),
(1162,1082,l),
(1162,955,l),
(1023,929,l),
(716,585,l),
(1092,150,l),
(1248,126,l),
(1248,0,l),
(759,0,l),
(759,126,l),
(869,139,l),
(866,143,l),
(554,499,l),
(424,499,l),
(424,154,l),
(587,126,l),
(587,0,l),
(64,0,l),
(64,126,l),
(227,154,l),
(227,1405,l),
(64,1433,l)
);
}
);
width = 1287;
},
{
associatedMasterId = "0331963E-C1C8-4E93-A463-84B984C1D75E";
layerId = "56D0CE54-3D01-4B21-8538-4CD915B61D74";
name = "Jul 15 18, 14:37";
shapes = (
{
closed = 1;
nodes = (
(62,1560,l),
(279,1560,l),
(279,607,l),
(406,607,l),
(836,1022,l),
(834,1028,l),
(715,1028,l),
(715,1082,l),
(1036,1082,l),
(1036,1028,l),
(914,1028,l),
(467,589,l),
(956,54,l),
(1073,54,l),
(1073,0,l),
(753,0,l),
(753,54,l),
(879,54,l),
(881,59,l),
(427,553,l),
(279,553,l),
(279,54,l),
(442,54,l),
(442,0,l),
(62,0,l),
(62,54,l),
(225,54,l),
(225,1506,l),
(62,1506,l)
);
}
);
width = 1152;
},
{
anchors = (
{
name = bottom;
pos = (667,0);
},
{
name = top;
pos = (345,1456);
}
);
layerId = "55372407-EEEC-4390-8B77-FB5958F23D2B";
shapes = (
{
closed = 1;
nodes = (
(616,0,l),
(616,205,l),
(513,237,l),
(513,1560,l),
(12,1560,l),
(12,1354,l),
(164,1322,l),
(164,237,l),
(36,205,l),
(36,0,l)
);
},
{
closed = 1;
nodes = (
(1295,0,l),
(1295,205,l),
(1174,241,l),
(870,651,l),
(632,439,l),
(785,218,l),
(787,214,l),
(721,191,l),
(721,0,l)
);
},
{
closed = 1;
nodes = (
(1135,835,l),
(1275,876,l),
(1275,1082,l),
(652,1082,l),
(652,879,l),
(760,861,l),
(760,860,l),
(290,453,l),
(472,285,l)
);
}
);
width = 1334;
}
);
unicode = 107;
},
{
color = 9;
glyphname = kgreenlandic;
lastChange = "2018-07-27 22:42:56 +0000";
layers = (
{
anchors = (
{
name = bottom;
pos = (582,0);
},
{
name = top;
pos = (582,1082);
}
);
layerId = "0331963E-C1C8-4E93-A463-84B984C1D75E";
metricRight = "=82";
shapes = (
{
closed = 1;
nodes = (
(922,1028,l),
(1044,1028,l),
(1044,1082,l),
(723,1082,l),
(723,1028,l),
(842,1028,l),
(844,1022,l),
(251,400,l),
(269,346,l)
);
},
{
closed = 1;
nodes = (
(442,0,l),
(442,54,l),
(279,54,l),
(279,1082,l),
(62,1082,l),
(62,1028,l),
(225,1028,l),
(225,54,l),
(62,54,l),
(62,0,l)
);
},
{
closed = 1;
nodes = (
(1081,0,l),
(1081,54,l),
(964,54,l),
(528,649,l),
(490,614,l),
(931,0,l)
);
}
);
width = 1163;
},
{
anchors = (
{
name = bottom;
pos = (639,0);
},
{
name = top;
pos = (629,1082);
}
);
layerId = "B06AEEA2-953E-4FA5-BFB1-0445B6E4B274";
metricRight = "=71";
shapes = (
{
closed = 1;
nodes = (
(1023,929,l),
(1162,955,l),
(1162,1082,l),
(696,1082,l),
(696,955,l),
(812,942,l),
(807,936,l),
(337,468,l),
(410,313,l)
);
},
{
closed = 1;
nodes = (
(587,0,l),
(587,126,l),
(424,154,l),
(424,1082,l),
(64,1082,l),
(64,955,l),
(227,927,l),
(227,154,l),
(64,126,l),
(64,0,l)
);
},
{
closed = 1;
nodes = (
(1186,0,l),
(1186,126,l),
(1066,150,l),
(655,704,l),
(551,547,l),
(949,0,l)
);
}
);
width = 1257;
},
{
anchors = (
{
name = bottom;
pos = (666,0);
},
{
name = top;
pos = (666,1082);
}
);
layerId = "55372407-EEEC-4390-8B77-FB5958F23D2B";
metricRight = "=53";
shapes = (
{
closed = 1;
nodes = (
(1113,839,l),
(1252,876,l),
(1252,1082,l),
(649,1082,l),
(649,878,l),
(743,858,l),
(740,856,l),
(322,470,l),
(492,280,l)
);
},
{
closed = 1;
nodes = (
(652,0,l),
(652,205,l),
(529,242,l),
(529,1082,l),
(25,1082,l),
(25,876,l),
(179,838,l),
(179,242,l),
(43,205,l),
(43,0,l)
);
},
{
closed = 1;
nodes = (
(1279,0,l),
(1279,205,l),
(1150,241,l),
(849,676,l),
(602,432,l),
(890,0,l)
);
}
);
width = 1332;
}
);
unicode = 312;
},
{
glyphname = l;
kernLeft = h;
lastChange = "2018-07-30 18:26:19 +0000";
layers = (
{
anchors = (
{
name = bottom;
pos = (291,0);
},
{
name = center;
pos = (277,807);
},
{
name = top;
pos = (277,1456);
},
{
name = topright;
pos = (475,1560);
}
);
layerId = "0331963E-C1C8-4E93-A463-84B984C1D75E";
shapes = (
{
closed = 1;
nodes = (
(462,0,l),
(462,54,l),
(299,54,l),
(299,1560,l),
(82,1560,l),
(82,1506,l),
(245,1506,l),
(245,54,l),
(82,54,l),
(82,0,l)
);
}
);
width = 581;
},
{
anchors = (
{
name = bottom;
pos = (327,0);
},
{
name = center;
pos = (327,753);
},
{
name = top;
pos = (327,1456);
},
{
name = topright;
pos = (653,1560);
}
);
layerId = "B06AEEA2-953E-4FA5-BFB1-0445B6E4B274";
shapes = (
{
closed = 1;
nodes = (
(587,0,l),
(587,126,l),
(424,154,l),
(424,1560,l),
(64,1560,l),
(64,1433,l),
(227,1405,l),
(227,154,l),
(64,126,l),
(64,0,l)
);
}
);
width = 653;
},
{
anchors = (
{
name = bottom;
pos = (342,0);
},
{
name = center;
pos = (342,769);
},
{
name = top;
pos = (342,1456);
},
{
name = topright;
pos = (723,1560);
}
);
layerId = "55372407-EEEC-4390-8B77-FB5958F23D2B";
shapes = (
{
closed = 1;
nodes = (
(642,0,l),
(642,205,l),
(515,237,l),
(515,1560,l),
(12,1560,l),
(12,1354,l),
(164,1322,l),
(164,237,l),
(36,205,l),
(36,0,l)
);
}
);
width = 653;
}
);
unicode = 108;
},
{
glyphname = lslash;
lastChange = "2018-08-01 19:36:53 +0000";
layers = (
{
layerId = "0331963E-C1C8-4E93-A463-84B984C1D75E";
shapes = (
{
ref = l;
},
{
pos = (7,0);
ref = slashshortcomb;
}
);
width = 581;
},
{
layerId = "B06AEEA2-953E-4FA5-BFB1-0445B6E4B274";
shapes = (
{
ref = l;
},
{
pos = (42,-1);
ref = slashshortcomb;
}
);
width = 653;
},
{
layerId = "55372407-EEEC-4390-8B77-FB5958F23D2B";
shapes = (
{
ref = l;
},
{
pos = (-4,0);
ref = slashshortcomb;
}
);
width = 653;
},
{
associatedMasterId = "B06AEEA2-953E-4FA5-BFB1-0445B6E4B274";
layerId = "C692EBE3-4758-4674-BC65-7E08BAC30BBC";
name = "Jul 26 18, 15:00";
shapes = (
{
closed = 1;
nodes = (
(571,930,l),
(571,765,l),
(422,708,l),
(422,154,l),
(585,126,l),
(585,0,l),
(62,0,l),
(62,126,l),
(225,154,l),
(225,633,l),
(81,578,l),
(81,743,l),
(225,798,l),
(225,1405,l),
(62,1433,l),
(62,1560,l),
(422,1560,l),
(422,873,l)
);
}
);
width = 645;
},
{
associatedMasterId = "55372407-EEEC-4390-8B77-FB5958F23D2B";
layerId = "58AB8A12-493D-4BD9-BC46-4911FD2685EB";
name = "Jul 28 18, 15:08";
shapes = (
{
closed = 1;
nodes = (
(649,969,l),
(649,755,l),
(505,711,l),
(505,237,l),
(632,205,l),
(632,0,l),
(26,0,l),
(26,205,l),
(154,237,l),
(154,602,l),
(37,568,l),
(37,782,l),
(154,816,l),
(154,1322,l),
(2,1354,l),
(2,1560,l),
(505,1560,l),
(505,925,l)
);
}
);
visible = 1;
width = 658;
},
{
associatedMasterId = "0331963E-C1C8-4E93-A463-84B984C1D75E";
layerId = "5E8B2684-4003-4896-B749-47F51CB974A5";
name = "Jul 28 18, 15:08";
shapes = (
{
closed = 1;
nodes = (
(497,930,l),
(497,871,l),
(279,782,l),
(279,54,l),
(442,54,l),
(442,0,l),
(62,0,l),
(62,54,l),
(225,54,l),
(225,760,l),
(37,684,l),
(37,743,l),
(225,819,l),
(225,1506,l),
(62,1506,l),
(62,1560,l),
(279,1560,l),
(279,841,l)
);
}
);
width = 524;
}
);
unicode = 322;
},
